<?xml version="1.0" encoding="UTF-8" standalone="no"?>
<svg width="857.25mm" height="352.778mm"
 viewBox="0 0 2430 1000"
 xmlns="http://www.w3.org/2000/svg" xmlns:xlink="http://www.w3.org/1999/xlink"  version="1.2" baseProfile="tiny">
<title>Qt SVG Document</title>
<desc>Generated with Qt</desc>
<defs>
</defs>
<g fill="none" stroke="black" stroke-width="1" fill-rule="evenodd" stroke-linecap="square" stroke-linejoin="bevel" >

<g fill="#ffffff" fill-opacity="1" stroke="none" transform="matrix(1,0,0,1,0,0)"
font-family="Helvetica" font-size="12" font-weight="400" font-style="normal" 
>
<rect x="0" y="0" width="2430" height="1000"/>
</g>

<g fill="none" stroke="#000000" stroke-opacity="1" stroke-width="1" stroke-linecap="square" stroke-linejoin="bevel" transform="matrix(1,0,0,1,0,0)"
font-family="Helvetica" font-size="12" font-weight="400" font-style="normal" 
>
</g>

<g fill="none" stroke="#000000" stroke-opacity="1" stroke-width="1" stroke-linecap="square" stroke-linejoin="bevel" transform="matrix(1,0,0,1,0,0)"
font-family="Helvetica" font-size="12" font-weight="400" font-style="normal" 
>
</g>

<g fill="none" stroke="#000000" stroke-opacity="1" stroke-width="1" stroke-linecap="square" stroke-linejoin="bevel" transform="matrix(5.52151,0,0,5.52151,-22.9205,-11.0187)"
font-family="Helvetica" font-size="12" font-weight="400" font-style="normal" 
>
</g>

<g fill="#628fca" fill-opacity="1" stroke="none" transform="matrix(5.52151,0,0,5.52151,-22.9205,-11.0187)"
font-family="Helvetica" font-size="12" font-weight="400" font-style="normal" 
>
<path vector-effect="none" fill-rule="nonzero" d="M25.3445,155.199 L42.7511,157.62 L42.4067,160.097 L42.1307,157.612 L59.6702,155.663 L59.9462,158.148 L59.0164,155.828 L76.0418,149.006 L76.9716,151.327 L75.4891,149.314 L90.7716,138.059 L92.2541,140.072 L90.411,138.383 L103.611,123.98 L105.454,125.669 L103.424,124.209 L115.11,107.967 L117.139,109.427 L115.047,108.059 L126.198,91.0111 C126.208,90.9955 126.218,90.9802 126.229,90.9652 L126.229,90.9654 L137.889,73.9687 C137.928,73.9118 137.969,73.8568 138.012,73.8037 L138.012,73.8037 L151.114,57.7246 C151.187,57.6353 151.266,57.5511 151.35,57.4728 L151.35,57.4728 L166.577,43.3183 C166.69,43.2124 166.814,43.1169 166.946,43.0336 L166.947,43.0338 L184.548,31.9521 C184.703,31.8536 184.871,31.7721 185.047,31.7099 L185.048,31.7103 L204.677,24.7815 C204.86,24.7163 205.053,24.6723 205.252,24.652 L205.253,24.6521 L226.015,22.5132 C226.099,22.5044 226.185,22.5 226.272,22.5 C227.652,22.5 228.772,23.6193 228.772,25 C228.772,26.3807 227.652,27.5 226.272,27.5 C224.891,27.5 223.772,26.3807 223.772,25 C223.772,23.9023 224.479,22.9698 225.462,22.6338 L226.58,22.5191 L247.389,25.1084 C247.556,25.1287 247.717,25.1655 247.871,25.2168 L247.87,25.2173 L267.876,31.8791 C268.004,31.9212 268.127,31.9736 268.244,32.035 L268.244,32.0354 L287.019,41.8468 C287.109,41.8936 287.196,41.9459 287.279,42.0032 L287.279,42.0034 L304.764,54.0425 C304.823,54.0829 304.88,54.1259 304.935,54.1711 L304.935,54.1712 L321.298,67.6365 C321.333,67.6648 321.366,67.6941 321.399,67.7243 L321.399,67.7243 L336.915,81.9516 C336.93,81.966 336.946,81.9807 336.961,81.9955 L336.961,81.9955 L351.92,96.4361 C351.921,96.4372 351.922,96.4382 351.923,96.4393 L351.923,96.4393 L366.572,110.633 L364.833,112.428 L366.54,110.602 L381.035,124.157 L379.328,125.983 L380.975,124.103 L395.341,136.695 L393.693,138.575 L395.262,136.629 L409.433,148.058 L407.864,150.004 L409.342,147.988 L423.744,158.549 L420.787,162.581 L406.386,152.02 C406.355,151.998 406.324,151.974 406.294,151.95 L406.294,151.95 L392.123,140.521 C392.096,140.499 392.07,140.477 392.045,140.455 L392.045,140.455 L377.68,127.863 C377.659,127.845 377.64,127.827 377.62,127.809 L377.62,127.809 L363.125,114.254 C363.115,114.244 363.104,114.234 363.093,114.224 L363.093,114.224 L348.444,100.03 L350.183,98.2348 L348.447,100.033 L333.489,85.5928 L335.225,83.7942 L333.535,85.6368 L318.02,71.4095 L319.71,69.5669 L318.121,71.4973 L301.758,58.0321 L303.346,56.1016 L301.928,58.1607 L284.443,46.1216 L285.861,44.0625 L284.703,46.2782 L265.928,36.4668 L267.086,34.2511 L266.296,36.623 L246.291,29.9612 L247.08,27.5892 L246.772,30.0701 L225.963,27.4809 L226.272,25 L226.528,27.4868 L205.766,29.6258 L205.509,27.1389 L206.342,29.4964 L186.712,36.4252 L185.88,34.0677 L187.212,36.1834 L169.611,47.265 L168.279,45.1494 L169.981,46.9804 L154.754,61.1349 L153.052,59.3038 L154.99,60.883 L141.888,76.9622 L139.95,75.383 L142.012,76.7972 L130.352,93.7938 L128.29,92.3796 L130.383,93.7481 L119.232,110.796 C119.211,110.827 119.19,110.857 119.169,110.887 L119.169,110.887 L107.483,127.129 C107.426,127.209 107.363,127.285 107.297,127.358 L107.297,127.358 L94.0972,141.761 C93.9879,141.881 93.8671,141.989 93.7367,142.086 L93.7365,142.085 L78.454,153.34 C78.2851,153.465 78.0998,153.569 77.9023,153.648 L77.9014,153.647 L60.876,160.469 C60.6706,160.552 60.4512,160.608 60.2232,160.633 L60.2222,160.633 L42.6827,162.581 C42.5922,162.591 42.5,162.597 42.4067,162.597 C42.2894,162.597 42.174,162.588 42.0619,162.573 L42.0622,162.573 L24.6555,160.151 L25.3445,155.199"/>
</g>

<g fill="none" stroke="#000000" stroke-opacity="1" stroke-width="0.3" stroke-linecap="square" stroke-linejoin="round" transform="matrix(5.52151,0,0,5.52151,-22.9205,-11.0187)"
font-family="Helvetica" font-size="12" font-weight="400" font-style="normal" 
>
<path vector-effect="none" fill-rule="evenodd" d="M25.3445,155.199 L42.4414,157.577 L59.3321,155.701 L75.7459,149.125 L90.5755,138.204 L103.511,124.089 L115.078,108.012 L126.198,91.0111 L126.213,90.9879 L126.229,90.9652 L126.229,90.9654 L137.889,73.9687 L137.949,73.8848 L138.012,73.8037 L138.012,73.8037 L151.114,57.7246 L151.228,57.5946 L151.35,57.4728 L151.35,57.4728 L166.577,43.3183 L166.755,43.1675 L166.946,43.0336 L166.947,43.0338 L184.548,31.9521 L184.79,31.8174 L185.047,31.7099 L185.048,31.7103 L204.677,24.7815 L204.959,24.6999 L205.252,24.652 L205.253,24.6521 L226.015,22.5132 L226.143,22.5033 L226.272,22.5 L226.37,22.5407 L226.58,22.5191 L247.389,25.1084 L247.635,25.151 L247.871,25.2168 L247.87,25.2173 L267.876,31.8791 L268.064,31.9498 L268.244,32.035 L268.244,32.0354 L287.019,41.8468 L287.152,41.9211 L287.279,42.0032 L287.279,42.0034 L304.764,54.0425 L304.851,54.105 L304.935,54.1711 L304.935,54.1712 L321.298,67.6365 L321.349,67.6797 L321.399,67.7243 L321.399,67.7243 L336.915,81.9516 L336.938,81.9734 L336.961,81.9955 L336.961,81.9955 L351.92,96.4361 L351.921,96.4377 L351.923,96.4393 L351.923,96.4393 L366.557,110.617 L381.006,124.129 L395.302,136.661 L409.389,148.022 L423.744,158.549 L420.787,162.581 L406.386,152.02 L406.34,151.986 L406.294,151.95 L406.294,151.95 L392.123,140.521 L392.084,140.488 L392.045,140.455 L392.045,140.455 L377.68,127.863 L377.65,127.836 L377.62,127.809 L377.62,127.809 L363.125,114.254 L363.109,114.239 L363.093,114.224 L363.093,114.224 L348.446,100.032 L333.512,85.6151 L318.069,71.4548 L301.84,58.1001 L284.569,46.2078 L266.106,36.5597 L246.526,30.0395 L226.245,27.516 L206.061,29.5953 L186.975,36.3322 L169.809,47.1401 L154.881,61.0171 L141.954,76.8822 L130.368,93.7712 L119.232,110.796 L119.201,110.842 L119.169,110.887 L119.169,110.887 L107.483,127.129 L107.393,127.246 L107.297,127.358 L107.297,127.358 L94.0972,141.761 L93.9248,141.932 L93.7367,142.086 L93.7365,142.085 L78.454,153.34 L78.1889,153.511 L77.9023,153.648 L77.9014,153.647 L60.876,160.469 L60.5581,160.573 L60.2232,160.633 L60.2222,160.633 L42.6827,162.581 L42.5458,162.593 L42.4067,162.597 L42.2324,162.591 L42.0619,162.573 L42.0622,162.573 L24.6555,160.151 L25.3445,155.199"/>
</g>

<g fill="none" stroke="#000000" stroke-opacity="1" stroke-width="1" stroke-linecap="square" stroke-linejoin="bevel" transform="matrix(5.52151,0,0,5.52151,-22.9205,-11.0187)"
font-family="Helvetica" font-size="12" font-weight="400" font-style="normal" 
>
</g>

<g fill="none" stroke="#000000" stroke-opacity="1" stroke-width="1" stroke-linecap="square" stroke-linejoin="bevel" transform="matrix(1,0,0,1,0,0)"
font-family="Helvetica" font-size="12" font-weight="400" font-style="normal" 
>
</g>
</g>
</svg>
