<?xml version="1.0" encoding="UTF-8" standalone="no"?>
<svg width="677.333mm" height="352.778mm"
 viewBox="0 0 1920 1000"
 xmlns="http://www.w3.org/2000/svg" xmlns:xlink="http://www.w3.org/1999/xlink"  version="1.2" baseProfile="tiny">
<title>Qt SVG Document</title>
<desc>Generated with Qt</desc>
<defs>
</defs>
<g fill="none" stroke="black" stroke-width="1" fill-rule="evenodd" stroke-linecap="square" stroke-linejoin="bevel" >

<g fill="#ffffff" fill-opacity="1" stroke="none" transform="matrix(1,0,0,1,0,0)"
font-family="Helvetica" font-size="12" font-weight="400" font-style="normal" 
>
<rect x="0" y="0" width="1920" height="1000"/>
</g>

<g fill="none" stroke="#000000" stroke-opacity="1" stroke-width="1" stroke-linecap="square" stroke-linejoin="bevel" transform="matrix(1,0,0,1,0,0)"
font-family="Helvetica" font-size="12" font-weight="400" font-style="normal" 
>
</g>

<g fill="none" stroke="#000000" stroke-opacity="1" stroke-width="1" stroke-linecap="square" stroke-linejoin="bevel" transform="matrix(1,0,0,1,0,0)"
font-family="Helvetica" font-size="12" font-weight="400" font-style="normal" 
>
</g>

<g fill="none" stroke="#000000" stroke-opacity="1" stroke-width="1" stroke-linecap="square" stroke-linejoin="bevel" transform="matrix(4.97091,0,0,4.97091,-24.6706,-26.9297)"
font-family="Helvetica" font-size="12" font-weight="400" font-style="normal" 
>
</g>

<g fill="#caca62" fill-opacity="1" stroke="none" transform="matrix(4.97091,0,0,4.97091,-24.6706,-26.9297)"
font-family="Helvetica" font-size="12" font-weight="400" font-style="normal" 
>
<path vector-effect="none" fill-rule="nonzero" d="M26.9803,23.4741 L37.8957,37.6405 C37.9347,37.6909 37.9717,37.7428 38.0067,37.796 L38.0065,37.7963 L47.9605,52.9889 C47.9963,53.0428 48.0297,53.0984 48.061,53.1552 L48.0607,53.1557 L57.1846,69.7716 C57.2152,69.8263 57.2435,69.8827 57.2696,69.9399 L57.2692,69.9407 L65.3719,87.7729 C65.3952,87.8225 65.4164,87.8735 65.4357,87.9248 L65.4354,87.9258 L72.4882,106.65 C72.5024,106.686 72.5153,106.722 72.5271,106.759 L72.5268,106.76 L78.7646,125.999 C78.7672,126.005 78.7693,126.012 78.7713,126.018 L78.7709,126.019 L84.8489,145.311 L82.4644,146.062 L84.7885,145.141 L92.1652,163.749 L89.8412,164.671 L91.8508,163.184 L103.575,179.028 L101.565,180.515 L102.269,178.116 L121.007,183.612 L120.304,186.011 L119.171,183.782 L136.866,174.792 L137.999,177.02 L136.201,175.283 L150.37,160.615 L152.168,162.352 L150.217,160.789 L163.291,144.476 C163.294,144.471 163.298,144.466 163.302,144.461 L163.302,144.461 L176.706,127.987 C176.735,127.951 176.765,127.916 176.796,127.882 L176.796,127.882 L191.194,112.056 C191.239,112.007 191.286,111.96 191.334,111.914 L191.334,111.914 L206.968,97.2662 C207.023,97.2145 207.08,97.1652 207.14,97.1187 L207.14,97.1187 L223.992,83.9836 C224.052,83.9365 224.115,83.8921 224.179,83.8507 L224.179,83.8509 L242.063,72.382 C242.122,72.3436 242.183,72.3079 242.246,72.2749 L242.246,72.2752 L260.876,62.4488 C260.928,62.4205 260.982,62.3944 261.037,62.3704 L261.038,62.3707 L280.087,54.0139 C280.128,53.9948 280.171,53.9773 280.214,53.9612 L280.215,53.9616 L299.359,46.8045 C299.388,46.7928 299.418,46.7822 299.448,46.7723 L299.449,46.7727 L318.372,40.5124 C318.389,40.5061 318.406,40.5006 318.423,40.4954 L318.424,40.4957 L336.818,34.8557 C336.824,34.8532 336.831,34.8512 336.837,34.8494 L336.838,34.8497 L354.46,29.607 L355.173,32.0032 L354.456,29.6084 L371.718,24.4355 L373.153,29.2251 L355.891,34.398 C355.89,34.399 355.888,34.3995 355.887,34.3998 L355.886,34.3994 L338.264,39.6421 L337.551,37.2459 L338.284,39.6361 L319.89,45.2761 L319.157,42.8859 L319.942,45.2594 L301.019,51.5197 L300.234,49.1462 L301.11,51.4879 L281.966,58.6449 L281.091,56.3032 L282.095,58.5926 L263.046,66.9494 L262.042,64.6601 L263.208,66.8713 L244.579,76.6977 L243.413,74.4864 L244.762,76.5909 L226.879,88.0598 L225.529,85.9553 L227.066,87.9271 L210.214,101.062 L208.677,99.0905 L210.386,100.915 L194.753,115.563 L193.044,113.739 L194.893,115.421 L180.495,131.247 L178.646,129.565 L180.585,131.142 L167.181,147.617 L165.241,146.039 L167.192,147.603 L154.119,163.916 C154.071,163.976 154.02,164.034 153.966,164.089 L153.966,164.089 L139.797,178.757 C139.605,178.956 139.38,179.123 139.132,179.25 L139.131,179.249 L121.436,188.24 C121.096,188.414 120.711,188.511 120.304,188.511 C120.059,188.511 119.822,188.476 119.599,188.411 L119.6,188.41 L100.862,182.914 C100.332,182.759 99.8757,182.434 99.5556,182.002 L99.5557,182.002 L87.8316,166.158 C87.7034,165.985 87.5971,165.795 87.5168,165.593 L87.5171,165.592 L80.1403,146.983 C80.1177,146.928 80.0976,146.871 80.0796,146.814 L80.0799,146.813 L74.002,127.522 L76.3865,126.77 L74.0083,127.541 L67.7705,108.302 L70.1487,107.531 L67.8091,108.412 L60.7563,89.6883 L63.0958,88.8071 L60.8198,89.8413 L52.7171,72.0091 L54.9932,70.9749 L52.8018,72.1782 L43.678,55.5623 L45.8694,54.359 L43.7782,55.7291 L33.8243,40.5365 L35.9154,39.1664 L33.9351,40.6923 L23.0197,26.5259 L26.9803,23.4741"/>
</g>

<g fill="none" stroke="#000000" stroke-opacity="1" stroke-width="0.3" stroke-linecap="square" stroke-linejoin="round" transform="matrix(4.97091,0,0,4.97091,-24.6706,-26.9297)"
font-family="Helvetica" font-size="12" font-weight="400" font-style="normal" 
>
<path vector-effect="none" fill-rule="evenodd" d="M26.9803,23.4741 L37.8957,37.6405 L37.9527,37.7172 L38.0067,37.796 L38.0065,37.7963 L47.9605,52.9889 L48.0124,53.071 L48.061,53.1552 L48.0607,53.1557 L57.1846,69.7716 L57.2288,69.8548 L57.2696,69.9399 L57.2692,69.9407 L65.3719,87.7729 L65.4053,87.8482 L65.4357,87.9248 L65.4354,87.9258 L72.4882,106.65 L72.5085,106.704 L72.5271,106.759 L72.5268,106.76 L78.7646,125.999 L78.7682,126.009 L78.7713,126.018 L78.7709,126.019 L84.8217,145.224 L92.045,163.446 L103.075,178.352 L120.055,183.333 L136.492,174.982 L150.29,160.699 L163.291,144.476 L163.296,144.469 L163.302,144.461 L163.302,144.461 L176.706,127.987 L176.751,127.934 L176.796,127.882 L176.796,127.882 L191.194,112.056 L191.263,111.984 L191.334,111.914 L191.334,111.914 L206.968,97.2662 L207.052,97.1905 L207.14,97.1187 L207.14,97.1187 L223.992,83.9836 L224.084,83.915 L224.179,83.8507 L224.179,83.8509 L242.063,72.382 L242.153,72.3265 L242.246,72.2749 L242.246,72.2752 L260.876,62.4488 L260.955,62.408 L261.037,62.3704 L261.038,62.3707 L280.087,54.0139 L280.15,53.9864 L280.214,53.9612 L280.215,53.9616 L299.359,46.8045 L299.403,46.7877 L299.448,46.7723 L299.449,46.7727 L318.372,40.5124 L318.397,40.5035 L318.423,40.4954 L318.424,40.4957 L336.818,34.8557 L336.828,34.8523 L336.837,34.8494 L336.838,34.8497 L354.458,29.6077 L371.718,24.4355 L373.153,29.2251 L355.891,34.398 L355.889,34.3991 L355.887,34.3998 L355.886,34.3994 L338.274,39.6391 L319.916,45.268 L301.065,51.5046 L282.032,58.6206 L263.129,66.9133 L244.673,76.6482 L226.975,87.9978 L210.304,100.992 L194.826,115.495 L180.541,131.196 L167.186,147.61 L154.119,163.916 L154.045,164.004 L153.966,164.089 L153.966,164.089 L139.797,178.757 L139.486,179.03 L139.132,179.25 L139.131,179.249 L121.436,188.24 L120.895,188.441 L120.304,188.511 L119.943,188.485 L119.599,188.411 L119.6,188.41 L100.862,182.914 L100.13,182.562 L99.5556,182.002 L99.5557,182.002 L87.8316,166.158 L87.6563,165.887 L87.5168,165.593 L87.5171,165.592 L80.1403,146.983 L80.1082,146.899 L80.0796,146.814 L80.0799,146.813 L74.0051,127.532 L67.7885,108.358 L60.7855,89.7658 L52.7563,72.0952 L43.7249,55.6476 L33.8767,40.6165 L23.0197,26.5259 L26.9803,23.4741"/>
</g>

<g fill="none" stroke="#000000" stroke-opacity="1" stroke-width="1" stroke-linecap="square" stroke-linejoin="bevel" transform="matrix(4.97091,0,0,4.97091,-24.6706,-26.9297)"
font-family="Helvetica" font-size="12" font-weight="400" font-style="normal" 
>
</g>

<g fill="none" stroke="#000000" stroke-opacity="1" stroke-width="1" stroke-linecap="square" stroke-linejoin="bevel" transform="matrix(1,0,0,1,0,0)"
font-family="Helvetica" font-size="12" font-weight="400" font-style="normal" 
>
</g>
</g>
</svg>
