<?xml version="1.0" encoding="UTF-8" standalone="no"?>
<svg width="427.567mm" height="352.778mm"
 viewBox="0 0 1212 1000"
 xmlns="http://www.w3.org/2000/svg" xmlns:xlink="http://www.w3.org/1999/xlink"  version="1.2" baseProfile="tiny">
<title>Qt SVG Document</title>
<desc>Generated with Qt</desc>
<defs>
</defs>
<g fill="none" stroke="black" stroke-width="1" fill-rule="evenodd" stroke-linecap="square" stroke-linejoin="bevel" >

<g fill="#ffffff" fill-opacity="1" stroke="none" transform="matrix(1,0,0,1,0,0)"
font-family="Helvetica" font-size="12" font-weight="400" font-style="normal" 
>
<rect x="0" y="0" width="1212" height="1000"/>
</g>

<g fill="none" stroke="#000000" stroke-opacity="1" stroke-width="1" stroke-linecap="square" stroke-linejoin="bevel" transform="matrix(1,0,0,1,0,0)"
font-family="Helvetica" font-size="12" font-weight="400" font-style="normal" 
>
</g>

<g fill="none" stroke="#000000" stroke-opacity="1" stroke-width="1" stroke-linecap="square" stroke-linejoin="bevel" transform="matrix(1,0,0,1,0,0)"
font-family="Helvetica" font-size="12" font-weight="400" font-style="normal" 
>
</g>

<g fill="none" stroke="#000000" stroke-opacity="1" stroke-width="1" stroke-linecap="square" stroke-linejoin="bevel" transform="matrix(6.29677,0,0,6.29677,-84.189,-84.189)"
font-family="Helvetica" font-size="12" font-weight="400" font-style="normal" 
>
</g>

<g fill="none" stroke="#000000" stroke-opacity="0.705882" stroke-width="1.5" stroke-linecap="round" stroke-linejoin="bevel" transform="matrix(6.29677,0,0,6.29677,-84.189,-84.189)"
font-family="Helvetica" font-size="12" font-weight="400" font-style="normal" 
>
<path vector-effect="none" fill-rule="evenodd" d="M50.1732,155.82 C47.9035,155.101 45.8733,150.498 47.9903,151.588 "/>
</g>

<g fill="none" stroke="#000000" stroke-opacity="1" stroke-width="1" stroke-linecap="square" stroke-linejoin="bevel" transform="matrix(6.29677,0,0,6.29677,-84.189,-84.189)"
font-family="Helvetica" font-size="12" font-weight="400" font-style="normal" 
>
</g>

<g fill="none" stroke="#000000" stroke-opacity="1" stroke-width="1" stroke-linecap="square" stroke-linejoin="bevel" transform="matrix(6.29677,0,0,6.29677,-84.189,-84.189)"
font-family="Helvetica" font-size="12" font-weight="400" font-style="normal" 
>
</g>

<g fill="none" stroke="#000000" stroke-opacity="0.705882" stroke-width="1.5" stroke-linecap="round" stroke-linejoin="bevel" transform="matrix(6.29677,0,0,6.29677,-84.189,-84.189)"
font-family="Helvetica" font-size="12" font-weight="400" font-style="normal" 
>
<path vector-effect="none" fill-rule="evenodd" d="M50.1732,155.82 C47.4106,154.944 50.1489,148.935 47.747,150.556 "/>
</g>

<g fill="none" stroke="#000000" stroke-opacity="1" stroke-width="1" stroke-linecap="square" stroke-linejoin="bevel" transform="matrix(6.29677,0,0,6.29677,-84.189,-84.189)"
font-family="Helvetica" font-size="12" font-weight="400" font-style="normal" 
>
</g>

<g fill="none" stroke="#000000" stroke-opacity="1" stroke-width="1" stroke-linecap="square" stroke-linejoin="bevel" transform="matrix(6.29677,0,0,6.29677,-84.189,-84.189)"
font-family="Helvetica" font-size="12" font-weight="400" font-style="normal" 
>
</g>

<g fill="none" stroke="#000000" stroke-opacity="0.705882" stroke-width="1.5" stroke-linecap="round" stroke-linejoin="bevel" transform="matrix(6.29677,0,0,6.29677,-84.189,-84.189)"
font-family="Helvetica" font-size="12" font-weight="400" font-style="normal" 
>
<path vector-effect="none" fill-rule="evenodd" d="M193.765,76.4199 C193.762,78.9667 193.02,79.9 190.511,80.3385 "/>
</g>

<g fill="none" stroke="#000000" stroke-opacity="1" stroke-width="1" stroke-linecap="square" stroke-linejoin="bevel" transform="matrix(6.29677,0,0,6.29677,-84.189,-84.189)"
font-family="Helvetica" font-size="12" font-weight="400" font-style="normal" 
>
</g>

<g fill="none" stroke="#000000" stroke-opacity="1" stroke-width="1" stroke-linecap="square" stroke-linejoin="bevel" transform="matrix(6.29677,0,0,6.29677,-84.189,-84.189)"
font-family="Helvetica" font-size="12" font-weight="400" font-style="normal" 
>
</g>

<g fill="none" stroke="#000000" stroke-opacity="0.705882" stroke-width="1.5" stroke-linecap="round" stroke-linejoin="bevel" transform="matrix(6.29677,0,0,6.29677,-84.189,-84.189)"
font-family="Helvetica" font-size="12" font-weight="400" font-style="normal" 
>
<path vector-effect="none" fill-rule="evenodd" d="M35.3666,92.0069 C32.9212,91.2044 32.5336,90.859 31.6557,88.4396 "/>
</g>

<g fill="none" stroke="#000000" stroke-opacity="1" stroke-width="1" stroke-linecap="square" stroke-linejoin="bevel" transform="matrix(6.29677,0,0,6.29677,-84.189,-84.189)"
font-family="Helvetica" font-size="12" font-weight="400" font-style="normal" 
>
</g>

<g fill="none" stroke="#000000" stroke-opacity="1" stroke-width="1" stroke-linecap="square" stroke-linejoin="bevel" transform="matrix(6.29677,0,0,6.29677,-84.189,-84.189)"
font-family="Helvetica" font-size="12" font-weight="400" font-style="normal" 
>
</g>

<g fill="none" stroke="#000000" stroke-opacity="0.705882" stroke-width="1.5" stroke-linecap="round" stroke-linejoin="bevel" transform="matrix(6.29677,0,0,6.29677,-84.189,-84.189)"
font-family="Helvetica" font-size="12" font-weight="400" font-style="normal" 
>
<path vector-effect="none" fill-rule="evenodd" d="M47.5825,152.819 C50.191,151.668 47.9341,148.065 50.785,148.101 "/>
</g>

<g fill="none" stroke="#000000" stroke-opacity="1" stroke-width="1" stroke-linecap="square" stroke-linejoin="bevel" transform="matrix(6.29677,0,0,6.29677,-84.189,-84.189)"
font-family="Helvetica" font-size="12" font-weight="400" font-style="normal" 
>
</g>

<g fill="none" stroke="#000000" stroke-opacity="1" stroke-width="1" stroke-linecap="square" stroke-linejoin="bevel" transform="matrix(6.29677,0,0,6.29677,-84.189,-84.189)"
font-family="Helvetica" font-size="12" font-weight="400" font-style="normal" 
>
</g>

<g fill="none" stroke="#000000" stroke-opacity="0.705882" stroke-width="1.5" stroke-linecap="round" stroke-linejoin="bevel" transform="matrix(6.29677,0,0,6.29677,-84.189,-84.189)"
font-family="Helvetica" font-size="12" font-weight="400" font-style="normal" 
>
<path vector-effect="none" fill-rule="evenodd" d="M47.5825,152.819 C50.1109,151.703 45.8318,149.827 43.076,149.619 "/>
</g>

<g fill="none" stroke="#000000" stroke-opacity="1" stroke-width="1" stroke-linecap="square" stroke-linejoin="bevel" transform="matrix(6.29677,0,0,6.29677,-84.189,-84.189)"
font-family="Helvetica" font-size="12" font-weight="400" font-style="normal" 
>
</g>

<g fill="none" stroke="#000000" stroke-opacity="1" stroke-width="1" stroke-linecap="square" stroke-linejoin="bevel" transform="matrix(6.29677,0,0,6.29677,-84.189,-84.189)"
font-family="Helvetica" font-size="12" font-weight="400" font-style="normal" 
>
</g>

<g fill="none" stroke="#000000" stroke-opacity="0.705882" stroke-width="1.5" stroke-linecap="round" stroke-linejoin="bevel" transform="matrix(6.29677,0,0,6.29677,-84.189,-84.189)"
font-family="Helvetica" font-size="12" font-weight="400" font-style="normal" 
>
<path vector-effect="none" fill-rule="evenodd" d="M47.5825,152.819 C49.6469,151.908 41.2788,154.923 43.1489,153.66 "/>
</g>

<g fill="none" stroke="#000000" stroke-opacity="1" stroke-width="1" stroke-linecap="square" stroke-linejoin="bevel" transform="matrix(6.29677,0,0,6.29677,-84.189,-84.189)"
font-family="Helvetica" font-size="12" font-weight="400" font-style="normal" 
>
</g>

<g fill="none" stroke="#000000" stroke-opacity="1" stroke-width="1" stroke-linecap="square" stroke-linejoin="bevel" transform="matrix(6.29677,0,0,6.29677,-84.189,-84.189)"
font-family="Helvetica" font-size="12" font-weight="400" font-style="normal" 
>
</g>

<g fill="none" stroke="#000000" stroke-opacity="0.705882" stroke-width="1.5" stroke-linecap="round" stroke-linejoin="bevel" transform="matrix(6.29677,0,0,6.29677,-84.189,-84.189)"
font-family="Helvetica" font-size="12" font-weight="400" font-style="normal" 
>
<path vector-effect="none" fill-rule="evenodd" d="M47.5825,152.819 C49.6105,151.924 53.9132,154.637 51.9424,153.622 "/>
</g>

<g fill="none" stroke="#000000" stroke-opacity="1" stroke-width="1" stroke-linecap="square" stroke-linejoin="bevel" transform="matrix(6.29677,0,0,6.29677,-84.189,-84.189)"
font-family="Helvetica" font-size="12" font-weight="400" font-style="normal" 
>
</g>

<g fill="none" stroke="#000000" stroke-opacity="1" stroke-width="1" stroke-linecap="square" stroke-linejoin="bevel" transform="matrix(6.29677,0,0,6.29677,-84.189,-84.189)"
font-family="Helvetica" font-size="12" font-weight="400" font-style="normal" 
>
</g>

<g fill="none" stroke="#000000" stroke-opacity="0.705882" stroke-width="1.5" stroke-linecap="round" stroke-linejoin="bevel" transform="matrix(6.29677,0,0,6.29677,-84.189,-84.189)"
font-family="Helvetica" font-size="12" font-weight="400" font-style="normal" 
>
<path vector-effect="none" fill-rule="evenodd" d="M47.5825,152.819 C49.3962,152.019 48.2835,155.221 50.1732,155.82 "/>
</g>

<g fill="none" stroke="#000000" stroke-opacity="1" stroke-width="1" stroke-linecap="square" stroke-linejoin="bevel" transform="matrix(6.29677,0,0,6.29677,-84.189,-84.189)"
font-family="Helvetica" font-size="12" font-weight="400" font-style="normal" 
>
</g>

<g fill="none" stroke="#000000" stroke-opacity="1" stroke-width="1" stroke-linecap="square" stroke-linejoin="bevel" transform="matrix(6.29677,0,0,6.29677,-84.189,-84.189)"
font-family="Helvetica" font-size="12" font-weight="400" font-style="normal" 
>
</g>

<g fill="none" stroke="#000000" stroke-opacity="0.705882" stroke-width="1.5" stroke-linecap="round" stroke-linejoin="bevel" transform="matrix(6.29677,0,0,6.29677,-84.189,-84.189)"
font-family="Helvetica" font-size="12" font-weight="400" font-style="normal" 
>
<path vector-effect="none" fill-rule="evenodd" d="M47.5825,152.819 C50.1533,151.685 55.4546,149.906 52.7149,150.53 "/>
</g>

<g fill="none" stroke="#000000" stroke-opacity="1" stroke-width="1" stroke-linecap="square" stroke-linejoin="bevel" transform="matrix(6.29677,0,0,6.29677,-84.189,-84.189)"
font-family="Helvetica" font-size="12" font-weight="400" font-style="normal" 
>
</g>

<g fill="none" stroke="#000000" stroke-opacity="1" stroke-width="1" stroke-linecap="square" stroke-linejoin="bevel" transform="matrix(6.29677,0,0,6.29677,-84.189,-84.189)"
font-family="Helvetica" font-size="12" font-weight="400" font-style="normal" 
>
</g>

<g fill="none" stroke="#000000" stroke-opacity="0.705882" stroke-width="1.5" stroke-linecap="round" stroke-linejoin="bevel" transform="matrix(6.29677,0,0,6.29677,-84.189,-84.189)"
font-family="Helvetica" font-size="12" font-weight="400" font-style="normal" 
>
<path vector-effect="none" fill-rule="evenodd" d="M47.747,150.556 C49.3657,149.463 48.8321,148.076 50.785,148.101 "/>
</g>

<g fill="none" stroke="#000000" stroke-opacity="1" stroke-width="1" stroke-linecap="square" stroke-linejoin="bevel" transform="matrix(6.29677,0,0,6.29677,-84.189,-84.189)"
font-family="Helvetica" font-size="12" font-weight="400" font-style="normal" 
>
</g>

<g fill="none" stroke="#000000" stroke-opacity="1" stroke-width="1" stroke-linecap="square" stroke-linejoin="bevel" transform="matrix(6.29677,0,0,6.29677,-84.189,-84.189)"
font-family="Helvetica" font-size="12" font-weight="400" font-style="normal" 
>
</g>

<g fill="none" stroke="#000000" stroke-opacity="0.705882" stroke-width="1.5" stroke-linecap="round" stroke-linejoin="bevel" transform="matrix(6.29677,0,0,6.29677,-84.189,-84.189)"
font-family="Helvetica" font-size="12" font-weight="400" font-style="normal" 
>
<path vector-effect="none" fill-rule="evenodd" d="M47.747,150.556 C49.7212,149.223 45.4513,149.798 43.076,149.619 "/>
</g>

<g fill="none" stroke="#000000" stroke-opacity="1" stroke-width="1" stroke-linecap="square" stroke-linejoin="bevel" transform="matrix(6.29677,0,0,6.29677,-84.189,-84.189)"
font-family="Helvetica" font-size="12" font-weight="400" font-style="normal" 
>
</g>

<g fill="none" stroke="#000000" stroke-opacity="1" stroke-width="1" stroke-linecap="square" stroke-linejoin="bevel" transform="matrix(6.29677,0,0,6.29677,-84.189,-84.189)"
font-family="Helvetica" font-size="12" font-weight="400" font-style="normal" 
>
</g>

<g fill="none" stroke="#000000" stroke-opacity="0.705882" stroke-width="1.5" stroke-linecap="round" stroke-linejoin="bevel" transform="matrix(6.29677,0,0,6.29677,-84.189,-84.189)"
font-family="Helvetica" font-size="12" font-weight="400" font-style="normal" 
>
<path vector-effect="none" fill-rule="evenodd" d="M47.747,150.556 C51.891,147.759 54.6886,151.903 48.2456,156.252 C41.8025,160.602 39.0048,156.458 43.1489,153.66 "/>
</g>

<g fill="none" stroke="#000000" stroke-opacity="1" stroke-width="1" stroke-linecap="square" stroke-linejoin="bevel" transform="matrix(6.29677,0,0,6.29677,-84.189,-84.189)"
font-family="Helvetica" font-size="12" font-weight="400" font-style="normal" 
>
</g>

<g fill="none" stroke="#000000" stroke-opacity="1" stroke-width="1" stroke-linecap="square" stroke-linejoin="bevel" transform="matrix(6.29677,0,0,6.29677,-84.189,-84.189)"
font-family="Helvetica" font-size="12" font-weight="400" font-style="normal" 
>
</g>

<g fill="none" stroke="#000000" stroke-opacity="0.705882" stroke-width="1.5" stroke-linecap="round" stroke-linejoin="bevel" transform="matrix(6.29677,0,0,6.29677,-84.189,-84.189)"
font-family="Helvetica" font-size="12" font-weight="400" font-style="normal" 
>
<path vector-effect="none" fill-rule="evenodd" d="M47.747,150.556 C49.9003,149.102 54.2525,154.811 51.9424,153.622 "/>
</g>

<g fill="none" stroke="#000000" stroke-opacity="1" stroke-width="1" stroke-linecap="square" stroke-linejoin="bevel" transform="matrix(6.29677,0,0,6.29677,-84.189,-84.189)"
font-family="Helvetica" font-size="12" font-weight="400" font-style="normal" 
>
</g>

<g fill="none" stroke="#000000" stroke-opacity="1" stroke-width="1" stroke-linecap="square" stroke-linejoin="bevel" transform="matrix(6.29677,0,0,6.29677,-84.189,-84.189)"
font-family="Helvetica" font-size="12" font-weight="400" font-style="normal" 
>
</g>

<g fill="none" stroke="#000000" stroke-opacity="0.705882" stroke-width="1.5" stroke-linecap="round" stroke-linejoin="bevel" transform="matrix(6.29677,0,0,6.29677,-84.189,-84.189)"
font-family="Helvetica" font-size="12" font-weight="400" font-style="normal" 
>
<path vector-effect="none" fill-rule="evenodd" d="M47.747,150.556 C49.8057,149.166 55.1368,149.978 52.7149,150.53 "/>
</g>

<g fill="none" stroke="#000000" stroke-opacity="1" stroke-width="1" stroke-linecap="square" stroke-linejoin="bevel" transform="matrix(6.29677,0,0,6.29677,-84.189,-84.189)"
font-family="Helvetica" font-size="12" font-weight="400" font-style="normal" 
>
</g>

<g fill="none" stroke="#000000" stroke-opacity="1" stroke-width="1" stroke-linecap="square" stroke-linejoin="bevel" transform="matrix(6.29677,0,0,6.29677,-84.189,-84.189)"
font-family="Helvetica" font-size="12" font-weight="400" font-style="normal" 
>
</g>

<g fill="none" stroke="#000000" stroke-opacity="0.705882" stroke-width="1.5" stroke-linecap="round" stroke-linejoin="bevel" transform="matrix(6.29677,0,0,6.29677,-84.189,-84.189)"
font-family="Helvetica" font-size="12" font-weight="400" font-style="normal" 
>
<path vector-effect="none" fill-rule="evenodd" d="M47.9903,151.588 C46.0036,150.565 48.5508,148.073 50.785,148.101 "/>
</g>

<g fill="none" stroke="#000000" stroke-opacity="1" stroke-width="1" stroke-linecap="square" stroke-linejoin="bevel" transform="matrix(6.29677,0,0,6.29677,-84.189,-84.189)"
font-family="Helvetica" font-size="12" font-weight="400" font-style="normal" 
>
</g>

<g fill="none" stroke="#000000" stroke-opacity="1" stroke-width="1" stroke-linecap="square" stroke-linejoin="bevel" transform="matrix(6.29677,0,0,6.29677,-84.189,-84.189)"
font-family="Helvetica" font-size="12" font-weight="400" font-style="normal" 
>
</g>

<g fill="none" stroke="#000000" stroke-opacity="0.705882" stroke-width="1.5" stroke-linecap="round" stroke-linejoin="bevel" transform="matrix(6.29677,0,0,6.29677,-84.189,-84.189)"
font-family="Helvetica" font-size="12" font-weight="400" font-style="normal" 
>
<path vector-effect="none" fill-rule="evenodd" d="M47.9903,151.588 C45.6367,150.377 45.7156,149.818 43.076,149.619 "/>
</g>

<g fill="none" stroke="#000000" stroke-opacity="1" stroke-width="1" stroke-linecap="square" stroke-linejoin="bevel" transform="matrix(6.29677,0,0,6.29677,-84.189,-84.189)"
font-family="Helvetica" font-size="12" font-weight="400" font-style="normal" 
>
</g>

<g fill="none" stroke="#000000" stroke-opacity="1" stroke-width="1" stroke-linecap="square" stroke-linejoin="bevel" transform="matrix(6.29677,0,0,6.29677,-84.189,-84.189)"
font-family="Helvetica" font-size="12" font-weight="400" font-style="normal" 
>
</g>

<g fill="none" stroke="#000000" stroke-opacity="0.705882" stroke-width="1.5" stroke-linecap="round" stroke-linejoin="bevel" transform="matrix(6.29677,0,0,6.29677,-84.189,-84.189)"
font-family="Helvetica" font-size="12" font-weight="400" font-style="normal" 
>
<path vector-effect="none" fill-rule="evenodd" d="M47.9903,151.588 C45.6491,150.383 40.9665,155.134 43.1489,153.66 "/>
</g>

<g fill="none" stroke="#000000" stroke-opacity="1" stroke-width="1" stroke-linecap="square" stroke-linejoin="bevel" transform="matrix(6.29677,0,0,6.29677,-84.189,-84.189)"
font-family="Helvetica" font-size="12" font-weight="400" font-style="normal" 
>
</g>

<g fill="none" stroke="#000000" stroke-opacity="1" stroke-width="1" stroke-linecap="square" stroke-linejoin="bevel" transform="matrix(6.29677,0,0,6.29677,-84.189,-84.189)"
font-family="Helvetica" font-size="12" font-weight="400" font-style="normal" 
>
</g>

<g fill="none" stroke="#000000" stroke-opacity="0.705882" stroke-width="1.5" stroke-linecap="round" stroke-linejoin="bevel" transform="matrix(6.29677,0,0,6.29677,-84.189,-84.189)"
font-family="Helvetica" font-size="12" font-weight="400" font-style="normal" 
>
<path vector-effect="none" fill-rule="evenodd" d="M47.9903,151.588 C43.5446,149.3 45.8328,144.854 52.2545,148.159 C58.6762,151.465 56.388,155.91 51.9424,153.622 "/>
</g>

<g fill="none" stroke="#000000" stroke-opacity="1" stroke-width="1" stroke-linecap="square" stroke-linejoin="bevel" transform="matrix(6.29677,0,0,6.29677,-84.189,-84.189)"
font-family="Helvetica" font-size="12" font-weight="400" font-style="normal" 
>
</g>

<g fill="none" stroke="#000000" stroke-opacity="1" stroke-width="1" stroke-linecap="square" stroke-linejoin="bevel" transform="matrix(6.29677,0,0,6.29677,-84.189,-84.189)"
font-family="Helvetica" font-size="12" font-weight="400" font-style="normal" 
>
</g>

<g fill="none" stroke="#000000" stroke-opacity="0.705882" stroke-width="1.5" stroke-linecap="round" stroke-linejoin="bevel" transform="matrix(6.29677,0,0,6.29677,-84.189,-84.189)"
font-family="Helvetica" font-size="12" font-weight="400" font-style="normal" 
>
<path vector-effect="none" fill-rule="evenodd" d="M47.9903,151.588 C45.8378,150.48 55.0753,149.992 52.7149,150.53 "/>
</g>

<g fill="none" stroke="#000000" stroke-opacity="1" stroke-width="1" stroke-linecap="square" stroke-linejoin="bevel" transform="matrix(6.29677,0,0,6.29677,-84.189,-84.189)"
font-family="Helvetica" font-size="12" font-weight="400" font-style="normal" 
>
</g>

<g fill="none" stroke="#000000" stroke-opacity="1" stroke-width="1" stroke-linecap="square" stroke-linejoin="bevel" transform="matrix(6.29677,0,0,6.29677,-84.189,-84.189)"
font-family="Helvetica" font-size="12" font-weight="400" font-style="normal" 
>
</g>

<g fill="none" stroke="#000000" stroke-opacity="0.705882" stroke-width="1.5" stroke-linecap="round" stroke-linejoin="bevel" transform="matrix(6.29677,0,0,6.29677,-84.189,-84.189)"
font-family="Helvetica" font-size="12" font-weight="400" font-style="normal" 
>
<path vector-effect="none" fill-rule="evenodd" d="M46.7936,151.879 C44.1144,152.489 48.0374,148.066 50.785,148.101 "/>
</g>

<g fill="none" stroke="#000000" stroke-opacity="1" stroke-width="1" stroke-linecap="square" stroke-linejoin="bevel" transform="matrix(6.29677,0,0,6.29677,-84.189,-84.189)"
font-family="Helvetica" font-size="12" font-weight="400" font-style="normal" 
>
</g>

<g fill="none" stroke="#000000" stroke-opacity="1" stroke-width="1" stroke-linecap="square" stroke-linejoin="bevel" transform="matrix(6.29677,0,0,6.29677,-84.189,-84.189)"
font-family="Helvetica" font-size="12" font-weight="400" font-style="normal" 
>
</g>

<g fill="none" stroke="#000000" stroke-opacity="0.705882" stroke-width="1.5" stroke-linecap="round" stroke-linejoin="bevel" transform="matrix(6.29677,0,0,6.29677,-84.189,-84.189)"
font-family="Helvetica" font-size="12" font-weight="400" font-style="normal" 
>
<path vector-effect="none" fill-rule="evenodd" d="M46.7936,151.879 C44.6727,152.362 45.2451,149.782 43.076,149.619 "/>
</g>

<g fill="none" stroke="#000000" stroke-opacity="1" stroke-width="1" stroke-linecap="square" stroke-linejoin="bevel" transform="matrix(6.29677,0,0,6.29677,-84.189,-84.189)"
font-family="Helvetica" font-size="12" font-weight="400" font-style="normal" 
>
</g>

<g fill="none" stroke="#000000" stroke-opacity="1" stroke-width="1" stroke-linecap="square" stroke-linejoin="bevel" transform="matrix(6.29677,0,0,6.29677,-84.189,-84.189)"
font-family="Helvetica" font-size="12" font-weight="400" font-style="normal" 
>
</g>

<g fill="none" stroke="#000000" stroke-opacity="0.705882" stroke-width="1.5" stroke-linecap="round" stroke-linejoin="bevel" transform="matrix(6.29677,0,0,6.29677,-84.189,-84.189)"
font-family="Helvetica" font-size="12" font-weight="400" font-style="normal" 
>
<path vector-effect="none" fill-rule="evenodd" d="M46.7936,151.879 C44.8158,152.329 41.4677,154.795 43.1489,153.66 "/>
</g>

<g fill="none" stroke="#000000" stroke-opacity="1" stroke-width="1" stroke-linecap="square" stroke-linejoin="bevel" transform="matrix(6.29677,0,0,6.29677,-84.189,-84.189)"
font-family="Helvetica" font-size="12" font-weight="400" font-style="normal" 
>
</g>

<g fill="none" stroke="#000000" stroke-opacity="1" stroke-width="1" stroke-linecap="square" stroke-linejoin="bevel" transform="matrix(6.29677,0,0,6.29677,-84.189,-84.189)"
font-family="Helvetica" font-size="12" font-weight="400" font-style="normal" 
>
</g>

<g fill="none" stroke="#000000" stroke-opacity="0.705882" stroke-width="1.5" stroke-linecap="round" stroke-linejoin="bevel" transform="matrix(6.29677,0,0,6.29677,-84.189,-84.189)"
font-family="Helvetica" font-size="12" font-weight="400" font-style="normal" 
>
<path vector-effect="none" fill-rule="evenodd" d="M46.7936,151.879 C44.1435,152.482 54.359,154.866 51.9424,153.622 "/>
</g>

<g fill="none" stroke="#000000" stroke-opacity="1" stroke-width="1" stroke-linecap="square" stroke-linejoin="bevel" transform="matrix(6.29677,0,0,6.29677,-84.189,-84.189)"
font-family="Helvetica" font-size="12" font-weight="400" font-style="normal" 
>
</g>

<g fill="none" stroke="#000000" stroke-opacity="1" stroke-width="1" stroke-linecap="square" stroke-linejoin="bevel" transform="matrix(6.29677,0,0,6.29677,-84.189,-84.189)"
font-family="Helvetica" font-size="12" font-weight="400" font-style="normal" 
>
</g>

<g fill="none" stroke="#000000" stroke-opacity="0.705882" stroke-width="1.5" stroke-linecap="round" stroke-linejoin="bevel" transform="matrix(6.29677,0,0,6.29677,-84.189,-84.189)"
font-family="Helvetica" font-size="12" font-weight="400" font-style="normal" 
>
<path vector-effect="none" fill-rule="evenodd" d="M46.7936,151.879 C44.2624,152.455 47.6985,155.036 50.1732,155.82 "/>
</g>

<g fill="none" stroke="#000000" stroke-opacity="1" stroke-width="1" stroke-linecap="square" stroke-linejoin="bevel" transform="matrix(6.29677,0,0,6.29677,-84.189,-84.189)"
font-family="Helvetica" font-size="12" font-weight="400" font-style="normal" 
>
</g>

<g fill="none" stroke="#000000" stroke-opacity="1" stroke-width="1" stroke-linecap="square" stroke-linejoin="bevel" transform="matrix(6.29677,0,0,6.29677,-84.189,-84.189)"
font-family="Helvetica" font-size="12" font-weight="400" font-style="normal" 
>
</g>

<g fill="none" stroke="#000000" stroke-opacity="0.705882" stroke-width="1.5" stroke-linecap="round" stroke-linejoin="bevel" transform="matrix(6.29677,0,0,6.29677,-84.189,-84.189)"
font-family="Helvetica" font-size="12" font-weight="400" font-style="normal" 
>
<path vector-effect="none" fill-rule="evenodd" d="M46.7936,151.879 C41.9185,152.989 40.8079,148.114 48.6437,146.329 C56.4794,144.544 57.59,149.419 52.7149,150.53 "/>
</g>

<g fill="none" stroke="#000000" stroke-opacity="1" stroke-width="1" stroke-linecap="square" stroke-linejoin="bevel" transform="matrix(6.29677,0,0,6.29677,-84.189,-84.189)"
font-family="Helvetica" font-size="12" font-weight="400" font-style="normal" 
>
</g>

<g fill="none" stroke="#000000" stroke-opacity="1" stroke-width="1" stroke-linecap="square" stroke-linejoin="bevel" transform="matrix(6.29677,0,0,6.29677,-84.189,-84.189)"
font-family="Helvetica" font-size="12" font-weight="400" font-style="normal" 
>
</g>

<g fill="#ca6362" fill-opacity="1" stroke="none" transform="matrix(6.29677,0,0,6.29677,-84.189,-84.189)"
font-family="Helvetica" font-size="12" font-weight="400" font-style="normal" 
>
<path vector-effect="none" fill-rule="nonzero" d="M50.6385,156.155 L46.6864,154.121 L49.2942,149.055 L53.2462,151.089 L50.6385,156.155"/>
</g>

<g fill="none" stroke="#000000" stroke-opacity="1" stroke-width="0.3" stroke-linecap="square" stroke-linejoin="round" transform="matrix(6.29677,0,0,6.29677,-84.189,-84.189)"
font-family="Helvetica" font-size="12" font-weight="400" font-style="normal" 
>
<path vector-effect="none" fill-rule="evenodd" d="M50.6385,156.155 L46.6864,154.121 L49.2942,149.055 L53.2462,151.089 L50.6385,156.155"/>
</g>

<g fill="none" stroke="#000000" stroke-opacity="1" stroke-width="1" stroke-linecap="square" stroke-linejoin="bevel" transform="matrix(6.29677,0,0,6.29677,-84.189,-84.189)"
font-family="Helvetica" font-size="12" font-weight="400" font-style="normal" 
>
</g>

<g fill="none" stroke="#000000" stroke-opacity="1" stroke-width="1" stroke-linecap="square" stroke-linejoin="bevel" transform="matrix(6.29677,0,0,6.29677,-84.189,-84.189)"
font-family="Helvetica" font-size="12" font-weight="400" font-style="normal" 
>
</g>

<g fill="#cac762" fill-opacity="1" stroke="none" transform="matrix(6.29677,0,0,6.29677,-84.189,-84.189)"
font-family="Helvetica" font-size="12" font-weight="400" font-style="normal" 
>
<path vector-effect="none" fill-rule="nonzero" d="M41.1529,150.704 L45.751,147.6 L49.743,153.513 L45.1449,156.617 L41.1529,150.704"/>
</g>

<g fill="none" stroke="#000000" stroke-opacity="1" stroke-width="0.3" stroke-linecap="square" stroke-linejoin="round" transform="matrix(6.29677,0,0,6.29677,-84.189,-84.189)"
font-family="Helvetica" font-size="12" font-weight="400" font-style="normal" 
>
<path vector-effect="none" fill-rule="evenodd" d="M41.1529,150.704 L45.751,147.6 L49.743,153.513 L45.1449,156.617 L41.1529,150.704"/>
</g>

<g fill="none" stroke="#000000" stroke-opacity="1" stroke-width="1" stroke-linecap="square" stroke-linejoin="bevel" transform="matrix(6.29677,0,0,6.29677,-84.189,-84.189)"
font-family="Helvetica" font-size="12" font-weight="400" font-style="normal" 
>
</g>

<g fill="none" stroke="#000000" stroke-opacity="1" stroke-width="1" stroke-linecap="square" stroke-linejoin="bevel" transform="matrix(6.29677,0,0,6.29677,-84.189,-84.189)"
font-family="Helvetica" font-size="12" font-weight="400" font-style="normal" 
>
</g>

<g fill="#62cac0" fill-opacity="1" stroke="none" transform="matrix(6.29677,0,0,6.29677,-84.189,-84.189)"
font-family="Helvetica" font-size="12" font-weight="400" font-style="normal" 
>
<path vector-effect="none" fill-rule="nonzero" d="M50.8087,146.232 L66.5321,146.431 C67.5537,146.444 68.3778,147.276 68.3778,148.3 C68.3778,148.375 68.3734,148.448 68.3651,148.519 L68.3649,148.519 L66.9242,160.761 C66.8158,161.691 66.0259,162.412 65.0677,162.412 C64.8705,162.412 64.6804,162.381 64.5023,162.325 L64.5027,162.325 L49.6082,157.602 L50.7381,154.038 L65.6327,158.761 L65.0677,160.543 L63.2112,160.324 L64.6519,148.082 L66.5084,148.3 L66.4847,150.17 L50.7613,149.97 L50.8087,146.232"/>
</g>

<g fill="none" stroke="#000000" stroke-opacity="1" stroke-width="0.3" stroke-linecap="square" stroke-linejoin="round" transform="matrix(6.29677,0,0,6.29677,-84.189,-84.189)"
font-family="Helvetica" font-size="12" font-weight="400" font-style="normal" 
>
<path vector-effect="none" fill-rule="evenodd" d="M50.8087,146.232 L66.5321,146.431 L67.838,146.986 L68.3778,148.3 L68.3745,148.411 L68.3651,148.519 L68.3649,148.519 L66.9242,160.761 L66.3146,161.935 L65.0677,162.412 L64.7778,162.39 L64.5023,162.325 L64.5027,162.325 L49.6082,157.602 L50.7381,154.038 L63.4757,158.077 L64.4093,150.143 L50.7613,149.97 L50.8087,146.232"/>
</g>

<g fill="none" stroke="#000000" stroke-opacity="1" stroke-width="1" stroke-linecap="square" stroke-linejoin="bevel" transform="matrix(6.29677,0,0,6.29677,-84.189,-84.189)"
font-family="Helvetica" font-size="12" font-weight="400" font-style="normal" 
>
</g>

<g fill="none" stroke="#000000" stroke-opacity="1" stroke-width="1" stroke-linecap="square" stroke-linejoin="bevel" transform="matrix(6.29677,0,0,6.29677,-84.189,-84.189)"
font-family="Helvetica" font-size="12" font-weight="400" font-style="normal" 
>
</g>

<g fill="#a0ca62" fill-opacity="1" stroke="none" transform="matrix(6.29677,0,0,6.29677,-84.189,-84.189)"
font-family="Helvetica" font-size="12" font-weight="400" font-style="normal" 
>
<path vector-effect="none" fill-rule="nonzero" d="M190.994,83.1051 L170.922,86.6134 C170.765,86.6411 170.604,86.6553 170.439,86.6553 C169.912,86.6553 169.419,86.5105 168.998,86.2586 L168.999,86.2583 L151.868,76.0306 C151.221,75.6438 150.743,75.004 150.57,74.2487 L150.57,74.2473 L146.153,54.9989 C146.106,54.7973 146.082,54.5869 146.082,54.3707 C146.082,53.688 146.325,53.0621 146.73,52.5754 L146.73,52.5755 L159.294,37.459 C159.809,36.8398 160.585,36.4456 161.454,36.4456 C163.005,36.4456 164.262,37.7031 164.262,39.2542 C164.262,40.8054 163.005,42.0628 161.454,42.0628 C160.144,42.0628 159.043,41.1657 158.733,39.953 L161.642,36.4519 L181.336,37.7734 C182.136,37.8264 182.844,38.2137 183.322,38.7967 L183.322,38.7967 L195.966,54.2441 C196.363,54.7284 196.601,55.3479 196.601,56.023 C196.601,56.0243 196.601,56.0255 196.601,56.0268 L196.601,56.0268 L196.574,76.4237 L190.957,76.4162 L190.984,56.0193 L193.792,56.023 L191.619,57.802 L178.975,42.3546 L181.148,40.5757 L180.96,43.378 L161.266,42.0565 L161.454,39.2542 L163.614,41.0494 L151.05,56.1659 L148.89,54.3707 L151.628,53.7424 L156.045,72.9908 L153.308,73.6191 L154.747,71.2076 L171.878,81.4352 L170.439,83.8467 L169.955,81.0801 L190.027,77.5718 L190.994,83.1051"/>
</g>

<g fill="none" stroke="#000000" stroke-opacity="1" stroke-width="0.3" stroke-linecap="square" stroke-linejoin="round" transform="matrix(6.29677,0,0,6.29677,-84.189,-84.189)"
font-family="Helvetica" font-size="12" font-weight="400" font-style="normal" 
>
<path vector-effect="none" fill-rule="evenodd" d="M190.994,83.1051 L170.922,86.6134 L170.683,86.6448 L170.439,86.6553 L169.679,86.5514 L168.998,86.2586 L168.999,86.2583 L151.868,76.0306 L151.041,75.2778 L150.57,74.2487 L150.57,74.2473 L146.153,54.9989 L146.1,54.6903 L146.082,54.3707 L146.254,53.3995 L146.73,52.5754 L146.73,52.5755 L159.294,37.459 L160.241,36.7201 L161.454,36.4456 L161.598,36.5052 L161.642,36.4519 L181.336,37.7734 L182.45,38.0863 L183.322,38.7967 L183.322,38.7967 L195.966,54.2441 L196.432,55.062 L196.601,56.023 L196.601,56.0249 L196.601,56.0268 L196.601,56.0268 L196.574,76.4237 L190.957,76.4162 L190.982,57.0243 L179.746,43.2965 L162.697,42.1526 L151.939,55.097 L155.777,71.8222 L170.983,80.9005 L190.027,77.5718 L190.994,83.1051"/>
</g>

<g fill="none" stroke="#000000" stroke-opacity="1" stroke-width="1" stroke-linecap="square" stroke-linejoin="bevel" transform="matrix(6.29677,0,0,6.29677,-84.189,-84.189)"
font-family="Helvetica" font-size="12" font-weight="400" font-style="normal" 
>
</g>

<g fill="none" stroke="#000000" stroke-opacity="1" stroke-width="1" stroke-linecap="square" stroke-linejoin="bevel" transform="matrix(6.29677,0,0,6.29677,-84.189,-84.189)"
font-family="Helvetica" font-size="12" font-weight="400" font-style="normal" 
>
</g>

<g fill="#6962ca" fill-opacity="1" stroke="none" transform="matrix(6.29677,0,0,6.29677,-84.189,-84.189)"
font-family="Helvetica" font-size="12" font-weight="400" font-style="normal" 
>
<path vector-effect="none" fill-rule="nonzero" d="M29.4177,89.2517 L22.762,70.9096 C22.6695,70.6566 22.6193,70.383 22.6193,70.0976 C22.6193,70.0183 22.6231,69.9399 22.6306,69.8633 L22.6308,69.8635 L24.5207,50.7306 C24.5579,50.3494 24.6846,49.9953 24.8795,49.6888 L24.8797,49.689 L35.1321,33.5326 C35.3393,33.2064 35.6237,32.9342 35.9594,32.7417 L35.9598,32.7419 L52.4908,23.282 C52.8271,23.0886 53.2154,22.9754 53.6293,22.968 L53.6296,22.968 L72.5996,22.6197 C72.6141,22.6194 72.6287,22.6193 72.6433,22.6193 C73.9581,22.6193 75.024,23.6852 75.024,25 C75.024,26.3148 73.9581,27.3807 72.6433,27.3807 C71.3284,27.3807 70.2625,26.3148 70.2625,25 C70.2625,24.1305 70.7286,23.37 71.4244,22.9545 L73.7858,22.9113 L90.3888,31.9937 C90.7636,32.1987 91.0768,32.5017 91.2944,32.868 L91.2942,32.8684 L100.938,49.1378 C101.15,49.4931 101.271,49.9083 101.271,50.3518 C101.271,50.3546 101.271,50.3574 101.271,50.3602 L101.271,50.3602 L101.204,69.3104 C101.203,69.7413 101.087,70.1452 100.885,70.4932 L100.885,70.4929 L91.3625,86.9777 C91.1686,87.3135 90.895,87.597 90.5678,87.803 L90.5675,87.8028 L74.3484,97.9919 C74.0518,98.179 73.7108,98.3021 73.3455,98.3422 L73.3446,98.3421 L54.1985,100.467 C54.1124,100.477 54.0247,100.482 53.9358,100.482 C53.6762,100.482 53.4263,100.44 53.1929,100.363 L53.1935,100.363 L34.6242,94.2689 L36.1089,89.7449 L54.6782,95.8389 L53.9358,98.101 L53.6732,95.7347 L72.8193,93.6097 L73.082,95.9759 L71.8155,93.96 L88.0346,83.771 L89.301,85.7869 L87.2395,84.5961 L96.7621,68.1112 L98.8236,69.3021 L96.4429,69.2937 L96.5095,50.3434 L98.8902,50.3518 L96.8422,51.5658 L87.1983,35.2963 L89.2462,34.0823 L88.1037,36.171 L71.5007,27.0887 L72.6433,25 L72.687,27.3803 L53.717,27.7287 L53.6733,25.3483 L54.8557,27.4147 L38.3247,36.8746 L37.1423,34.8082 L39.1525,36.0838 L28.9001,52.2402 L26.8899,50.9646 L29.2591,51.1987 L27.3692,70.3316 L25,70.0976 L27.238,69.2855 L33.8937,87.6276 L29.4177,89.2517"/>
</g>

<g fill="none" stroke="#000000" stroke-opacity="1" stroke-width="0.3" stroke-linecap="square" stroke-linejoin="round" transform="matrix(6.29677,0,0,6.29677,-84.189,-84.189)"
font-family="Helvetica" font-size="12" font-weight="400" font-style="normal" 
>
<path vector-effect="none" fill-rule="evenodd" d="M29.4177,89.2517 L22.762,70.9096 L22.6559,70.5157 L22.6193,70.0976 L22.6221,69.9795 L22.6306,69.8633 L22.6308,69.8635 L24.5207,50.7306 L24.641,50.1817 L24.8795,49.6888 L24.8797,49.689 L35.1321,33.5326 L35.4975,33.087 L35.9594,32.7417 L35.9598,32.7419 L52.4908,23.282 L53.031,23.0553 L53.6293,22.968 L53.6296,22.968 L72.5996,22.6197 L72.6214,22.6194 L72.6433,22.6193 L73.3669,22.919 L73.7858,22.9113 L90.3888,31.9937 L90.9006,32.3704 L91.2944,32.868 L91.2942,32.8684 L100.938,49.1378 L101.184,49.7117 L101.271,50.3518 L101.271,50.356 L101.271,50.3602 L101.271,50.3602 L101.204,69.3104 L101.12,69.9329 L100.885,70.4932 L100.885,70.4929 L91.3625,86.9777 L91.0151,87.439 L90.5678,87.803 L90.5675,87.8028 L74.3484,97.9919 L73.8727,98.2222 L73.3455,98.3422 L73.3446,98.3421 L54.1985,100.467 L54.0682,100.478 L53.9358,100.482 L53.5546,100.451 L53.1929,100.363 L53.1935,100.363 L34.6242,94.2689 L36.1089,89.7449 L54.187,95.6777 L72.2773,93.6699 L87.5348,84.085 L96.4451,68.66 L96.5072,51.0005 L87.5311,35.8577 L72.0551,27.3919 L54.3266,27.7175 L38.8365,36.5817 L29.2035,51.7621 L27.4223,69.7936 L33.8937,87.6276 L29.4177,89.2517"/>
</g>

<g fill="none" stroke="#000000" stroke-opacity="1" stroke-width="1" stroke-linecap="square" stroke-linejoin="bevel" transform="matrix(6.29677,0,0,6.29677,-84.189,-84.189)"
font-family="Helvetica" font-size="12" font-weight="400" font-style="normal" 
>
</g>

<g fill="none" stroke="#000000" stroke-opacity="1" stroke-width="1" stroke-linecap="square" stroke-linejoin="bevel" transform="matrix(6.29677,0,0,6.29677,-84.189,-84.189)"
font-family="Helvetica" font-size="12" font-weight="400" font-style="normal" 
>
</g>

<g fill="#86ca62" fill-opacity="1" stroke="none" transform="matrix(6.29677,0,0,6.29677,-84.189,-84.189)"
font-family="Helvetica" font-size="12" font-weight="400" font-style="normal" 
>
<path vector-effect="none" fill-rule="nonzero" d="M42.911,151.809 L24.8349,150.446 L25,148.256 L27.0574,147.488 L31.7121,159.961 L29.6546,160.729 L28.7682,158.72 L46.6961,150.81 L48.469,154.828 L30.5411,162.738 C30.2703,162.858 29.9702,162.925 29.6546,162.925 C28.7121,162.925 27.9082,162.331 27.5969,161.497 L27.5972,161.497 L22.9426,149.024 C22.8528,148.785 22.804,148.526 22.804,148.256 C22.804,147.043 23.7872,146.06 25,146.06 C26.2128,146.06 27.196,147.043 27.196,148.256 C27.196,148.859 26.9529,149.406 26.5594,149.802 L25.1651,146.066 L43.2411,147.429 L42.911,151.809"/>
</g>

<g fill="none" stroke="#000000" stroke-opacity="1" stroke-width="0.3" stroke-linecap="square" stroke-linejoin="round" transform="matrix(6.29677,0,0,6.29677,-84.189,-84.189)"
font-family="Helvetica" font-size="12" font-weight="400" font-style="normal" 
>
<path vector-effect="none" fill-rule="evenodd" d="M42.911,151.809 L28.2575,150.704 L30.8981,157.78 L46.6961,150.81 L48.469,154.828 L30.5411,162.738 L30.1147,162.876 L29.6546,162.925 L28.389,162.524 L27.5969,161.497 L27.5972,161.497 L22.9426,149.024 L22.8396,148.652 L22.804,148.256 L23.4472,146.703 L25,146.06 L25.1925,146.14 L25.1651,146.066 L43.2411,147.429 L42.911,151.809"/>
</g>

<g fill="none" stroke="#000000" stroke-opacity="1" stroke-width="1" stroke-linecap="square" stroke-linejoin="bevel" transform="matrix(6.29677,0,0,6.29677,-84.189,-84.189)"
font-family="Helvetica" font-size="12" font-weight="400" font-style="normal" 
>
</g>

<g fill="none" stroke="#000000" stroke-opacity="1" stroke-width="1" stroke-linecap="square" stroke-linejoin="bevel" transform="matrix(6.29677,0,0,6.29677,-84.189,-84.189)"
font-family="Helvetica" font-size="12" font-weight="400" font-style="normal" 
>
</g>

<g fill="#98ca62" fill-opacity="1" stroke="none" transform="matrix(6.29677,0,0,6.29677,-84.189,-84.189)"
font-family="Helvetica" font-size="12" font-weight="400" font-style="normal" 
>
<path vector-effect="none" fill-rule="nonzero" d="M141.72,156.919 L129.086,156.707 L129.13,154.119 L129.251,156.704 L116.629,157.295 L116.387,152.125 L129.009,151.534 C129.049,151.532 129.089,151.531 129.13,151.531 C130.559,151.531 131.718,152.69 131.718,154.119 C131.718,155.549 130.559,156.707 129.13,156.707 C127.701,156.707 126.542,155.549 126.542,154.119 C126.542,152.786 127.55,151.689 128.844,151.547 L129.173,151.532 L141.807,151.743 L141.72,156.919"/>
</g>

<g fill="none" stroke="#000000" stroke-opacity="1" stroke-width="0.3" stroke-linecap="square" stroke-linejoin="round" transform="matrix(6.29677,0,0,6.29677,-84.189,-84.189)"
font-family="Helvetica" font-size="12" font-weight="400" font-style="normal" 
>
<path vector-effect="none" fill-rule="evenodd" d="M141.72,156.919 L129.169,156.708 L116.629,157.295 L116.387,152.125 L129.009,151.534 L129.069,151.532 L129.13,151.531 L129.135,151.534 L129.173,151.532 L141.807,151.743 L141.72,156.919"/>
</g>

<g fill="none" stroke="#000000" stroke-opacity="1" stroke-width="1" stroke-linecap="square" stroke-linejoin="bevel" transform="matrix(6.29677,0,0,6.29677,-84.189,-84.189)"
font-family="Helvetica" font-size="12" font-weight="400" font-style="normal" 
>
</g>

<g fill="none" stroke="#000000" stroke-opacity="1" stroke-width="1" stroke-linecap="square" stroke-linejoin="bevel" transform="matrix(6.29677,0,0,6.29677,-84.189,-84.189)"
font-family="Helvetica" font-size="12" font-weight="400" font-style="normal" 
>
</g>

<g fill="#62cab2" fill-opacity="1" stroke="none" transform="matrix(6.29677,0,0,6.29677,-84.189,-84.189)"
font-family="Helvetica" font-size="12" font-weight="400" font-style="normal" 
>
<path vector-effect="none" fill-rule="nonzero" d="M53.32,153.186 L47.3987,154.535 L46.1885,149.222 L52.1098,147.873 L53.32,153.186"/>
</g>

<g fill="none" stroke="#000000" stroke-opacity="1" stroke-width="0.3" stroke-linecap="square" stroke-linejoin="round" transform="matrix(6.29677,0,0,6.29677,-84.189,-84.189)"
font-family="Helvetica" font-size="12" font-weight="400" font-style="normal" 
>
<path vector-effect="none" fill-rule="evenodd" d="M53.32,153.186 L47.3987,154.535 L46.1885,149.222 L52.1098,147.873 L53.32,153.186"/>
</g>

<g fill="none" stroke="#000000" stroke-opacity="1" stroke-width="1" stroke-linecap="square" stroke-linejoin="bevel" transform="matrix(6.29677,0,0,6.29677,-84.189,-84.189)"
font-family="Helvetica" font-size="12" font-weight="400" font-style="normal" 
>
</g>

<g fill="none" stroke="#000000" stroke-opacity="1" stroke-width="1" stroke-linecap="square" stroke-linejoin="bevel" transform="matrix(1,0,0,1,0,0)"
font-family="Helvetica" font-size="12" font-weight="400" font-style="normal" 
>
</g>
</g>
</svg>
