<?xml version="1.0" encoding="UTF-8" standalone="no"?>
<svg width="420.511mm" height="352.778mm"
 viewBox="0 0 1192 1000"
 xmlns="http://www.w3.org/2000/svg" xmlns:xlink="http://www.w3.org/1999/xlink"  version="1.2" baseProfile="tiny">
<title>Qt SVG Document</title>
<desc>Generated with Qt</desc>
<defs>
</defs>
<g fill="none" stroke="black" stroke-width="1" fill-rule="evenodd" stroke-linecap="square" stroke-linejoin="bevel" >

<g fill="#ffffff" fill-opacity="1" stroke="none" transform="matrix(1,0,0,1,0,0)"
font-family="Helvetica" font-size="12" font-weight="400" font-style="normal" 
>
<rect x="0" y="0" width="1192" height="1000"/>
</g>

<g fill="none" stroke="#000000" stroke-opacity="1" stroke-width="1" stroke-linecap="square" stroke-linejoin="bevel" transform="matrix(1,0,0,1,0,0)"
font-family="Helvetica" font-size="12" font-weight="400" font-style="normal" 
>
</g>

<g fill="none" stroke="#000000" stroke-opacity="1" stroke-width="1" stroke-linecap="square" stroke-linejoin="bevel" transform="matrix(1,0,0,1,0,0)"
font-family="Helvetica" font-size="12" font-weight="400" font-style="normal" 
>
</g>

<g fill="none" stroke="#000000" stroke-opacity="1" stroke-width="1" stroke-linecap="square" stroke-linejoin="bevel" transform="matrix(6.18412,0,0,6.18412,-82.6065,-82.6065)"
font-family="Helvetica" font-size="12" font-weight="400" font-style="normal" 
>
</g>

<g fill="none" stroke="#000000" stroke-opacity="0.705882" stroke-width="1.5" stroke-linecap="round" stroke-linejoin="bevel" transform="matrix(6.18412,0,0,6.18412,-82.6065,-82.6065)"
font-family="Helvetica" font-size="12" font-weight="400" font-style="normal" 
>
<path vector-effect="none" fill-rule="evenodd" d="M40.1229,157.175 C42.3217,156.861 43.4523,158.805 44.555,156.877 "/>
</g>

<g fill="none" stroke="#000000" stroke-opacity="1" stroke-width="1" stroke-linecap="square" stroke-linejoin="bevel" transform="matrix(6.18412,0,0,6.18412,-82.6065,-82.6065)"
font-family="Helvetica" font-size="12" font-weight="400" font-style="normal" 
>
</g>

<g fill="none" stroke="#000000" stroke-opacity="1" stroke-width="1" stroke-linecap="square" stroke-linejoin="bevel" transform="matrix(6.18412,0,0,6.18412,-82.6065,-82.6065)"
font-family="Helvetica" font-size="12" font-weight="400" font-style="normal" 
>
</g>

<g fill="none" stroke="#000000" stroke-opacity="0.705882" stroke-width="1.5" stroke-linecap="round" stroke-linejoin="bevel" transform="matrix(6.18412,0,0,6.18412,-82.6065,-82.6065)"
font-family="Helvetica" font-size="12" font-weight="400" font-style="normal" 
>
<path vector-effect="none" fill-rule="evenodd" d="M40.1229,157.175 C42.4241,156.846 42.2945,155.472 44.5848,155.869 "/>
</g>

<g fill="none" stroke="#000000" stroke-opacity="1" stroke-width="1" stroke-linecap="square" stroke-linejoin="bevel" transform="matrix(6.18412,0,0,6.18412,-82.6065,-82.6065)"
font-family="Helvetica" font-size="12" font-weight="400" font-style="normal" 
>
</g>

<g fill="none" stroke="#000000" stroke-opacity="1" stroke-width="1" stroke-linecap="square" stroke-linejoin="bevel" transform="matrix(6.18412,0,0,6.18412,-82.6065,-82.6065)"
font-family="Helvetica" font-size="12" font-weight="400" font-style="normal" 
>
</g>

<g fill="none" stroke="#000000" stroke-opacity="0.705882" stroke-width="1.5" stroke-linecap="round" stroke-linejoin="bevel" transform="matrix(6.18412,0,0,6.18412,-82.6065,-82.6065)"
font-family="Helvetica" font-size="12" font-weight="400" font-style="normal" 
>
<path vector-effect="none" fill-rule="evenodd" d="M190.7,43.0325 C193.211,43.4585 194.003,44.36 194.007,46.9074 "/>
</g>

<g fill="none" stroke="#000000" stroke-opacity="1" stroke-width="1" stroke-linecap="square" stroke-linejoin="bevel" transform="matrix(6.18412,0,0,6.18412,-82.6065,-82.6065)"
font-family="Helvetica" font-size="12" font-weight="400" font-style="normal" 
>
</g>

<g fill="none" stroke="#000000" stroke-opacity="1" stroke-width="1" stroke-linecap="square" stroke-linejoin="bevel" transform="matrix(6.18412,0,0,6.18412,-82.6065,-82.6065)"
font-family="Helvetica" font-size="12" font-weight="400" font-style="normal" 
>
</g>

<g fill="none" stroke="#000000" stroke-opacity="0.705882" stroke-width="1.5" stroke-linecap="round" stroke-linejoin="bevel" transform="matrix(6.18412,0,0,6.18412,-82.6065,-82.6065)"
font-family="Helvetica" font-size="12" font-weight="400" font-style="normal" 
>
<path vector-effect="none" fill-rule="evenodd" d="M91.4939,88.2595 C90.5537,90.6555 90.211,90.9754 87.7817,91.8257 "/>
</g>

<g fill="none" stroke="#000000" stroke-opacity="1" stroke-width="1" stroke-linecap="square" stroke-linejoin="bevel" transform="matrix(6.18412,0,0,6.18412,-82.6065,-82.6065)"
font-family="Helvetica" font-size="12" font-weight="400" font-style="normal" 
>
</g>

<g fill="none" stroke="#000000" stroke-opacity="1" stroke-width="1" stroke-linecap="square" stroke-linejoin="bevel" transform="matrix(6.18412,0,0,6.18412,-82.6065,-82.6065)"
font-family="Helvetica" font-size="12" font-weight="400" font-style="normal" 
>
</g>

<g fill="none" stroke="#000000" stroke-opacity="0.705882" stroke-width="1.5" stroke-linecap="round" stroke-linejoin="bevel" transform="matrix(6.18412,0,0,6.18412,-82.6065,-82.6065)"
font-family="Helvetica" font-size="12" font-weight="400" font-style="normal" 
>
<path vector-effect="none" fill-rule="evenodd" d="M45.4828,157.117 C42.5885,156.487 42.9894,155.475 40.2675,154.307 "/>
</g>

<g fill="none" stroke="#000000" stroke-opacity="1" stroke-width="1" stroke-linecap="square" stroke-linejoin="bevel" transform="matrix(6.18412,0,0,6.18412,-82.6065,-82.6065)"
font-family="Helvetica" font-size="12" font-weight="400" font-style="normal" 
>
</g>

<g fill="none" stroke="#000000" stroke-opacity="1" stroke-width="1" stroke-linecap="square" stroke-linejoin="bevel" transform="matrix(6.18412,0,0,6.18412,-82.6065,-82.6065)"
font-family="Helvetica" font-size="12" font-weight="400" font-style="normal" 
>
</g>

<g fill="none" stroke="#000000" stroke-opacity="0.705882" stroke-width="1.5" stroke-linecap="round" stroke-linejoin="bevel" transform="matrix(6.18412,0,0,6.18412,-82.6065,-82.6065)"
font-family="Helvetica" font-size="12" font-weight="400" font-style="normal" 
>
<path vector-effect="none" fill-rule="evenodd" d="M45.4828,157.117 C43.1227,156.603 46.9723,154.872 49.265,154.112 "/>
</g>

<g fill="none" stroke="#000000" stroke-opacity="1" stroke-width="1" stroke-linecap="square" stroke-linejoin="bevel" transform="matrix(6.18412,0,0,6.18412,-82.6065,-82.6065)"
font-family="Helvetica" font-size="12" font-weight="400" font-style="normal" 
>
</g>

<g fill="none" stroke="#000000" stroke-opacity="1" stroke-width="1" stroke-linecap="square" stroke-linejoin="bevel" transform="matrix(6.18412,0,0,6.18412,-82.6065,-82.6065)"
font-family="Helvetica" font-size="12" font-weight="400" font-style="normal" 
>
</g>

<g fill="none" stroke="#000000" stroke-opacity="0.705882" stroke-width="1.5" stroke-linecap="round" stroke-linejoin="bevel" transform="matrix(6.18412,0,0,6.18412,-82.6065,-82.6065)"
font-family="Helvetica" font-size="12" font-weight="400" font-style="normal" 
>
<path vector-effect="none" fill-rule="evenodd" d="M45.4828,157.117 C43.5984,156.707 51.2162,157.019 49.3161,156.69 "/>
</g>

<g fill="none" stroke="#000000" stroke-opacity="1" stroke-width="1" stroke-linecap="square" stroke-linejoin="bevel" transform="matrix(6.18412,0,0,6.18412,-82.6065,-82.6065)"
font-family="Helvetica" font-size="12" font-weight="400" font-style="normal" 
>
</g>

<g fill="none" stroke="#000000" stroke-opacity="1" stroke-width="1" stroke-linecap="square" stroke-linejoin="bevel" transform="matrix(6.18412,0,0,6.18412,-82.6065,-82.6065)"
font-family="Helvetica" font-size="12" font-weight="400" font-style="normal" 
>
</g>

<g fill="none" stroke="#000000" stroke-opacity="0.705882" stroke-width="1.5" stroke-linecap="round" stroke-linejoin="bevel" transform="matrix(6.18412,0,0,6.18412,-82.6065,-82.6065)"
font-family="Helvetica" font-size="12" font-weight="400" font-style="normal" 
>
<path vector-effect="none" fill-rule="evenodd" d="M45.4828,157.117 C42.8542,156.545 48.6473,149.722 47.3117,152.057 "/>
</g>

<g fill="none" stroke="#000000" stroke-opacity="1" stroke-width="1" stroke-linecap="square" stroke-linejoin="bevel" transform="matrix(6.18412,0,0,6.18412,-82.6065,-82.6065)"
font-family="Helvetica" font-size="12" font-weight="400" font-style="normal" 
>
</g>

<g fill="none" stroke="#000000" stroke-opacity="1" stroke-width="1" stroke-linecap="square" stroke-linejoin="bevel" transform="matrix(6.18412,0,0,6.18412,-82.6065,-82.6065)"
font-family="Helvetica" font-size="12" font-weight="400" font-style="normal" 
>
</g>

<g fill="none" stroke="#000000" stroke-opacity="0.705882" stroke-width="1.5" stroke-linecap="round" stroke-linejoin="bevel" transform="matrix(6.18412,0,0,6.18412,-82.6065,-82.6065)"
font-family="Helvetica" font-size="12" font-weight="400" font-style="normal" 
>
<path vector-effect="none" fill-rule="evenodd" d="M45.4828,157.117 C42.864,156.547 42.7761,156.796 40.1229,157.175 "/>
</g>

<g fill="none" stroke="#000000" stroke-opacity="1" stroke-width="1" stroke-linecap="square" stroke-linejoin="bevel" transform="matrix(6.18412,0,0,6.18412,-82.6065,-82.6065)"
font-family="Helvetica" font-size="12" font-weight="400" font-style="normal" 
>
</g>

<g fill="none" stroke="#000000" stroke-opacity="1" stroke-width="1" stroke-linecap="square" stroke-linejoin="bevel" transform="matrix(6.18412,0,0,6.18412,-82.6065,-82.6065)"
font-family="Helvetica" font-size="12" font-weight="400" font-style="normal" 
>
</g>

<g fill="none" stroke="#000000" stroke-opacity="0.705882" stroke-width="1.5" stroke-linecap="round" stroke-linejoin="bevel" transform="matrix(6.18412,0,0,6.18412,-82.6065,-82.6065)"
font-family="Helvetica" font-size="12" font-weight="400" font-style="normal" 
>
<path vector-effect="none" fill-rule="evenodd" d="M45.4828,157.117 C43.2146,156.623 44.4303,163.957 44.418,161.636 "/>
</g>

<g fill="none" stroke="#000000" stroke-opacity="1" stroke-width="1" stroke-linecap="square" stroke-linejoin="bevel" transform="matrix(6.18412,0,0,6.18412,-82.6065,-82.6065)"
font-family="Helvetica" font-size="12" font-weight="400" font-style="normal" 
>
</g>

<g fill="none" stroke="#000000" stroke-opacity="1" stroke-width="1" stroke-linecap="square" stroke-linejoin="bevel" transform="matrix(6.18412,0,0,6.18412,-82.6065,-82.6065)"
font-family="Helvetica" font-size="12" font-weight="400" font-style="normal" 
>
</g>

<g fill="none" stroke="#000000" stroke-opacity="0.705882" stroke-width="1.5" stroke-linecap="round" stroke-linejoin="bevel" transform="matrix(6.18412,0,0,6.18412,-82.6065,-82.6065)"
font-family="Helvetica" font-size="12" font-weight="400" font-style="normal" 
>
<path vector-effect="none" fill-rule="evenodd" d="M44.5848,155.869 C42.3229,155.477 42.377,155.212 40.2675,154.307 "/>
</g>

<g fill="none" stroke="#000000" stroke-opacity="1" stroke-width="1" stroke-linecap="square" stroke-linejoin="bevel" transform="matrix(6.18412,0,0,6.18412,-82.6065,-82.6065)"
font-family="Helvetica" font-size="12" font-weight="400" font-style="normal" 
>
</g>

<g fill="none" stroke="#000000" stroke-opacity="1" stroke-width="1" stroke-linecap="square" stroke-linejoin="bevel" transform="matrix(6.18412,0,0,6.18412,-82.6065,-82.6065)"
font-family="Helvetica" font-size="12" font-weight="400" font-style="normal" 
>
</g>

<g fill="none" stroke="#000000" stroke-opacity="0.705882" stroke-width="1.5" stroke-linecap="round" stroke-linejoin="bevel" transform="matrix(6.18412,0,0,6.18412,-82.6065,-82.6065)"
font-family="Helvetica" font-size="12" font-weight="400" font-style="normal" 
>
<path vector-effect="none" fill-rule="evenodd" d="M44.5848,155.869 C42.122,155.442 46.8923,154.898 49.265,154.112 "/>
</g>

<g fill="none" stroke="#000000" stroke-opacity="1" stroke-width="1" stroke-linecap="square" stroke-linejoin="bevel" transform="matrix(6.18412,0,0,6.18412,-82.6065,-82.6065)"
font-family="Helvetica" font-size="12" font-weight="400" font-style="normal" 
>
</g>

<g fill="none" stroke="#000000" stroke-opacity="1" stroke-width="1" stroke-linecap="square" stroke-linejoin="bevel" transform="matrix(6.18412,0,0,6.18412,-82.6065,-82.6065)"
font-family="Helvetica" font-size="12" font-weight="400" font-style="normal" 
>
</g>

<g fill="none" stroke="#000000" stroke-opacity="0.705882" stroke-width="1.5" stroke-linecap="round" stroke-linejoin="bevel" transform="matrix(6.18412,0,0,6.18412,-82.6065,-82.6065)"
font-family="Helvetica" font-size="12" font-weight="400" font-style="normal" 
>
<path vector-effect="none" fill-rule="evenodd" d="M44.5848,155.869 C39.6584,155.015 40.5129,150.088 47.805,151.353 C55.097,152.618 54.2425,157.544 49.3161,156.69 "/>
</g>

<g fill="none" stroke="#000000" stroke-opacity="1" stroke-width="1" stroke-linecap="square" stroke-linejoin="bevel" transform="matrix(6.18412,0,0,6.18412,-82.6065,-82.6065)"
font-family="Helvetica" font-size="12" font-weight="400" font-style="normal" 
>
</g>

<g fill="none" stroke="#000000" stroke-opacity="1" stroke-width="1" stroke-linecap="square" stroke-linejoin="bevel" transform="matrix(6.18412,0,0,6.18412,-82.6065,-82.6065)"
font-family="Helvetica" font-size="12" font-weight="400" font-style="normal" 
>
</g>

<g fill="none" stroke="#000000" stroke-opacity="0.705882" stroke-width="1.5" stroke-linecap="round" stroke-linejoin="bevel" transform="matrix(6.18412,0,0,6.18412,-82.6065,-82.6065)"
font-family="Helvetica" font-size="12" font-weight="400" font-style="normal" 
>
<path vector-effect="none" fill-rule="evenodd" d="M44.5848,155.869 C42.2758,155.469 48.4752,150.023 47.3117,152.057 "/>
</g>

<g fill="none" stroke="#000000" stroke-opacity="1" stroke-width="1" stroke-linecap="square" stroke-linejoin="bevel" transform="matrix(6.18412,0,0,6.18412,-82.6065,-82.6065)"
font-family="Helvetica" font-size="12" font-weight="400" font-style="normal" 
>
</g>

<g fill="none" stroke="#000000" stroke-opacity="1" stroke-width="1" stroke-linecap="square" stroke-linejoin="bevel" transform="matrix(6.18412,0,0,6.18412,-82.6065,-82.6065)"
font-family="Helvetica" font-size="12" font-weight="400" font-style="normal" 
>
</g>

<g fill="none" stroke="#000000" stroke-opacity="0.705882" stroke-width="1.5" stroke-linecap="round" stroke-linejoin="bevel" transform="matrix(6.18412,0,0,6.18412,-82.6065,-82.6065)"
font-family="Helvetica" font-size="12" font-weight="400" font-style="normal" 
>
<path vector-effect="none" fill-rule="evenodd" d="M44.5848,155.869 C41.7427,155.376 44.4333,164.52 44.418,161.636 "/>
</g>

<g fill="none" stroke="#000000" stroke-opacity="1" stroke-width="1" stroke-linecap="square" stroke-linejoin="bevel" transform="matrix(6.18412,0,0,6.18412,-82.6065,-82.6065)"
font-family="Helvetica" font-size="12" font-weight="400" font-style="normal" 
>
</g>

<g fill="none" stroke="#000000" stroke-opacity="1" stroke-width="1" stroke-linecap="square" stroke-linejoin="bevel" transform="matrix(6.18412,0,0,6.18412,-82.6065,-82.6065)"
font-family="Helvetica" font-size="12" font-weight="400" font-style="normal" 
>
</g>

<g fill="none" stroke="#000000" stroke-opacity="0.705882" stroke-width="1.5" stroke-linecap="round" stroke-linejoin="bevel" transform="matrix(6.18412,0,0,6.18412,-82.6065,-82.6065)"
font-family="Helvetica" font-size="12" font-weight="400" font-style="normal" 
>
<path vector-effect="none" fill-rule="evenodd" d="M44.555,156.877 C43.3141,159.046 42.5642,155.293 40.2675,154.307 "/>
</g>

<g fill="none" stroke="#000000" stroke-opacity="1" stroke-width="1" stroke-linecap="square" stroke-linejoin="bevel" transform="matrix(6.18412,0,0,6.18412,-82.6065,-82.6065)"
font-family="Helvetica" font-size="12" font-weight="400" font-style="normal" 
>
</g>

<g fill="none" stroke="#000000" stroke-opacity="1" stroke-width="1" stroke-linecap="square" stroke-linejoin="bevel" transform="matrix(6.18412,0,0,6.18412,-82.6065,-82.6065)"
font-family="Helvetica" font-size="12" font-weight="400" font-style="normal" 
>
</g>

<g fill="none" stroke="#000000" stroke-opacity="0.705882" stroke-width="1.5" stroke-linecap="round" stroke-linejoin="bevel" transform="matrix(6.18412,0,0,6.18412,-82.6065,-82.6065)"
font-family="Helvetica" font-size="12" font-weight="400" font-style="normal" 
>
<path vector-effect="none" fill-rule="evenodd" d="M44.555,156.877 C43.1992,159.247 46.6728,154.971 49.265,154.112 "/>
</g>

<g fill="none" stroke="#000000" stroke-opacity="1" stroke-width="1" stroke-linecap="square" stroke-linejoin="bevel" transform="matrix(6.18412,0,0,6.18412,-82.6065,-82.6065)"
font-family="Helvetica" font-size="12" font-weight="400" font-style="normal" 
>
</g>

<g fill="none" stroke="#000000" stroke-opacity="1" stroke-width="1" stroke-linecap="square" stroke-linejoin="bevel" transform="matrix(6.18412,0,0,6.18412,-82.6065,-82.6065)"
font-family="Helvetica" font-size="12" font-weight="400" font-style="normal" 
>
</g>

<g fill="none" stroke="#000000" stroke-opacity="0.705882" stroke-width="1.5" stroke-linecap="round" stroke-linejoin="bevel" transform="matrix(6.18412,0,0,6.18412,-82.6065,-82.6065)"
font-family="Helvetica" font-size="12" font-weight="400" font-style="normal" 
>
<path vector-effect="none" fill-rule="evenodd" d="M44.555,156.877 C43.3722,158.945 51.6634,157.097 49.3161,156.69 "/>
</g>

<g fill="none" stroke="#000000" stroke-opacity="1" stroke-width="1" stroke-linecap="square" stroke-linejoin="bevel" transform="matrix(6.18412,0,0,6.18412,-82.6065,-82.6065)"
font-family="Helvetica" font-size="12" font-weight="400" font-style="normal" 
>
</g>

<g fill="none" stroke="#000000" stroke-opacity="1" stroke-width="1" stroke-linecap="square" stroke-linejoin="bevel" transform="matrix(6.18412,0,0,6.18412,-82.6065,-82.6065)"
font-family="Helvetica" font-size="12" font-weight="400" font-style="normal" 
>
</g>

<g fill="none" stroke="#000000" stroke-opacity="0.705882" stroke-width="1.5" stroke-linecap="round" stroke-linejoin="bevel" transform="matrix(6.18412,0,0,6.18412,-82.6065,-82.6065)"
font-family="Helvetica" font-size="12" font-weight="400" font-style="normal" 
>
<path vector-effect="none" fill-rule="evenodd" d="M44.555,156.877 C42.0726,161.217 37.7324,158.735 41.5931,151.984 C45.4538,145.234 49.7941,147.717 47.3117,152.057 "/>
</g>

<g fill="none" stroke="#000000" stroke-opacity="1" stroke-width="1" stroke-linecap="square" stroke-linejoin="bevel" transform="matrix(6.18412,0,0,6.18412,-82.6065,-82.6065)"
font-family="Helvetica" font-size="12" font-weight="400" font-style="normal" 
>
</g>

<g fill="none" stroke="#000000" stroke-opacity="1" stroke-width="1" stroke-linecap="square" stroke-linejoin="bevel" transform="matrix(6.18412,0,0,6.18412,-82.6065,-82.6065)"
font-family="Helvetica" font-size="12" font-weight="400" font-style="normal" 
>
</g>

<g fill="none" stroke="#000000" stroke-opacity="0.705882" stroke-width="1.5" stroke-linecap="round" stroke-linejoin="bevel" transform="matrix(6.18412,0,0,6.18412,-82.6065,-82.6065)"
font-family="Helvetica" font-size="12" font-weight="400" font-style="normal" 
>
<path vector-effect="none" fill-rule="evenodd" d="M44.555,156.877 C43.3731,158.943 44.4306,164.016 44.418,161.636 "/>
</g>

<g fill="none" stroke="#000000" stroke-opacity="1" stroke-width="1" stroke-linecap="square" stroke-linejoin="bevel" transform="matrix(6.18412,0,0,6.18412,-82.6065,-82.6065)"
font-family="Helvetica" font-size="12" font-weight="400" font-style="normal" 
>
</g>

<g fill="none" stroke="#000000" stroke-opacity="1" stroke-width="1" stroke-linecap="square" stroke-linejoin="bevel" transform="matrix(6.18412,0,0,6.18412,-82.6065,-82.6065)"
font-family="Helvetica" font-size="12" font-weight="400" font-style="normal" 
>
</g>

<g fill="none" stroke="#000000" stroke-opacity="0.705882" stroke-width="1.5" stroke-linecap="round" stroke-linejoin="bevel" transform="matrix(6.18412,0,0,6.18412,-82.6065,-82.6065)"
font-family="Helvetica" font-size="12" font-weight="400" font-style="normal" 
>
<path vector-effect="none" fill-rule="evenodd" d="M44.3751,153.551 C44.364,151.463 42.1863,155.131 40.2675,154.307 "/>
</g>

<g fill="none" stroke="#000000" stroke-opacity="1" stroke-width="1" stroke-linecap="square" stroke-linejoin="bevel" transform="matrix(6.18412,0,0,6.18412,-82.6065,-82.6065)"
font-family="Helvetica" font-size="12" font-weight="400" font-style="normal" 
>
</g>

<g fill="none" stroke="#000000" stroke-opacity="1" stroke-width="1" stroke-linecap="square" stroke-linejoin="bevel" transform="matrix(6.18412,0,0,6.18412,-82.6065,-82.6065)"
font-family="Helvetica" font-size="12" font-weight="400" font-style="normal" 
>
</g>

<g fill="none" stroke="#000000" stroke-opacity="0.705882" stroke-width="1.5" stroke-linecap="round" stroke-linejoin="bevel" transform="matrix(6.18412,0,0,6.18412,-82.6065,-82.6065)"
font-family="Helvetica" font-size="12" font-weight="400" font-style="normal" 
>
<path vector-effect="none" fill-rule="evenodd" d="M44.3751,153.551 C44.3621,151.09 46.9289,154.886 49.265,154.112 "/>
</g>

<g fill="none" stroke="#000000" stroke-opacity="1" stroke-width="1" stroke-linecap="square" stroke-linejoin="bevel" transform="matrix(6.18412,0,0,6.18412,-82.6065,-82.6065)"
font-family="Helvetica" font-size="12" font-weight="400" font-style="normal" 
>
</g>

<g fill="none" stroke="#000000" stroke-opacity="1" stroke-width="1" stroke-linecap="square" stroke-linejoin="bevel" transform="matrix(6.18412,0,0,6.18412,-82.6065,-82.6065)"
font-family="Helvetica" font-size="12" font-weight="400" font-style="normal" 
>
</g>

<g fill="none" stroke="#000000" stroke-opacity="0.705882" stroke-width="1.5" stroke-linecap="round" stroke-linejoin="bevel" transform="matrix(6.18412,0,0,6.18412,-82.6065,-82.6065)"
font-family="Helvetica" font-size="12" font-weight="400" font-style="normal" 
>
<path vector-effect="none" fill-rule="evenodd" d="M44.3751,153.551 C44.3596,150.625 52.1998,157.19 49.3161,156.69 "/>
</g>

<g fill="none" stroke="#000000" stroke-opacity="1" stroke-width="1" stroke-linecap="square" stroke-linejoin="bevel" transform="matrix(6.18412,0,0,6.18412,-82.6065,-82.6065)"
font-family="Helvetica" font-size="12" font-weight="400" font-style="normal" 
>
</g>

<g fill="none" stroke="#000000" stroke-opacity="1" stroke-width="1" stroke-linecap="square" stroke-linejoin="bevel" transform="matrix(6.18412,0,0,6.18412,-82.6065,-82.6065)"
font-family="Helvetica" font-size="12" font-weight="400" font-style="normal" 
>
</g>

<g fill="none" stroke="#000000" stroke-opacity="0.705882" stroke-width="1.5" stroke-linecap="round" stroke-linejoin="bevel" transform="matrix(6.18412,0,0,6.18412,-82.6065,-82.6065)"
font-family="Helvetica" font-size="12" font-weight="400" font-style="normal" 
>
<path vector-effect="none" fill-rule="evenodd" d="M44.3751,153.551 C44.3664,151.904 48.1296,150.627 47.3117,152.057 "/>
</g>

<g fill="none" stroke="#000000" stroke-opacity="1" stroke-width="1" stroke-linecap="square" stroke-linejoin="bevel" transform="matrix(6.18412,0,0,6.18412,-82.6065,-82.6065)"
font-family="Helvetica" font-size="12" font-weight="400" font-style="normal" 
>
</g>

<g fill="none" stroke="#000000" stroke-opacity="1" stroke-width="1" stroke-linecap="square" stroke-linejoin="bevel" transform="matrix(6.18412,0,0,6.18412,-82.6065,-82.6065)"
font-family="Helvetica" font-size="12" font-weight="400" font-style="normal" 
>
</g>

<g fill="none" stroke="#000000" stroke-opacity="0.705882" stroke-width="1.5" stroke-linecap="round" stroke-linejoin="bevel" transform="matrix(6.18412,0,0,6.18412,-82.6065,-82.6065)"
font-family="Helvetica" font-size="12" font-weight="400" font-style="normal" 
>
<path vector-effect="none" fill-rule="evenodd" d="M44.3751,153.551 C44.3603,150.758 42.8883,156.78 40.1229,157.175 "/>
</g>

<g fill="none" stroke="#000000" stroke-opacity="1" stroke-width="1" stroke-linecap="square" stroke-linejoin="bevel" transform="matrix(6.18412,0,0,6.18412,-82.6065,-82.6065)"
font-family="Helvetica" font-size="12" font-weight="400" font-style="normal" 
>
</g>

<g fill="none" stroke="#000000" stroke-opacity="1" stroke-width="1" stroke-linecap="square" stroke-linejoin="bevel" transform="matrix(6.18412,0,0,6.18412,-82.6065,-82.6065)"
font-family="Helvetica" font-size="12" font-weight="400" font-style="normal" 
>
</g>

<g fill="none" stroke="#000000" stroke-opacity="0.705882" stroke-width="1.5" stroke-linecap="round" stroke-linejoin="bevel" transform="matrix(6.18412,0,0,6.18412,-82.6065,-82.6065)"
font-family="Helvetica" font-size="12" font-weight="400" font-style="normal" 
>
<path vector-effect="none" fill-rule="evenodd" d="M44.3751,153.551 C44.3486,148.551 49.3485,148.525 49.3965,157.567 C49.4445,166.609 44.4445,166.636 44.418,161.636 "/>
</g>

<g fill="none" stroke="#000000" stroke-opacity="1" stroke-width="1" stroke-linecap="square" stroke-linejoin="bevel" transform="matrix(6.18412,0,0,6.18412,-82.6065,-82.6065)"
font-family="Helvetica" font-size="12" font-weight="400" font-style="normal" 
>
</g>

<g fill="none" stroke="#000000" stroke-opacity="1" stroke-width="1" stroke-linecap="square" stroke-linejoin="bevel" transform="matrix(6.18412,0,0,6.18412,-82.6065,-82.6065)"
font-family="Helvetica" font-size="12" font-weight="400" font-style="normal" 
>
</g>

<g fill="#8c62ca" fill-opacity="1" stroke="none" transform="matrix(6.18412,0,0,6.18412,-82.6065,-82.6065)"
font-family="Helvetica" font-size="12" font-weight="400" font-style="normal" 
>
<path vector-effect="none" fill-rule="nonzero" d="M49.7848,153.471 L47.0282,158.291 L42.0818,155.462 L44.8385,150.642 L49.7848,153.471"/>
</g>

<g fill="none" stroke="#000000" stroke-opacity="1" stroke-width="0.3" stroke-linecap="square" stroke-linejoin="round" transform="matrix(6.18412,0,0,6.18412,-82.6065,-82.6065)"
font-family="Helvetica" font-size="12" font-weight="400" font-style="normal" 
>
<path vector-effect="none" fill-rule="evenodd" d="M49.7848,153.471 L47.0282,158.291 L42.0818,155.462 L44.8385,150.642 L49.7848,153.471"/>
</g>

<g fill="none" stroke="#000000" stroke-opacity="1" stroke-width="1" stroke-linecap="square" stroke-linejoin="bevel" transform="matrix(6.18412,0,0,6.18412,-82.6065,-82.6065)"
font-family="Helvetica" font-size="12" font-weight="400" font-style="normal" 
>
</g>

<g fill="none" stroke="#000000" stroke-opacity="1" stroke-width="1" stroke-linecap="square" stroke-linejoin="bevel" transform="matrix(6.18412,0,0,6.18412,-82.6065,-82.6065)"
font-family="Helvetica" font-size="12" font-weight="400" font-style="normal" 
>
</g>

<g fill="#ca628a" fill-opacity="1" stroke="none" transform="matrix(6.18412,0,0,6.18412,-82.6065,-82.6065)"
font-family="Helvetica" font-size="12" font-weight="400" font-style="normal" 
>
<path vector-effect="none" fill-rule="nonzero" d="M48.7064,160.205 L43.9752,159.384 L45.1945,152.354 L49.9258,153.175 L48.7064,160.205"/>
</g>

<g fill="none" stroke="#000000" stroke-opacity="1" stroke-width="0.3" stroke-linecap="square" stroke-linejoin="round" transform="matrix(6.18412,0,0,6.18412,-82.6065,-82.6065)"
font-family="Helvetica" font-size="12" font-weight="400" font-style="normal" 
>
<path vector-effect="none" fill-rule="evenodd" d="M48.7064,160.205 L43.9752,159.384 L45.1945,152.354 L49.9258,153.175 L48.7064,160.205"/>
</g>

<g fill="none" stroke="#000000" stroke-opacity="1" stroke-width="1" stroke-linecap="square" stroke-linejoin="bevel" transform="matrix(6.18412,0,0,6.18412,-82.6065,-82.6065)"
font-family="Helvetica" font-size="12" font-weight="400" font-style="normal" 
>
</g>

<g fill="none" stroke="#000000" stroke-opacity="1" stroke-width="1" stroke-linecap="square" stroke-linejoin="bevel" transform="matrix(6.18412,0,0,6.18412,-82.6065,-82.6065)"
font-family="Helvetica" font-size="12" font-weight="400" font-style="normal" 
>
</g>

<g fill="#6273ca" fill-opacity="1" stroke="none" transform="matrix(6.18412,0,0,6.18412,-82.6065,-82.6065)"
font-family="Helvetica" font-size="12" font-weight="400" font-style="normal" 
>
<path vector-effect="none" fill-rule="nonzero" d="M39.53,156.024 L25.4913,149.996 L26.2288,148.278 L28.0867,148.485 L26.8579,159.541 L25,159.335 L24.7357,157.484 L39.8586,155.325 L40.3872,159.026 L25.2643,161.185 C25.1781,161.198 25.0898,161.204 25,161.204 C23.9676,161.204 23.1307,160.367 23.1307,159.335 C23.1307,159.265 23.1345,159.196 23.142,159.128 L23.1421,159.128 L24.371,148.072 C24.474,147.136 25.2665,146.409 26.2288,146.409 C27.2612,146.409 28.0982,147.246 28.0982,148.278 C28.0982,149.194 27.4403,149.955 26.5722,150.116 L26.9664,146.561 L41.0051,152.589 L39.53,156.024"/>
</g>

<g fill="none" stroke="#000000" stroke-opacity="1" stroke-width="0.3" stroke-linecap="square" stroke-linejoin="round" transform="matrix(6.18412,0,0,6.18412,-82.6065,-82.6065)"
font-family="Helvetica" font-size="12" font-weight="400" font-style="normal" 
>
<path vector-effect="none" fill-rule="evenodd" d="M38.3892,155.534 L27.8082,150.991 L27.1244,157.143 L38.3892,155.534 M39.8286,155.329 L39.8586,155.325 L40.3872,159.026 L25.2643,161.185 L25.1335,161.2 L25,161.204 L23.6782,160.657 L23.1307,159.335 L23.1335,159.231 L23.142,159.128 L23.1421,159.128 L24.371,148.072 L24.9777,146.89 L26.2288,146.409 L26.9501,146.708 L26.9664,146.561 L41.0051,152.589 L39.8286,155.329"/>
</g>

<g fill="none" stroke="#000000" stroke-opacity="1" stroke-width="1" stroke-linecap="square" stroke-linejoin="bevel" transform="matrix(6.18412,0,0,6.18412,-82.6065,-82.6065)"
font-family="Helvetica" font-size="12" font-weight="400" font-style="normal" 
>
</g>

<g fill="none" stroke="#000000" stroke-opacity="1" stroke-width="1" stroke-linecap="square" stroke-linejoin="bevel" transform="matrix(6.18412,0,0,6.18412,-82.6065,-82.6065)"
font-family="Helvetica" font-size="12" font-weight="400" font-style="normal" 
>
</g>

<g fill="#ca62c7" fill-opacity="1" stroke="none" transform="matrix(6.18412,0,0,6.18412,-82.6065,-82.6065)"
font-family="Helvetica" font-size="12" font-weight="400" font-style="normal" 
>
<path vector-effect="none" fill-rule="nonzero" d="M196.816,46.903 L196.848,67.2812 C196.848,67.2827 196.848,67.2841 196.848,67.2856 C196.848,67.9804 196.596,68.6163 196.178,69.1066 L196.178,69.1066 L183.239,84.2992 C182.758,84.8638 182.057,85.2354 181.269,85.2818 L181.269,85.2818 L161.557,86.4606 C161.502,86.4639 161.446,86.4656 161.39,86.4656 C160.535,86.4656 159.77,86.0839 159.254,85.4816 L159.254,85.4816 L146.489,70.543 C146.069,70.0523 145.816,69.415 145.816,68.7185 C145.816,68.4908 145.843,68.2695 145.894,68.0584 L145.894,68.059 L150.529,48.8722 C150.712,48.1111 151.204,47.4718 151.864,47.0933 L151.865,47.0935 L169.196,37.1832 C169.607,36.9474 170.083,36.8128 170.591,36.8128 C172.142,36.8128 173.399,38.0702 173.399,39.6214 C173.399,41.1725 172.142,42.43 170.591,42.43 C169.039,42.43 167.782,41.1725 167.782,39.6214 C167.782,39.2688 167.847,38.9315 167.965,38.6211 L171.06,36.8523 L191.169,40.2634 L190.23,45.8015 L170.121,42.3904 L170.591,39.6214 L171.985,42.0595 L154.653,51.9698 L153.259,49.5317 L155.989,50.1911 L151.355,69.3779 L148.624,68.7185 L150.76,66.8939 L163.525,81.8324 L161.39,83.657 L161.222,80.8534 L180.933,79.6746 L181.101,82.4782 L178.963,80.6572 L191.901,65.4646 L194.039,67.2856 L191.231,67.29 L191.199,46.9118 L196.816,46.903"/>
</g>

<g fill="none" stroke="#000000" stroke-opacity="1" stroke-width="0.3" stroke-linecap="square" stroke-linejoin="round" transform="matrix(6.18412,0,0,6.18412,-82.6065,-82.6065)"
font-family="Helvetica" font-size="12" font-weight="400" font-style="normal" 
>
<path vector-effect="none" fill-rule="evenodd" d="M196.816,46.903 L196.848,67.2812 L196.848,67.2834 L196.848,67.2856 L196.67,68.2728 L196.178,69.1066 L196.178,69.1066 L183.239,84.2992 L182.369,84.9849 L181.269,85.2818 L181.269,85.2818 L161.557,86.4606 L161.474,86.4643 L161.39,86.4656 L160.195,86.1994 L159.254,85.4816 L159.254,85.4816 L146.489,70.543 L145.995,69.7079 L145.816,68.7185 L145.836,68.3822 L145.894,68.0584 L145.894,68.059 L150.529,48.8722 L151.017,47.8393 L151.864,47.0933 L151.865,47.0935 L169.196,37.1832 L169.857,36.9095 L170.591,36.8128 L170.903,36.9422 L171.06,36.8523 L191.169,40.2634 L190.23,45.8015 L171.112,42.5586 L155.705,51.3686 L151.691,67.984 L162.617,80.77 L179.739,79.746 L191.229,66.2536 L191.199,46.9118 L196.816,46.903"/>
</g>

<g fill="none" stroke="#000000" stroke-opacity="1" stroke-width="1" stroke-linecap="square" stroke-linejoin="bevel" transform="matrix(6.18412,0,0,6.18412,-82.6065,-82.6065)"
font-family="Helvetica" font-size="12" font-weight="400" font-style="normal" 
>
</g>

<g fill="none" stroke="#000000" stroke-opacity="1" stroke-width="1" stroke-linecap="square" stroke-linejoin="bevel" transform="matrix(6.18412,0,0,6.18412,-82.6065,-82.6065)"
font-family="Helvetica" font-size="12" font-weight="400" font-style="normal" 
>
</g>

<g fill="#62ca8f" fill-opacity="1" stroke="none" transform="matrix(6.18412,0,0,6.18412,-82.6065,-82.6065)"
font-family="Helvetica" font-size="12" font-weight="400" font-style="normal" 
>
<path vector-effect="none" fill-rule="nonzero" d="M88.5682,94.0728 L70.1329,100.525 C69.8871,100.612 69.6223,100.659 69.3464,100.659 C69.2676,100.659 69.1896,100.655 69.1134,100.648 L69.1136,100.648 L49.9671,98.7661 C49.5828,98.7288 49.226,98.6005 48.9179,98.4032 L48.9181,98.403 L32.8005,88.1046 C32.4622,87.8883 32.1825,87.5888 31.99,87.2352 L31.9903,87.2347 L22.9079,70.5122 C22.7237,70.1748 22.6193,69.7876 22.6193,69.3759 C22.6193,69.3565 22.6195,69.3371 22.62,69.3181 L22.62,69.3181 L23.0809,50.3519 C23.0912,49.9203 23.2163,49.5174 23.4267,49.1723 L23.4269,49.1726 L33.2754,32.9811 C33.4892,32.6297 33.7916,32.3384 34.1512,32.1378 L34.1517,32.138 L50.7155,22.9197 C51.058,22.7282 51.4529,22.6193 51.8733,22.6193 C53.1881,22.6193 54.254,23.6852 54.254,25 C54.254,26.3148 53.1881,27.3807 51.8733,27.3807 C50.5584,27.3807 49.4925,26.3148 49.4925,25 C49.4925,24.5448 49.6203,24.1195 49.8418,23.758 L51.8885,22.6193 L70.8694,22.7407 C71.2945,22.7433 71.6932,22.8574 72.0375,23.0551 L72.0372,23.0554 L88.5539,32.514 C88.9029,32.7139 89.196,32.9997 89.4049,33.3423 L89.4047,33.3426 L99.3404,49.6761 C99.5339,49.9928 99.6551,50.3584 99.6816,50.7494 L99.6815,50.7501 L101,69.927 C101.003,69.9808 101.005,70.0353 101.005,70.0902 C101.005,70.3975 100.947,70.6912 100.841,70.9605 L100.841,70.9599 L93.7101,89.1293 L89.2778,87.3898 L96.4082,69.2205 L98.6244,70.0902 L96.2493,70.2534 L94.9313,51.0766 L97.3064,50.9134 L95.2724,52.1506 L85.3368,35.8172 L87.3707,34.5799 L86.1876,36.6459 L69.671,27.1873 L70.8541,25.1213 L70.8389,27.502 L51.858,27.3807 L51.8733,25 L53.031,27.0803 L36.4671,36.2986 L35.3094,34.2183 L37.3434,35.4555 L27.495,51.647 L25.4609,50.4098 L27.841,50.4676 L27.38,69.4338 L25,69.3759 L27.0921,68.2397 L36.1744,84.9622 L34.0823,86.0984 L35.3642,84.0922 L51.4818,94.3906 L50.1999,96.3968 L50.4328,94.0275 L69.5793,95.909 L69.3464,98.2784 L68.5599,96.0313 L86.9952,89.5787 L88.5682,94.0728"/>
</g>

<g fill="none" stroke="#000000" stroke-opacity="1" stroke-width="0.3" stroke-linecap="square" stroke-linejoin="round" transform="matrix(6.18412,0,0,6.18412,-82.6065,-82.6065)"
font-family="Helvetica" font-size="12" font-weight="400" font-style="normal" 
>
<path vector-effect="none" fill-rule="evenodd" d="M88.5682,94.0728 L70.1329,100.525 L69.7509,100.625 L69.3464,100.659 L69.2289,100.656 L69.1134,100.648 L69.1136,100.648 L49.9671,98.7661 L49.4139,98.6447 L48.9179,98.4032 L48.9181,98.403 L32.8005,88.1046 L32.3406,87.7214 L31.99,87.2352 L31.9903,87.2347 L22.9079,70.5122 L22.6945,69.9719 L22.6193,69.3759 L22.6194,69.3469 L22.62,69.3181 L22.62,69.3181 L23.0809,50.3519 L23.1788,49.7297 L23.4267,49.1723 L23.4269,49.1726 L33.2754,32.9811 L33.6586,32.5029 L34.1512,32.1378 L34.1517,32.138 L50.7155,22.9197 L51.2652,22.6977 L51.8733,22.6193 L51.882,22.6229 L51.8885,22.6193 L70.8694,22.7407 L71.4837,22.8247 L72.0375,23.0551 L72.0372,23.0554 L88.5539,32.514 L89.0319,32.8746 L89.4049,33.3423 L89.4047,33.3426 L99.3404,49.6761 L99.5736,50.1849 L99.6816,50.7494 L99.6815,50.7501 L101,69.927 L101.004,70.0082 L101.005,70.0902 L100.963,70.5396 L100.841,70.9605 L100.841,70.9599 L93.7101,89.1293 L89.2778,87.3898 L96.2126,69.7191 L94.971,51.6552 L85.6555,36.3411 L70.2136,27.498 L52.484,27.3847 L37.0166,35.9928 L27.8255,51.1035 L27.3955,68.7983 L35.8815,84.4227 L51.0008,94.0833 L69.0561,95.8576 L86.9952,89.5787 L88.5682,94.0728"/>
</g>

<g fill="none" stroke="#000000" stroke-opacity="1" stroke-width="1" stroke-linecap="square" stroke-linejoin="bevel" transform="matrix(6.18412,0,0,6.18412,-82.6065,-82.6065)"
font-family="Helvetica" font-size="12" font-weight="400" font-style="normal" 
>
</g>

<g fill="none" stroke="#000000" stroke-opacity="1" stroke-width="1" stroke-linecap="square" stroke-linejoin="bevel" transform="matrix(6.18412,0,0,6.18412,-82.6065,-82.6065)"
font-family="Helvetica" font-size="12" font-weight="400" font-style="normal" 
>
</g>

<g fill="#ca7f62" fill-opacity="1" stroke="none" transform="matrix(6.18412,0,0,6.18412,-82.6065,-82.6065)"
font-family="Helvetica" font-size="12" font-weight="400" font-style="normal" 
>
<path vector-effect="none" fill-rule="nonzero" d="M48.5744,152.027 L66.0347,146.242 C66.2515,146.17 66.4839,146.131 66.7254,146.131 C67.9382,146.131 68.9214,147.114 68.9214,148.327 C68.9214,149.54 67.9382,150.523 66.7254,150.523 C66.1224,150.523 65.5762,150.28 65.1794,149.887 L68.8968,148.655 L66.9353,161.642 C66.7767,162.7 65.8649,163.51 64.7638,163.51 C64.6032,163.51 64.4465,163.493 64.2963,163.46 L64.2968,163.46 L45.0157,159.263 L45.9499,154.971 L65.2309,159.168 L64.7638,161.314 L62.5924,160.986 L64.5539,147.999 L66.7254,148.327 L67.416,150.411 L49.9557,156.197 L48.5744,152.027"/>
</g>

<g fill="none" stroke="#000000" stroke-opacity="1" stroke-width="0.3" stroke-linecap="square" stroke-linejoin="round" transform="matrix(6.18412,0,0,6.18412,-82.6065,-82.6065)"
font-family="Helvetica" font-size="12" font-weight="400" font-style="normal" 
>
<path vector-effect="none" fill-rule="evenodd" d="M48.5744,152.027 L66.0347,146.242 L66.3708,146.159 L66.7254,146.131 L68.2782,146.774 L68.9214,148.327 L68.7679,148.698 L68.8968,148.655 L66.9353,161.642 L66.203,162.972 L64.7638,163.51 L64.5262,163.497 L64.2963,163.46 L64.2968,163.46 L45.0157,159.263 L45.9499,154.971 L49.8295,155.816 L48.5744,152.027 M50.5996,155.983 L62.9422,158.67 L64.0196,151.537 L50.5996,155.983"/>
</g>

<g fill="none" stroke="#000000" stroke-opacity="1" stroke-width="1" stroke-linecap="square" stroke-linejoin="bevel" transform="matrix(6.18412,0,0,6.18412,-82.6065,-82.6065)"
font-family="Helvetica" font-size="12" font-weight="400" font-style="normal" 
>
</g>

<g fill="none" stroke="#000000" stroke-opacity="1" stroke-width="1" stroke-linecap="square" stroke-linejoin="bevel" transform="matrix(6.18412,0,0,6.18412,-82.6065,-82.6065)"
font-family="Helvetica" font-size="12" font-weight="400" font-style="normal" 
>
</g>

<g fill="#627fca" fill-opacity="1" stroke="none" transform="matrix(6.18412,0,0,6.18412,-82.6065,-82.6065)"
font-family="Helvetica" font-size="12" font-weight="400" font-style="normal" 
>
<path vector-effect="none" fill-rule="nonzero" d="M142.065,157.344 L129.436,157.744 C129.409,157.744 129.382,157.745 129.354,157.745 C129.327,157.745 129.3,157.744 129.273,157.744 L129.273,157.744 L116.644,157.348 L116.806,152.174 L129.435,152.57 L129.354,155.157 L129.273,152.57 L141.901,152.171 L142.065,157.344"/>
</g>

<g fill="none" stroke="#000000" stroke-opacity="1" stroke-width="0.3" stroke-linecap="square" stroke-linejoin="round" transform="matrix(6.18412,0,0,6.18412,-82.6065,-82.6065)"
font-family="Helvetica" font-size="12" font-weight="400" font-style="normal" 
>
<path vector-effect="none" fill-rule="evenodd" d="M142.065,157.344 L129.436,157.744 L129.395,157.745 L129.354,157.745 L129.314,157.745 L129.273,157.744 L129.273,157.744 L116.644,157.348 L116.806,152.174 L129.354,152.568 L141.901,152.171 L142.065,157.344"/>
</g>

<g fill="none" stroke="#000000" stroke-opacity="1" stroke-width="1" stroke-linecap="square" stroke-linejoin="bevel" transform="matrix(6.18412,0,0,6.18412,-82.6065,-82.6065)"
font-family="Helvetica" font-size="12" font-weight="400" font-style="normal" 
>
</g>

<g fill="none" stroke="#000000" stroke-opacity="1" stroke-width="1" stroke-linecap="square" stroke-linejoin="bevel" transform="matrix(6.18412,0,0,6.18412,-82.6065,-82.6065)"
font-family="Helvetica" font-size="12" font-weight="400" font-style="normal" 
>
</g>

<g fill="#caa462" fill-opacity="1" stroke="none" transform="matrix(6.18412,0,0,6.18412,-82.6065,-82.6065)"
font-family="Helvetica" font-size="12" font-weight="400" font-style="normal" 
>
<path vector-effect="none" fill-rule="nonzero" d="M41.6937,161.65 L41.6509,153.566 L47.0994,153.537 L47.1423,161.621 L41.6937,161.65"/>
</g>

<g fill="none" stroke="#000000" stroke-opacity="1" stroke-width="0.3" stroke-linecap="square" stroke-linejoin="round" transform="matrix(6.18412,0,0,6.18412,-82.6065,-82.6065)"
font-family="Helvetica" font-size="12" font-weight="400" font-style="normal" 
>
<path vector-effect="none" fill-rule="evenodd" d="M41.6937,161.65 L41.6509,153.566 L47.0994,153.537 L47.1423,161.621 L41.6937,161.65"/>
</g>

<g fill="none" stroke="#000000" stroke-opacity="1" stroke-width="1" stroke-linecap="square" stroke-linejoin="bevel" transform="matrix(6.18412,0,0,6.18412,-82.6065,-82.6065)"
font-family="Helvetica" font-size="12" font-weight="400" font-style="normal" 
>
</g>

<g fill="none" stroke="#000000" stroke-opacity="1" stroke-width="1" stroke-linecap="square" stroke-linejoin="bevel" transform="matrix(1,0,0,1,0,0)"
font-family="Helvetica" font-size="12" font-weight="400" font-style="normal" 
>
</g>
</g>
</svg>
