<?xml version="1.0" encoding="UTF-8" standalone="no"?>
<svg width="685.094mm" height="352.778mm"
 viewBox="0 0 1942 1000"
 xmlns="http://www.w3.org/2000/svg" xmlns:xlink="http://www.w3.org/1999/xlink"  version="1.2" baseProfile="tiny">
<title>Qt SVG Document</title>
<desc>Generated with Qt</desc>
<defs>
</defs>
<g fill="none" stroke="black" stroke-width="1" fill-rule="evenodd" stroke-linecap="square" stroke-linejoin="bevel" >

<g fill="#ffffff" fill-opacity="1" stroke="none" transform="matrix(1,0,0,1,0,0)"
font-family="Helvetica" font-size="12" font-weight="400" font-style="normal" 
>
<rect x="0" y="0" width="1942" height="1000"/>
</g>

<g fill="none" stroke="#000000" stroke-opacity="1" stroke-width="1" stroke-linecap="square" stroke-linejoin="bevel" transform="matrix(1,0,0,1,0,0)"
font-family="Helvetica" font-size="12" font-weight="400" font-style="normal" 
>
</g>

<g fill="none" stroke="#000000" stroke-opacity="1" stroke-width="1" stroke-linecap="square" stroke-linejoin="bevel" transform="matrix(1,0,0,1,0,0)"
font-family="Helvetica" font-size="12" font-weight="400" font-style="normal" 
>
</g>

<g fill="none" stroke="#000000" stroke-opacity="1" stroke-width="1" stroke-linecap="square" stroke-linejoin="bevel" transform="matrix(5.81123,0,0,5.81123,-53.0295,-49.025)"
font-family="Helvetica" font-size="12" font-weight="400" font-style="normal" 
>
</g>

<g fill="#ca62a4" fill-opacity="1" stroke="none" transform="matrix(5.81123,0,0,5.81123,-53.0295,-49.025)"
font-family="Helvetica" font-size="12" font-weight="400" font-style="normal" 
>
<path vector-effect="none" fill-rule="nonzero" d="M327.616,25.8737 L321.705,42.1691 C321.675,42.2531 321.641,42.334 321.603,42.4124 L321.602,42.412 L313.902,58.3143 C313.854,58.4146 313.8,58.5106 313.74,58.6024 L313.739,58.6022 L303.66,73.9808 C303.585,74.0965 303.5,74.2055 303.407,74.3069 L303.407,74.3069 L290.63,88.2555 C290.518,88.3777 290.395,88.489 290.261,88.5877 L290.261,88.5876 L274.758,100.01 C274.606,100.122 274.442,100.218 274.267,100.295 L274.267,100.294 L256.422,108.115 C256.24,108.195 256.046,108.255 255.845,108.29 L255.844,108.29 L236.493,111.744 C236.347,111.77 236.197,111.783 236.043,111.783 C235.996,111.783 235.95,111.782 235.905,111.78 L235.905,111.78 L216.121,110.712 C215.944,110.703 215.772,110.675 215.607,110.632 L215.607,110.631 L196.31,105.55 C196.174,105.515 196.043,105.469 195.919,105.413 L195.919,105.413 L177.591,97.2454 C177.502,97.2062 177.416,97.1619 177.334,97.1131 L177.334,97.1128 L160.003,86.9062 C159.956,86.8792 159.911,86.8506 159.867,86.8207 L159.867,86.8205 L143.242,75.5726 C143.232,75.5666 143.224,75.5605 143.215,75.5544 L143.215,75.5542 L126.852,64.1797 L128.315,62.0759 L126.929,64.2308 L110.384,53.5888 L111.77,51.4339 L110.563,53.6942 L93.5347,44.604 L94.7413,42.3437 L93.813,44.7318 L76.2767,37.9153 L77.205,35.5272 L76.631,38.0242 L58.9108,33.9509 L59.4848,31.4539 L59.2956,34.0091 L41.9148,32.7219 L42.104,30.1667 L42.2886,32.7222 L25.1846,33.9578 L24.8154,28.8467 L41.9194,27.6111 C41.9803,27.6067 42.0419,27.6045 42.104,27.6045 C43.519,27.6045 44.6662,28.7516 44.6662,30.1667 C44.6662,31.5817 43.519,32.7289 42.104,32.7289 C40.6889,32.7289 39.5418,31.5817 39.5418,30.1667 C39.5418,28.9422 40.4007,27.9184 41.5482,27.6649 L42.2932,27.6115 L59.6741,28.8987 C59.8063,28.9083 59.9349,28.9278 60.0594,28.9564 L60.0588,28.9568 L77.779,33.0301 C77.9018,33.0577 78.02,33.0942 78.1339,33.1385 L78.1333,33.139 L95.6696,39.9556 C95.7661,39.9924 95.8589,40.0352 95.9483,40.083 L95.9479,40.0834 L112.977,49.1736 C113.038,49.2062 113.098,49.2414 113.156,49.2788 L113.156,49.279 L129.701,59.921 C129.727,59.9374 129.752,59.9545 129.777,59.9719 L129.777,59.9721 L146.14,71.3466 L144.677,73.4504 L146.113,71.3283 L162.739,82.5763 L161.303,84.6984 L162.603,82.4906 L179.934,92.6972 L178.634,94.905 L179.677,92.5647 L198.005,100.732 L196.962,103.072 L197.615,100.595 L216.912,105.676 L216.26,108.154 L216.398,105.595 L236.181,106.663 L236.043,109.221 L235.593,106.699 L254.943,103.246 L255.394,105.768 L254.365,103.421 L272.21,95.6008 L273.238,97.9475 L271.718,95.8848 L287.221,84.4621 L288.741,86.5248 L286.852,84.7942 L299.628,70.8457 L301.517,72.5763 L299.375,71.1719 L309.453,55.7933 L311.596,57.1977 L309.29,56.0811 L316.99,40.1788 L319.296,41.2954 L316.888,40.4217 L322.799,24.1263 L327.616,25.8737"/>
</g>

<g fill="none" stroke="#000000" stroke-opacity="1" stroke-width="0.3" stroke-linecap="square" stroke-linejoin="round" transform="matrix(5.81123,0,0,5.81123,-53.0295,-49.025)"
font-family="Helvetica" font-size="12" font-weight="400" font-style="normal" 
>
<path vector-effect="none" fill-rule="evenodd" d="M327.616,25.8737 L321.705,42.1691 L321.657,42.2928 L321.603,42.4124 L321.602,42.412 L313.902,58.3143 L313.826,58.4615 L313.74,58.6024 L313.739,58.6022 L303.66,73.9808 L303.54,74.1492 L303.407,74.3069 L303.407,74.3069 L290.63,88.2555 L290.454,88.4304 L290.261,88.5877 L290.261,88.5876 L274.758,100.01 L274.521,100.166 L274.267,100.295 L274.267,100.294 L256.422,108.115 L256.141,108.219 L255.845,108.29 L255.844,108.29 L236.493,111.744 L236.271,111.773 L236.043,111.783 L235.973,111.783 L235.905,111.78 L235.905,111.78 L216.121,110.712 L215.859,110.685 L215.607,110.632 L215.607,110.631 L196.31,105.55 L196.11,105.489 L195.919,105.413 L195.919,105.413 L177.591,97.2454 L177.46,97.1828 L177.334,97.1131 L177.334,97.1128 L160.003,86.9062 L159.934,86.8646 L159.867,86.8207 L159.867,86.8205 L143.242,75.5726 L143.228,75.5636 L143.215,75.5544 L143.215,75.5542 L126.89,64.2059 L110.472,53.6452 L93.6701,44.6762 L76.4499,37.9826 L59.101,33.9947 L42.1017,32.7357 L25.1846,33.9578 L24.8154,28.8467 L41.9194,27.6111 L42.0112,27.6062 L42.104,27.6045 L42.1463,27.622 L42.2932,27.6115 L59.6741,28.8987 L59.8696,28.9204 L60.0594,28.9564 L60.0588,28.9568 L77.779,33.0301 L77.9598,33.078 L78.1339,33.1385 L78.1333,33.139 L95.6696,39.9556 L95.8116,40.0152 L95.9483,40.083 L95.9479,40.0834 L112.977,49.1736 L113.068,49.2244 L113.156,49.2788 L113.156,49.279 L129.701,59.921 L129.739,59.9461 L129.777,59.9719 L129.777,59.9721 L146.127,71.3374 L162.672,82.5313 L179.81,92.6237 L197.815,100.648 L216.659,105.609 L235.885,106.647 L254.644,103.299 L271.948,95.7154 L287.02,84.6102 L299.488,70.9985 L309.363,55.9319 L316.933,40.2976 L322.799,24.1263 L327.616,25.8737"/>
</g>

<g fill="none" stroke="#000000" stroke-opacity="1" stroke-width="1" stroke-linecap="square" stroke-linejoin="bevel" transform="matrix(5.81123,0,0,5.81123,-53.0295,-49.025)"
font-family="Helvetica" font-size="12" font-weight="400" font-style="normal" 
>
</g>

<g fill="none" stroke="#000000" stroke-opacity="1" stroke-width="1" stroke-linecap="square" stroke-linejoin="bevel" transform="matrix(5.81123,0,0,5.81123,-53.0295,-49.025)"
font-family="Helvetica" font-size="12" font-weight="400" font-style="normal" 
>
</g>

<g fill="#a7ca62" fill-opacity="1" stroke="none" transform="matrix(5.81123,0,0,5.81123,-53.0295,-49.025)"
font-family="Helvetica" font-size="12" font-weight="400" font-style="normal" 
>
<path vector-effect="none" fill-rule="nonzero" d="M24.8555,159.262 L43.9888,158.069 C44.0052,158.068 44.0216,158.067 44.0377,158.066 L44.0381,158.066 L63.7323,157.258 C63.7503,157.257 63.7685,157.256 63.7865,157.256 L63.7867,157.256 L84.0621,156.9 C84.0757,156.9 84.0892,156.9 84.1028,156.9 C85.3849,156.9 86.4242,157.939 86.4242,159.221 C86.4242,160.503 85.3849,161.543 84.1028,161.543 C82.8208,161.543 81.7815,160.503 81.7815,159.221 C81.7815,157.972 82.7682,156.953 84.0043,156.902 L84.1195,156.9 L104.602,157.047 C104.621,157.047 104.64,157.047 104.659,157.048 L104.659,157.048 L124.927,157.687 C124.945,157.688 124.963,157.688 124.98,157.689 L124.98,157.689 L144.662,158.756 C144.678,158.757 144.693,158.758 144.708,158.759 L144.708,158.759 L163.826,160.179 L163.482,164.809 L144.364,163.389 L144.536,161.074 L144.41,163.392 L124.728,162.325 L124.854,160.007 L124.781,162.328 L104.512,161.688 L104.586,159.368 L104.569,161.689 L84.0862,161.543 L84.1028,159.221 L84.1436,161.542 L63.8682,161.898 L63.8275,159.577 L63.9227,161.897 L44.2286,162.705 L44.1333,160.386 L44.2778,162.702 L25.1445,163.896 L24.8555,159.262"/>
</g>

<g fill="none" stroke="#000000" stroke-opacity="1" stroke-width="0.3" stroke-linecap="square" stroke-linejoin="round" transform="matrix(5.81123,0,0,5.81123,-53.0295,-49.025)"
font-family="Helvetica" font-size="12" font-weight="400" font-style="normal" 
>
<path vector-effect="none" fill-rule="evenodd" d="M24.8555,159.262 L43.9888,158.069 L44.0133,158.067 L44.0377,158.066 L44.0381,158.066 L63.7323,157.258 L63.7594,157.257 L63.7865,157.256 L63.7867,157.256 L84.0621,156.9 L84.0825,156.9 L84.1028,156.9 L84.1037,156.9 L84.1195,156.9 L104.602,157.047 L104.631,157.047 L104.659,157.048 L104.659,157.048 L124.927,157.687 L124.954,157.688 L124.98,157.689 L124.98,157.689 L144.662,158.756 L144.685,158.758 L144.708,158.759 L144.708,158.759 L163.826,160.179 L163.482,164.809 L144.387,163.391 L124.755,162.327 L104.541,161.689 L84.1149,161.543 L63.8955,161.898 L44.2532,162.704 L25.1445,163.896 L24.8555,159.262"/>
</g>

<g fill="none" stroke="#000000" stroke-opacity="1" stroke-width="1" stroke-linecap="square" stroke-linejoin="bevel" transform="matrix(5.81123,0,0,5.81123,-53.0295,-49.025)"
font-family="Helvetica" font-size="12" font-weight="400" font-style="normal" 
>
</g>

<g fill="none" stroke="#000000" stroke-opacity="1" stroke-width="1" stroke-linecap="square" stroke-linejoin="bevel" transform="matrix(1,0,0,1,0,0)"
font-family="Helvetica" font-size="12" font-weight="400" font-style="normal" 
>
</g>
</g>
</svg>
