<?xml version="1.0" encoding="UTF-8" standalone="no"?>
<svg width="352.778mm" height="352.778mm"
 viewBox="0 0 1000 1000"
 xmlns="http://www.w3.org/2000/svg" xmlns:xlink="http://www.w3.org/1999/xlink"  version="1.2" baseProfile="tiny">
<title>Qt SVG Document</title>
<desc>Generated with Qt</desc>
<defs>
</defs>
<g fill="none" stroke="black" stroke-width="1" fill-rule="evenodd" stroke-linecap="square" stroke-linejoin="bevel" >

<g fill="#ffffff" fill-opacity="1" stroke="none" transform="matrix(1,0,0,1,0,0)"
font-family="Helvetica" font-size="12" font-weight="400" font-style="normal" 
>
<rect x="0" y="0" width="1000" height="1000"/>
</g>

<g fill="none" stroke="#000000" stroke-opacity="1" stroke-width="1" stroke-linecap="square" stroke-linejoin="bevel" transform="matrix(1,0,0,1,0,0)"
font-family="Helvetica" font-size="12" font-weight="400" font-style="normal" 
>
</g>

<g fill="none" stroke="#000000" stroke-opacity="1" stroke-width="1" stroke-linecap="square" stroke-linejoin="bevel" transform="matrix(1,0,0,1,0,0)"
font-family="Helvetica" font-size="12" font-weight="400" font-style="normal" 
>
</g>

<g fill="none" stroke="#000000" stroke-opacity="1" stroke-width="1" stroke-linecap="square" stroke-linejoin="bevel" transform="matrix(4.65727,0,0,4.65727,-56.7157,-65.1463)"
font-family="Helvetica" font-size="12" font-weight="400" font-style="normal" 
>
</g>

<g fill="#a7ca62" fill-opacity="1" stroke="none" transform="matrix(4.65727,0,0,4.65727,-56.7157,-65.1463)"
font-family="Helvetica" font-size="12" font-weight="400" font-style="normal" 
>
<path vector-effect="none" fill-rule="nonzero" d="M216.305,27.1171 L216.636,44.3879 C216.636,44.4041 216.636,44.4205 216.636,44.4368 C216.636,44.5224 216.632,44.6069 216.624,44.6896 L216.624,44.6893 L214.883,62.2674 C214.872,62.3852 214.852,62.4997 214.826,62.6106 L214.825,62.6101 L210.542,80.5463 C210.511,80.6782 210.47,80.8049 210.42,80.9265 L210.419,80.926 L203.18,98.5235 C203.124,98.6617 203.055,98.793 202.977,98.917 L202.977,98.9168 L192.606,115.339 C192.521,115.474 192.423,115.6 192.315,115.716 L192.315,115.716 L178.911,130.122 C178.797,130.244 178.671,130.355 178.536,130.453 L178.536,130.453 L162.459,142.071 C162.32,142.172 162.171,142.259 162.013,142.331 L162.012,142.33 L143.851,150.521 C143.692,150.593 143.524,150.649 143.35,150.687 L143.349,150.687 L123.862,154.978 C123.689,155.017 123.509,155.037 123.324,155.038 L123.324,155.038 L103.383,155.143 C103.379,155.143 103.374,155.143 103.37,155.143 C103.185,155.143 103.005,155.124 102.832,155.087 L102.832,155.086 L83.3868,150.915 C83.1975,150.875 83.0171,150.814 82.8471,150.735 L82.8475,150.735 L64.8841,142.417 C64.7058,142.334 64.5393,142.232 64.3866,142.113 L64.3867,142.113 L48.8712,130.033 C48.7154,129.912 48.5741,129.773 48.4502,129.62 L48.4503,129.62 L36.2257,114.452 C36.1035,114.301 35.9982,114.135 35.9128,113.959 L35.9131,113.958 L27.5565,96.6442 C27.4755,96.478 27.4124,96.3014 27.3694,96.1179 L27.3697,96.1166 L23.0565,77.7625 C23.0176,77.5988 22.9949,77.4283 22.9898,77.2539 L22.9898,77.2535 L22.439,58.9544 C22.4382,58.9288 22.4378,58.9031 22.4378,58.8773 C22.4378,58.7505 22.447,58.6259 22.4647,58.5049 L22.465,58.5053 L25.0175,41.1107 C25.0363,40.9794 25.0651,40.8525 25.1027,40.7301 L25.1032,40.7307 L30.1637,24.248 L35.0624,25.752 L30.0019,42.2347 L27.5526,41.4827 L30.0876,41.8547 L27.535,59.2493 L25,58.8773 L27.561,58.8002 L28.1118,77.0993 L25.5508,77.1764 L28.045,76.5903 L32.3582,94.9443 L29.8639,95.5304 L32.1714,94.4167 L40.5281,111.73 L38.2206,112.844 L40.2155,111.236 L52.4401,126.404 L50.4452,128.012 L52.0192,125.99 L67.5347,138.07 L65.9607,140.092 L67.0373,137.767 L85.0008,146.085 L83.9242,148.41 L84.4615,145.905 L103.907,150.076 L103.37,152.581 L103.356,150.019 L123.297,149.914 L123.311,152.476 L122.76,149.974 L142.247,145.683 L142.798,148.185 L141.745,145.849 L159.905,137.659 L160.958,139.995 L159.458,137.918 L175.534,126.3 L177.035,128.377 L175.159,126.631 L188.564,112.226 L190.439,113.971 L188.273,112.603 L198.644,96.1806 L200.81,97.5487 L198.441,96.5739 L205.68,78.9763 L208.05,79.9512 L205.558,79.356 L209.841,61.4198 L212.333,62.0149 L209.783,61.7624 L211.524,44.1843 L214.074,44.4368 L211.512,44.4858 L211.182,27.2151 L216.305,27.1171"/>
</g>

<g fill="none" stroke="#000000" stroke-opacity="1" stroke-width="0.3" stroke-linecap="square" stroke-linejoin="round" transform="matrix(4.65727,0,0,4.65727,-56.7157,-65.1463)"
font-family="Helvetica" font-size="12" font-weight="400" font-style="normal" 
>
<path vector-effect="none" fill-rule="evenodd" d="M216.305,27.1171 L216.636,44.3879 L216.636,44.4123 L216.636,44.4368 L216.633,44.5643 L216.624,44.6896 L216.624,44.6893 L214.883,62.2674 L214.86,62.4416 L214.826,62.6106 L214.825,62.6101 L210.542,80.5463 L210.488,80.7402 L210.42,80.9265 L210.419,80.926 L203.18,98.5235 L203.087,98.7256 L202.977,98.917 L202.977,98.9168 L192.606,115.339 L192.469,115.535 L192.315,115.716 L192.315,115.716 L178.911,130.122 L178.731,130.297 L178.536,130.453 L178.536,130.453 L162.459,142.071 L162.243,142.212 L162.013,142.331 L162.012,142.33 L143.851,150.521 L143.607,150.617 L143.35,150.687 L143.349,150.687 L123.862,154.978 L123.597,155.022 L123.324,155.038 L123.324,155.038 L103.383,155.143 L103.376,155.143 L103.37,155.143 L103.096,155.129 L102.832,155.087 L102.832,155.086 L83.3868,150.915 L83.1097,150.84 L82.8471,150.735 L82.8475,150.735 L64.8841,142.417 L64.6257,142.279 L64.3866,142.113 L64.3867,142.113 L48.8712,130.033 L48.6487,129.839 L48.4502,129.62 L48.4503,129.62 L36.2257,114.452 L36.0555,114.215 L35.9128,113.959 L35.9131,113.958 L27.5565,96.6442 L27.4487,96.3876 L27.3694,96.1179 L27.3697,96.1166 L23.0565,77.7625 L23.0105,77.5122 L22.9898,77.2539 L22.9898,77.2535 L22.439,58.9544 L22.4381,58.9159 L22.4378,58.8773 L22.4446,58.6889 L22.4647,58.5049 L22.465,58.5053 L25.0175,41.1107 L25.0531,40.9171 L25.1027,40.7301 L25.1032,40.7307 L30.1637,24.248 L35.0624,25.752 L30.0592,42.048 L27.5678,59.0259 L28.1041,76.8414 L32.2938,94.6702 L40.4002,111.465 L52.2536,126.173 L67.3034,137.89 L84.7412,145.965 L103.635,150.017 L123.025,149.915 L141.987,145.74 L159.668,137.766 L175.33,126.447 L188.401,112.401 L198.525,96.3685 L205.604,79.1614 L209.801,61.5892 L211.509,44.3347 L211.182,27.2151 L216.305,27.1171"/>
</g>

<g fill="none" stroke="#000000" stroke-opacity="1" stroke-width="1" stroke-linecap="square" stroke-linejoin="bevel" transform="matrix(4.65727,0,0,4.65727,-56.7157,-65.1463)"
font-family="Helvetica" font-size="12" font-weight="400" font-style="normal" 
>
</g>

<g fill="none" stroke="#000000" stroke-opacity="1" stroke-width="1" stroke-linecap="square" stroke-linejoin="bevel" transform="matrix(4.65727,0,0,4.65727,-56.7157,-65.1463)"
font-family="Helvetica" font-size="12" font-weight="400" font-style="normal" 
>
</g>

<g fill="#62cab9" fill-opacity="1" stroke="none" transform="matrix(4.65727,0,0,4.65727,-56.7157,-65.1463)"
font-family="Helvetica" font-size="12" font-weight="400" font-style="normal" 
>
<path vector-effect="none" fill-rule="nonzero" d="M159.905,218.426 L141.757,212.197 L142.51,210.001 L141.969,212.259 L122.796,207.66 L123.338,205.403 L123.043,207.706 L102.941,205.129 L103.237,202.826 L103.209,205.148 L82.7474,204.902 L82.7752,202.581 L83.0133,204.89 L62.8539,206.968 L62.6158,204.659 L63.0965,206.93 L43.8067,211.012 L43.3261,208.741 L44.0139,210.958 L25.6878,216.644 L24.3122,212.209 L42.6383,206.524 C42.7055,206.502 42.7747,206.484 42.8443,206.47 L42.8455,206.47 L62.1352,202.388 C62.2143,202.371 62.2953,202.358 62.3769,202.35 L62.3778,202.35 L82.5372,200.272 C82.6153,200.264 82.6948,200.26 82.7752,200.26 C84.0573,200.26 85.0966,201.299 85.0966,202.581 C85.0966,203.863 84.0573,204.902 82.7752,204.902 C81.4932,204.902 80.4538,203.863 80.4538,202.581 C80.4538,201.471 81.2329,200.543 82.2733,200.314 L82.8031,200.26 L103.264,200.505 C103.355,200.506 103.445,200.513 103.532,200.524 L103.532,200.524 L123.633,203.1 C123.718,203.111 123.8,203.126 123.88,203.145 L123.879,203.146 L143.052,207.744 C143.125,207.761 143.196,207.782 143.264,207.805 L143.264,207.806 L161.412,214.034 L159.905,218.426"/>
</g>

<g fill="none" stroke="#000000" stroke-opacity="1" stroke-width="0.3" stroke-linecap="square" stroke-linejoin="round" transform="matrix(4.65727,0,0,4.65727,-56.7157,-65.1463)"
font-family="Helvetica" font-size="12" font-weight="400" font-style="normal" 
>
<path vector-effect="none" fill-rule="evenodd" d="M159.905,218.426 L141.861,212.233 L122.918,207.69 L103.075,205.146 L82.8807,204.904 L62.9762,206.956 L43.9115,210.99 L25.6878,216.644 L24.3122,212.209 L42.6383,206.524 L42.7404,206.494 L42.8443,206.47 L42.8455,206.47 L62.1352,202.388 L62.2551,202.365 L62.3769,202.35 L62.3778,202.35 L82.5372,200.272 L82.6554,200.263 L82.7752,200.26 L82.7811,200.262 L82.8031,200.26 L103.264,200.505 L103.4,200.511 L103.532,200.524 L103.532,200.524 L123.633,203.1 L123.758,203.12 L123.88,203.145 L123.879,203.146 L143.052,207.744 L143.16,207.772 L143.264,207.805 L143.264,207.806 L161.412,214.034 L159.905,218.426"/>
</g>

<g fill="none" stroke="#000000" stroke-opacity="1" stroke-width="1" stroke-linecap="square" stroke-linejoin="bevel" transform="matrix(4.65727,0,0,4.65727,-56.7157,-65.1463)"
font-family="Helvetica" font-size="12" font-weight="400" font-style="normal" 
>
</g>

<g fill="none" stroke="#000000" stroke-opacity="1" stroke-width="1" stroke-linecap="square" stroke-linejoin="bevel" transform="matrix(1,0,0,1,0,0)"
font-family="Helvetica" font-size="12" font-weight="400" font-style="normal" 
>
</g>
</g>
</svg>
