<?xml version="1.0" encoding="UTF-8" standalone="no"?>
<svg width="392.289mm" height="352.778mm"
 viewBox="0 0 1112 1000"
 xmlns="http://www.w3.org/2000/svg" xmlns:xlink="http://www.w3.org/1999/xlink"  version="1.2" baseProfile="tiny">
<title>Qt SVG Document</title>
<desc>Generated with Qt</desc>
<defs>
</defs>
<g fill="none" stroke="black" stroke-width="1" fill-rule="evenodd" stroke-linecap="square" stroke-linejoin="bevel" >

<g fill="#ffffff" fill-opacity="1" stroke="none" transform="matrix(1,0,0,1,0,0)"
font-family="Helvetica" font-size="12" font-weight="400" font-style="normal" 
>
<rect x="0" y="0" width="1112" height="1000"/>
</g>

<g fill="none" stroke="#000000" stroke-opacity="1" stroke-width="1" stroke-linecap="square" stroke-linejoin="bevel" transform="matrix(1,0,0,1,0,0)"
font-family="Helvetica" font-size="12" font-weight="400" font-style="normal" 
>
</g>

<g fill="none" stroke="#000000" stroke-opacity="1" stroke-width="1" stroke-linecap="square" stroke-linejoin="bevel" transform="matrix(1,0,0,1,0,0)"
font-family="Helvetica" font-size="12" font-weight="400" font-style="normal" 
>
</g>

<g fill="none" stroke="#000000" stroke-opacity="1" stroke-width="1" stroke-linecap="square" stroke-linejoin="bevel" transform="matrix(5.21308,0,0,5.21308,-55.4363,-64.0816)"
font-family="Helvetica" font-size="12" font-weight="400" font-style="normal" 
>
</g>

<g fill="none" stroke="#000000" stroke-opacity="0.705882" stroke-width="1.5" stroke-linecap="round" stroke-linejoin="bevel" transform="matrix(5.21308,0,0,5.21308,-55.4363,-64.0816)"
font-family="Helvetica" font-size="12" font-weight="400" font-style="normal" 
>
<path vector-effect="none" fill-rule="evenodd" d="M115.037,139.659 C117.624,139.403 117.645,139.395 120.236,139.617 "/>
</g>

<g fill="none" stroke="#000000" stroke-opacity="1" stroke-width="1" stroke-linecap="square" stroke-linejoin="bevel" transform="matrix(5.21308,0,0,5.21308,-55.4363,-64.0816)"
font-family="Helvetica" font-size="12" font-weight="400" font-style="normal" 
>
</g>

<g fill="none" stroke="#000000" stroke-opacity="1" stroke-width="1" stroke-linecap="square" stroke-linejoin="bevel" transform="matrix(5.21308,0,0,5.21308,-55.4363,-64.0816)"
font-family="Helvetica" font-size="12" font-weight="400" font-style="normal" 
>
</g>

<g fill="none" stroke="#000000" stroke-opacity="0.705882" stroke-width="1.5" stroke-linecap="round" stroke-linejoin="bevel" transform="matrix(5.21308,0,0,5.21308,-55.4363,-64.0816)"
font-family="Helvetica" font-size="12" font-weight="400" font-style="normal" 
>
<path vector-effect="none" fill-rule="evenodd" d="M25,191.685 C20.0002,191.724 19.9614,186.724 29.9321,186.647 C39.9027,186.57 39.9414,191.569 34.9416,191.608 "/>
</g>

<g fill="none" stroke="#000000" stroke-opacity="1" stroke-width="1" stroke-linecap="square" stroke-linejoin="bevel" transform="matrix(5.21308,0,0,5.21308,-55.4363,-64.0816)"
font-family="Helvetica" font-size="12" font-weight="400" font-style="normal" 
>
</g>

<g fill="none" stroke="#000000" stroke-opacity="1" stroke-width="1" stroke-linecap="square" stroke-linejoin="bevel" transform="matrix(5.21308,0,0,5.21308,-55.4363,-64.0816)"
font-family="Helvetica" font-size="12" font-weight="400" font-style="normal" 
>
</g>

<g fill="none" stroke="#000000" stroke-opacity="0.705882" stroke-width="1.5" stroke-linecap="round" stroke-linejoin="bevel" transform="matrix(5.21308,0,0,5.21308,-55.4363,-64.0816)"
font-family="Helvetica" font-size="12" font-weight="400" font-style="normal" 
>
<path vector-effect="none" fill-rule="evenodd" d="M84.9416,191.666 C79.9417,191.705 79.903,186.705 87.4028,186.647 C94.9026,186.589 94.9413,191.589 89.9414,191.627 "/>
</g>

<g fill="none" stroke="#000000" stroke-opacity="1" stroke-width="1" stroke-linecap="square" stroke-linejoin="bevel" transform="matrix(5.21308,0,0,5.21308,-55.4363,-64.0816)"
font-family="Helvetica" font-size="12" font-weight="400" font-style="normal" 
>
</g>

<g fill="none" stroke="#000000" stroke-opacity="1" stroke-width="1" stroke-linecap="square" stroke-linejoin="bevel" transform="matrix(5.21308,0,0,5.21308,-55.4363,-64.0816)"
font-family="Helvetica" font-size="12" font-weight="400" font-style="normal" 
>
</g>

<g fill="#62ca9b" fill-opacity="1" stroke="none" transform="matrix(5.21308,0,0,5.21308,-55.4363,-64.0816)"
font-family="Helvetica" font-size="12" font-weight="400" font-style="normal" 
>
<path vector-effect="none" fill-rule="nonzero" d="M120.449,137.114 L140.216,138.804 L140.002,141.306 L139.904,138.796 L159.421,138.032 L159.519,140.542 L158.925,138.101 L177.682,133.536 L178.276,135.976 L177.027,133.797 L193.535,124.336 L194.784,126.515 L192.829,124.938 L204.651,110.287 L206.606,111.864 L204.172,111.245 L208.802,93.0392 L211.236,93.6583 L208.76,94.0802 L205.582,75.4288 L208.058,75.0069 L205.881,76.2603 L196.311,59.6407 L198.487,58.3873 L196.749,60.2004 L182.683,46.7164 L184.421,44.9033 L183.145,47.0663 L166.115,37.0148 L167.392,34.8519 L166.562,37.2223 L147.682,30.6083 L148.513,28.2379 L148.109,30.7169 L128.22,27.479 L128.623,25 L128.634,27.5116 L108.428,27.5999 L108.417,25.0883 L108.84,27.564 L88.9632,30.9622 L88.54,28.4865 L89.3833,30.8523 L70.515,37.5783 L69.6717,35.2124 L70.9505,37.3741 L53.8997,47.4616 L52.6208,45.2999 L54.3486,47.1229 L40.1767,60.5544 L38.449,58.7314 L40.607,60.0164 L30.7773,76.5253 L28.6192,75.2404 L31.0846,75.7203 L27.4654,94.3117 L25,93.8318 L27.4498,93.2778 L31.5926,111.599 L29.1428,112.153 L31.1276,110.614 L42.6488,125.471 L40.6639,127.01 L41.9273,124.84 L58.3398,134.392 L57.0764,136.563 L57.6608,134.12 L76.3979,138.603 L75.8135,141.045 L75.886,138.535 L95.3809,139.098 L95.3085,141.608 L95.0615,139.109 L114.79,137.159 L115.284,142.158 L95.5554,144.108 C95.4743,144.116 95.3919,144.12 95.3085,144.12 C95.2841,144.12 95.2598,144.119 95.236,144.119 L95.236,144.119 L75.741,143.556 C75.5646,143.551 75.393,143.528 75.2285,143.488 L75.2291,143.488 L56.492,139.005 C56.2493,138.948 56.0214,138.855 55.8128,138.734 L55.8131,138.733 L39.4006,129.181 C39.1211,129.019 38.8762,128.804 38.6791,128.55 L38.6791,128.55 L27.158,113.692 C26.9362,113.406 26.7747,113.072 26.6927,112.708 L26.693,112.707 L22.5502,94.3858 C22.5096,94.2079 22.4884,94.0223 22.4884,93.8318 C22.4884,93.6672 22.5042,93.5064 22.5343,93.3514 L22.5346,93.3519 L26.1539,74.7604 C26.2097,74.4704 26.3152,74.1993 26.4609,73.9551 L26.4612,73.9554 L36.2909,57.4465 C36.4092,57.2475 36.5544,57.0666 36.7212,56.9084 L36.7212,56.9084 L50.8931,43.4769 C51.0291,43.348 51.1795,43.2341 51.3415,43.138 L51.342,43.1382 L68.3928,33.0508 C68.5297,32.9691 68.6753,32.9005 68.8273,32.8463 L68.8283,32.8466 L87.6966,26.1206 C87.8312,26.0719 87.9716,26.035 88.1155,26.0105 L88.1167,26.0107 L107.994,22.6126 C108.128,22.5894 108.266,22.5773 108.406,22.5767 L108.406,22.5767 L128.612,22.4884 C128.616,22.4884 128.62,22.4884 128.623,22.4884 C130.01,22.4884 131.135,23.6129 131.135,25 C131.135,26.3871 130.01,27.5116 128.623,27.5116 C127.236,27.5116 126.112,26.3871 126.112,25 C126.112,23.7579 127.013,22.7265 128.197,22.5244 L129.027,22.521 L148.916,25.7589 C149.065,25.7825 149.207,25.819 149.344,25.867 L149.343,25.8675 L168.222,32.4815 C168.38,32.5359 168.529,32.6057 168.669,32.6886 L168.669,32.6889 L185.698,42.7403 C185.866,42.839 186.02,42.9566 186.16,43.0902 L186.16,43.0902 L200.225,56.5742 C200.397,56.7385 200.545,56.9267 200.664,57.1335 L200.664,57.1339 L210.234,73.7535 C210.381,74.0059 210.484,74.2863 210.534,74.5838 L210.534,74.585 L213.712,93.2363 C213.736,93.3732 213.748,93.5143 213.748,93.6583 C213.748,93.8723 213.721,94.0802 213.671,94.2779 L213.67,94.2773 L209.04,112.483 C208.95,112.84 208.784,113.165 208.561,113.442 L208.561,113.442 L196.739,128.092 C196.543,128.334 196.304,128.539 196.033,128.694 L196.033,128.694 L179.525,138.155 C179.323,138.272 179.104,138.361 178.872,138.417 L178.87,138.417 L160.113,142.982 C159.954,143.022 159.788,143.045 159.618,143.052 L159.618,143.052 L140.1,143.816 C140.068,143.817 140.035,143.818 140.002,143.818 C139.93,143.818 139.858,143.815 139.788,143.809 L139.788,143.809 L120.022,142.119 L120.449,137.114"/>
</g>

<g fill="none" stroke="#000000" stroke-opacity="1" stroke-width="0.3" stroke-linecap="square" stroke-linejoin="round" transform="matrix(5.21308,0,0,5.21308,-55.4363,-64.0816)"
font-family="Helvetica" font-size="12" font-weight="400" font-style="normal" 
>
<path vector-effect="none" fill-rule="evenodd" d="M120.449,137.114 L140.06,138.79 L159.17,138.042 L177.336,133.62 L193.126,124.57 L204.307,110.714 L208.671,93.5552 L205.657,75.8713 L196.49,59.9519 L182.894,46.9181 L166.328,37.1405 L147.891,30.6814 L128.426,27.5125 L108.636,27.599 L89.178,30.9254 L70.7426,37.4971 L54.1432,47.3175 L40.4291,60.3152 L31.001,76.1496 L27.5663,93.7931 L31.4695,111.054 L42.3495,125.085 L58.0203,134.206 L76.1454,138.542 L95.2209,139.093 L114.79,137.159 L115.284,142.158 L95.5554,144.108 L95.4328,144.117 L95.3085,144.12 L95.272,144.119 L95.236,144.119 L95.236,144.119 L75.741,143.556 L75.4803,143.535 L75.2285,143.488 L75.2291,143.488 L56.492,139.005 L56.1396,138.894 L55.8128,138.734 L55.8131,138.733 L39.4006,129.181 L39.0089,128.9 L38.6791,128.55 L38.6791,128.55 L27.158,113.692 L26.8729,113.229 L26.6927,112.708 L26.693,112.707 L22.5502,94.3858 L22.5041,94.1135 L22.4884,93.8318 L22.5,93.588 L22.5343,93.3514 L22.5346,93.3519 L26.1539,74.7604 L26.2736,74.3406 L26.4609,73.9551 L26.4612,73.9554 L36.2909,57.4465 L36.4879,57.1622 L36.7212,56.9084 L36.7212,56.9084 L50.8931,43.4769 L51.1075,43.2951 L51.3415,43.138 L51.342,43.1382 L68.3928,33.0508 L68.6044,32.9382 L68.8273,32.8463 L68.8283,32.8466 L87.6966,26.1206 L87.9026,26.0565 L88.1155,26.0105 L88.1167,26.0107 L107.994,22.6126 L108.198,22.5862 L108.406,22.5767 L108.406,22.5767 L128.612,22.4884 L128.618,22.4884 L128.623,22.4884 L128.705,22.5223 L129.027,22.521 L148.916,25.7589 L149.134,25.8038 L149.344,25.867 L149.343,25.8675 L168.222,32.4815 L168.452,32.5743 L168.669,32.6886 L168.669,32.6889 L185.698,42.7403 L185.939,42.9022 L186.16,43.0902 L186.16,43.0902 L200.225,56.5742 L200.464,56.8379 L200.664,57.1335 L200.664,57.1339 L210.234,73.7535 L210.42,74.1517 L210.534,74.5838 L210.534,74.585 L213.712,93.2363 L213.739,93.4447 L213.748,93.6583 L213.728,93.9742 L213.671,94.2779 L213.67,94.2773 L209.04,112.483 L208.85,112.992 L208.561,113.442 L208.561,113.442 L196.739,128.092 L196.414,128.425 L196.033,128.694 L196.033,128.694 L179.525,138.155 L179.21,138.309 L178.872,138.417 L178.87,138.417 L160.113,142.982 L159.87,143.029 L159.618,143.052 L159.618,143.052 L140.1,143.816 L140.051,143.817 L140.002,143.818 L139.894,143.815 L139.788,143.809 L139.788,143.809 L120.022,142.119 L120.449,137.114"/>
</g>

<g fill="none" stroke="#000000" stroke-opacity="1" stroke-width="1" stroke-linecap="square" stroke-linejoin="bevel" transform="matrix(5.21308,0,0,5.21308,-55.4363,-64.0816)"
font-family="Helvetica" font-size="12" font-weight="400" font-style="normal" 
>
</g>

<g fill="none" stroke="#000000" stroke-opacity="1" stroke-width="1" stroke-linecap="square" stroke-linejoin="bevel" transform="matrix(5.21308,0,0,5.21308,-55.4363,-64.0816)"
font-family="Helvetica" font-size="12" font-weight="400" font-style="normal" 
>
</g>

<g fill="#b5ca62" fill-opacity="1" stroke="none" transform="matrix(5.21308,0,0,5.21308,-55.4363,-64.0816)"
font-family="Helvetica" font-size="12" font-weight="400" font-style="normal" 
>
<path vector-effect="none" fill-rule="nonzero" d="M34.9565,193.532 L25.0149,193.609 L24.9851,189.761 L34.9267,189.684 L34.9565,193.532"/>
</g>

<g fill="none" stroke="#000000" stroke-opacity="1" stroke-width="0.3" stroke-linecap="square" stroke-linejoin="round" transform="matrix(5.21308,0,0,5.21308,-55.4363,-64.0816)"
font-family="Helvetica" font-size="12" font-weight="400" font-style="normal" 
>
<path vector-effect="none" fill-rule="evenodd" d="M34.9565,193.532 L25.0149,193.609 L24.9851,189.761 L34.9267,189.684 L34.9565,193.532"/>
</g>

<g fill="none" stroke="#000000" stroke-opacity="1" stroke-width="1" stroke-linecap="square" stroke-linejoin="bevel" transform="matrix(5.21308,0,0,5.21308,-55.4363,-64.0816)"
font-family="Helvetica" font-size="12" font-weight="400" font-style="normal" 
>
</g>

<g fill="none" stroke="#000000" stroke-opacity="1" stroke-width="1" stroke-linecap="square" stroke-linejoin="bevel" transform="matrix(5.21308,0,0,5.21308,-55.4363,-64.0816)"
font-family="Helvetica" font-size="12" font-weight="400" font-style="normal" 
>
</g>

<g fill="#bcca62" fill-opacity="1" stroke="none" transform="matrix(5.21308,0,0,5.21308,-55.4363,-64.0816)"
font-family="Helvetica" font-size="12" font-weight="400" font-style="normal" 
>
<path vector-effect="none" fill-rule="nonzero" d="M89.9579,193.748 L84.958,193.787 L84.9252,189.545 L89.925,189.507 L89.9579,193.748"/>
</g>

<g fill="none" stroke="#000000" stroke-opacity="1" stroke-width="0.3" stroke-linecap="square" stroke-linejoin="round" transform="matrix(5.21308,0,0,5.21308,-55.4363,-64.0816)"
font-family="Helvetica" font-size="12" font-weight="400" font-style="normal" 
>
<path vector-effect="none" fill-rule="evenodd" d="M89.9579,193.748 L84.958,193.787 L84.9252,189.545 L89.925,189.507 L89.9579,193.748"/>
</g>

<g fill="none" stroke="#000000" stroke-opacity="1" stroke-width="1" stroke-linecap="square" stroke-linejoin="bevel" transform="matrix(5.21308,0,0,5.21308,-55.4363,-64.0816)"
font-family="Helvetica" font-size="12" font-weight="400" font-style="normal" 
>
</g>

<g fill="none" stroke="#000000" stroke-opacity="1" stroke-width="1" stroke-linecap="square" stroke-linejoin="bevel" transform="matrix(1,0,0,1,0,0)"
font-family="Helvetica" font-size="12" font-weight="400" font-style="normal" 
>
</g>
</g>
</svg>
