<?xml version="1.0" encoding="UTF-8" standalone="no"?>
<svg width="654.756mm" height="352.778mm"
 viewBox="0 0 1856 1000"
 xmlns="http://www.w3.org/2000/svg" xmlns:xlink="http://www.w3.org/1999/xlink"  version="1.2" baseProfile="tiny">
<title>Qt SVG Document</title>
<desc>Generated with Qt</desc>
<defs>
</defs>
<g fill="none" stroke="black" stroke-width="1" fill-rule="evenodd" stroke-linecap="square" stroke-linejoin="bevel" >

<g fill="#ffffff" fill-opacity="1" stroke="none" transform="matrix(1,0,0,1,0,0)"
font-family="Helvetica" font-size="12" font-weight="400" font-style="normal" 
>
<rect x="0" y="0" width="1856" height="1000"/>
</g>

<g fill="none" stroke="#000000" stroke-opacity="1" stroke-width="1" stroke-linecap="square" stroke-linejoin="bevel" transform="matrix(1,0,0,1,0,0)"
font-family="Helvetica" font-size="12" font-weight="400" font-style="normal" 
>
</g>

<g fill="none" stroke="#000000" stroke-opacity="1" stroke-width="1" stroke-linecap="square" stroke-linejoin="bevel" transform="matrix(1,0,0,1,0,0)"
font-family="Helvetica" font-size="12" font-weight="400" font-style="normal" 
>
</g>

<g fill="none" stroke="#000000" stroke-opacity="1" stroke-width="1" stroke-linecap="square" stroke-linejoin="bevel" transform="matrix(7.23034,0,0,7.23034,-75.483,-75.483)"
font-family="Helvetica" font-size="12" font-weight="400" font-style="normal" 
>
</g>

<g fill="none" stroke="#000000" stroke-opacity="0.705882" stroke-width="1.5" stroke-linecap="round" stroke-linejoin="bevel" transform="matrix(7.23034,0,0,7.23034,-75.483,-75.483)"
font-family="Helvetica" font-size="12" font-weight="400" font-style="normal" 
>
<path vector-effect="none" fill-rule="evenodd" d="M136.708,70.8608 C134.18,70.0134 135.887,68.2319 134.243,66.1331 "/>
</g>

<g fill="none" stroke="#000000" stroke-opacity="1" stroke-width="1" stroke-linecap="square" stroke-linejoin="bevel" transform="matrix(7.23034,0,0,7.23034,-75.483,-75.483)"
font-family="Helvetica" font-size="12" font-weight="400" font-style="normal" 
>
</g>

<g fill="none" stroke="#000000" stroke-opacity="1" stroke-width="1" stroke-linecap="square" stroke-linejoin="bevel" transform="matrix(7.23034,0,0,7.23034,-75.483,-75.483)"
font-family="Helvetica" font-size="12" font-weight="400" font-style="normal" 
>
</g>

<g fill="none" stroke="#000000" stroke-opacity="0.705882" stroke-width="1.5" stroke-linecap="round" stroke-linejoin="bevel" transform="matrix(7.23034,0,0,7.23034,-75.483,-75.483)"
font-family="Helvetica" font-size="12" font-weight="400" font-style="normal" 
>
<path vector-effect="none" fill-rule="evenodd" d="M222.712,109.611 C221.365,107.405 219.77,111.538 217.574,110.174 "/>
</g>

<g fill="none" stroke="#000000" stroke-opacity="1" stroke-width="1" stroke-linecap="square" stroke-linejoin="bevel" transform="matrix(7.23034,0,0,7.23034,-75.483,-75.483)"
font-family="Helvetica" font-size="12" font-weight="400" font-style="normal" 
>
</g>

<g fill="none" stroke="#000000" stroke-opacity="1" stroke-width="1" stroke-linecap="square" stroke-linejoin="bevel" transform="matrix(7.23034,0,0,7.23034,-75.483,-75.483)"
font-family="Helvetica" font-size="12" font-weight="400" font-style="normal" 
>
</g>

<g fill="none" stroke="#000000" stroke-opacity="0.705882" stroke-width="1.5" stroke-linecap="round" stroke-linejoin="bevel" transform="matrix(7.23034,0,0,7.23034,-75.483,-75.483)"
font-family="Helvetica" font-size="12" font-weight="400" font-style="normal" 
>
<path vector-effect="none" fill-rule="evenodd" d="M133.481,75.0632 C135.168,73.021 134.196,70.0187 136.708,70.8608 "/>
</g>

<g fill="none" stroke="#000000" stroke-opacity="1" stroke-width="1" stroke-linecap="square" stroke-linejoin="bevel" transform="matrix(7.23034,0,0,7.23034,-75.483,-75.483)"
font-family="Helvetica" font-size="12" font-weight="400" font-style="normal" 
>
</g>

<g fill="none" stroke="#000000" stroke-opacity="1" stroke-width="1" stroke-linecap="square" stroke-linejoin="bevel" transform="matrix(7.23034,0,0,7.23034,-75.483,-75.483)"
font-family="Helvetica" font-size="12" font-weight="400" font-style="normal" 
>
</g>

<g fill="none" stroke="#000000" stroke-opacity="0.705882" stroke-width="1.5" stroke-linecap="round" stroke-linejoin="bevel" transform="matrix(7.23034,0,0,7.23034,-75.483,-75.483)"
font-family="Helvetica" font-size="12" font-weight="400" font-style="normal" 
>
<path vector-effect="none" fill-rule="evenodd" d="M219.648,114.916 C217.062,114.993 219.772,111.54 217.574,110.174 "/>
</g>

<g fill="none" stroke="#000000" stroke-opacity="1" stroke-width="1" stroke-linecap="square" stroke-linejoin="bevel" transform="matrix(7.23034,0,0,7.23034,-75.483,-75.483)"
font-family="Helvetica" font-size="12" font-weight="400" font-style="normal" 
>
</g>

<g fill="none" stroke="#000000" stroke-opacity="1" stroke-width="1" stroke-linecap="square" stroke-linejoin="bevel" transform="matrix(7.23034,0,0,7.23034,-75.483,-75.483)"
font-family="Helvetica" font-size="12" font-weight="400" font-style="normal" 
>
</g>

<g fill="#ca62b2" fill-opacity="1" stroke="none" transform="matrix(7.23034,0,0,7.23034,-75.483,-75.483)"
font-family="Helvetica" font-size="12" font-weight="400" font-style="normal" 
>
<path vector-effect="none" fill-rule="nonzero" d="M216.037,112.649 L200.907,103.25 L202.444,100.776 L200.991,103.3 L185.784,94.5479 L187.237,92.0233 L185.923,94.6228 L170.029,86.5881 L171.343,83.9885 L170.202,86.6683 L153.51,79.5568 L154.651,76.877 L153.726,79.6388 L135.782,73.6226 L137.634,68.0991 L155.577,74.1152 C155.652,74.1394 155.724,74.1668 155.794,74.1967 L155.793,74.1972 L172.485,81.3087 C172.545,81.3332 172.602,81.36 172.658,81.3884 L172.658,81.3889 L188.551,89.4237 C188.599,89.4471 188.645,89.4722 188.691,89.4983 L188.69,89.4987 L203.897,98.251 C203.926,98.2671 203.954,98.2839 203.982,98.301 L203.981,98.3013 L219.111,107.7 L216.037,112.649"/>
</g>

<g fill="none" stroke="#000000" stroke-opacity="1" stroke-width="0.3" stroke-linecap="square" stroke-linejoin="round" transform="matrix(7.23034,0,0,7.23034,-75.483,-75.483)"
font-family="Helvetica" font-size="12" font-weight="400" font-style="normal" 
>
<path vector-effect="none" fill-rule="evenodd" d="M216.037,112.649 L200.949,103.276 L185.853,94.5872 L170.114,86.631 L153.616,79.6021 L135.782,73.6226 L137.634,68.0991 L155.577,74.1152 L155.687,74.1538 L155.794,74.1967 L155.793,74.1972 L172.485,81.3087 L172.573,81.3471 L172.658,81.3884 L172.658,81.3889 L188.551,89.4237 L188.622,89.46 L188.691,89.4983 L188.69,89.4987 L203.897,98.251 L203.94,98.2756 L203.982,98.301 L203.981,98.3013 L219.111,107.7 L216.037,112.649"/>
</g>

<g fill="none" stroke="#000000" stroke-opacity="1" stroke-width="1" stroke-linecap="square" stroke-linejoin="bevel" transform="matrix(7.23034,0,0,7.23034,-75.483,-75.483)"
font-family="Helvetica" font-size="12" font-weight="400" font-style="normal" 
>
</g>

<g fill="none" stroke="#000000" stroke-opacity="1" stroke-width="1" stroke-linecap="square" stroke-linejoin="bevel" transform="matrix(7.23034,0,0,7.23034,-75.483,-75.483)"
font-family="Helvetica" font-size="12" font-weight="400" font-style="normal" 
>
</g>

<g fill="#ca6291" fill-opacity="1" stroke="none" transform="matrix(7.23034,0,0,7.23034,-75.483,-75.483)"
font-family="Helvetica" font-size="12" font-weight="400" font-style="normal" 
>
<path vector-effect="none" fill-rule="nonzero" d="M219.575,112.487 L237.633,111.946 C237.657,111.945 237.681,111.945 237.706,111.945 C239.048,111.945 240.136,113.033 240.136,114.375 C240.136,115.717 239.048,116.805 237.706,116.805 C236.364,116.805 235.276,115.717 235.276,114.375 C235.276,113.421 235.825,112.596 236.625,112.198 L238.654,112.137 L253.486,118.423 C254.357,118.792 254.968,119.655 254.968,120.66 C254.968,121.07 254.866,121.457 254.687,121.795 L254.687,121.795 L247.571,135.269 C247.164,136.039 246.354,136.564 245.422,136.564 C244.912,136.564 244.439,136.406 244.048,136.138 L244.048,136.138 L230.745,127.012 C230.463,126.819 230.224,126.567 230.045,126.276 L230.046,126.275 L220.639,110.878 L224.786,108.344 L234.193,123.741 L232.119,125.008 L233.494,123.004 L246.797,132.13 L245.422,134.134 L243.274,132.999 L250.389,119.525 L252.538,120.66 L251.59,122.898 L236.758,116.612 L237.706,114.375 L237.779,116.804 L219.721,117.345 L219.575,112.487"/>
</g>

<g fill="none" stroke="#000000" stroke-opacity="1" stroke-width="0.3" stroke-linecap="square" stroke-linejoin="round" transform="matrix(7.23034,0,0,7.23034,-75.483,-75.483)"
font-family="Helvetica" font-size="12" font-weight="400" font-style="normal" 
>
<path vector-effect="none" fill-rule="evenodd" d="M219.575,112.487 L221.585,112.427 L220.639,110.878 L224.786,108.344 L227.178,112.259 L237.633,111.946 L237.669,111.945 L237.706,111.945 L238.203,112.151 L238.654,112.137 L253.486,118.423 L254.554,119.303 L254.968,120.66 L254.895,121.254 L254.687,121.795 L254.687,121.795 L247.571,135.269 L246.693,136.205 L245.422,136.564 L244.69,136.452 L244.048,136.138 L244.048,136.138 L230.745,127.012 L230.356,126.681 L230.045,126.276 L230.046,126.275 L224.502,117.201 L219.721,117.345 L219.575,112.487 M230.095,117.034 L233.922,123.298 L244.547,130.587 L249.154,121.865 L237.247,116.82 L230.095,117.034"/>
</g>

<g fill="none" stroke="#000000" stroke-opacity="1" stroke-width="1" stroke-linecap="square" stroke-linejoin="bevel" transform="matrix(7.23034,0,0,7.23034,-75.483,-75.483)"
font-family="Helvetica" font-size="12" font-weight="400" font-style="normal" 
>
</g>

<g fill="none" stroke="#000000" stroke-opacity="1" stroke-width="1" stroke-linecap="square" stroke-linejoin="bevel" transform="matrix(7.23034,0,0,7.23034,-75.483,-75.483)"
font-family="Helvetica" font-size="12" font-weight="400" font-style="normal" 
>
</g>

<g fill="#a262ca" fill-opacity="1" stroke="none" transform="matrix(7.23034,0,0,7.23034,-75.483,-75.483)"
font-family="Helvetica" font-size="12" font-weight="400" font-style="normal" 
>
<path vector-effect="none" fill-rule="nonzero" d="M132.36,67.6081 L119.321,50.9599 L121.204,49.4849 L119.575,51.2363 L104.844,37.5308 L106.474,35.7794 L105.372,37.9025 L88.1496,28.9608 L89.2519,26.8377 L89.0191,29.2186 L70.2239,27.3809 L70.4567,25 L71.2501,27.2569 L53.6537,33.4423 L52.8604,31.1854 L54.4605,32.9638 L40.607,45.4293 L39.0069,43.651 L41.0826,44.8402 L31.7955,61.051 L29.7197,59.8618 L32.0344,60.4659 L27.3206,78.5286 L25.0059,77.9245 L27.3981,77.9253 L27.3922,96.4574 L25,96.4566 L27.2883,95.7592 L32.6201,113.254 L30.3317,113.952 L32.1688,112.419 L43.7219,126.271 L41.8848,127.803 L42.6933,125.551 L59.5946,131.621 L58.7861,133.872 L58.336,131.523 L76.2684,128.087 L76.7185,130.436 L75.4478,128.41 L91.4561,118.374 L92.7268,120.401 L91.0677,118.677 L105.216,105.058 L106.875,106.781 L105.054,105.23 L118.22,89.7768 L120.041,91.3282 L118.196,89.8044 L131.637,73.5394 L135.325,76.587 L121.885,92.8521 C121.877,92.8614 121.869,92.8706 121.862,92.8797 L121.862,92.8797 L108.696,108.333 C108.645,108.393 108.591,108.45 108.534,108.505 L108.534,108.505 L94.3859,122.124 C94.2675,122.238 94.1375,122.34 93.9978,122.428 L93.9975,122.428 L77.9892,132.463 C77.7426,132.619 77.4656,132.73 77.1698,132.786 L77.1686,132.786 L59.2363,136.222 C59.0908,136.25 58.9402,136.264 58.7861,136.264 C58.502,136.264 58.2295,136.215 57.9771,136.124 L57.9776,136.124 L41.0763,130.054 C40.6713,129.909 40.3176,129.658 40.0477,129.335 L40.0477,129.335 L28.4946,115.484 C28.2924,115.242 28.1371,114.959 28.0431,114.65 L28.0434,114.649 L22.7117,97.154 C22.6439,96.9338 22.6078,96.6994 22.6078,96.4566 C22.6078,96.4564 22.6078,96.4561 22.6078,96.4559 L22.6078,96.4559 L22.6137,77.9237 C22.6137,77.7149 22.6406,77.5123 22.6907,77.3199 L22.6912,77.3204 L27.405,59.2578 C27.4587,59.0496 27.5397,58.8534 27.6437,58.6724 L27.644,58.6727 L36.9312,42.4618 C37.0577,42.2406 37.2187,42.0419 37.4067,41.8727 L37.4067,41.8727 L51.2603,29.4071 C51.4924,29.1981 51.7657,29.0339 52.0661,28.9283 L52.0671,28.9286 L69.6634,22.7431 C69.9113,22.6553 70.1784,22.6078 70.4567,22.6078 C71.7779,22.6078 72.849,23.6788 72.849,25 C72.849,26.3212 71.7779,27.3922 70.4567,27.3922 C69.1355,27.3922 68.0645,26.3212 68.0645,25 C68.0645,24.3292 68.3406,23.7229 68.7854,23.2885 L70.6895,22.6191 L89.4847,24.4568 C89.7966,24.4869 90.0902,24.5766 90.3546,24.7142 L90.3542,24.7146 L107.576,33.6563 C107.769,33.7561 107.946,33.8816 108.104,34.028 L108.104,34.028 L122.834,47.7335 C122.926,47.8188 123.011,47.9112 123.088,48.0098 L123.088,48.0099 L136.126,64.6581 L132.36,67.6081"/>
</g>

<g fill="none" stroke="#000000" stroke-opacity="1" stroke-width="0.3" stroke-linecap="square" stroke-linejoin="round" transform="matrix(7.23034,0,0,7.23034,-75.483,-75.483)"
font-family="Helvetica" font-size="12" font-weight="400" font-style="normal" 
>
<path vector-effect="none" fill-rule="evenodd" d="M132.36,67.6081 L119.437,51.1081 L105.083,37.7526 L88.5594,29.1736 L70.7507,27.4324 L54.105,33.2837 L40.892,45.1728 L31.9539,60.7744 L27.398,78.2319 L27.3923,96.1006 L32.4789,112.791 L43.3053,125.771 L58.9787,131.4 L75.8279,128.171 L91.2462,118.505 L105.131,105.14 L118.208,89.7905 L131.637,73.5394 L135.325,76.587 L121.885,92.8521 L121.873,92.866 L121.862,92.8797 L121.862,92.8797 L108.696,108.333 L108.617,108.421 L108.534,108.505 L108.534,108.505 L94.3859,122.124 L94.1998,122.286 L93.9978,122.428 L93.9975,122.428 L77.9892,132.463 L77.5979,132.662 L77.1698,132.786 L77.1686,132.786 L59.2363,136.222 L59.0144,136.254 L58.7861,136.264 L58.3697,136.228 L57.9771,136.124 L57.9776,136.124 L41.0763,130.054 L40.5113,129.762 L40.0477,129.335 L40.0477,129.335 L28.4946,115.484 L28.2283,115.092 L28.0431,114.65 L28.0434,114.649 L22.7117,97.154 L22.6343,96.8138 L22.6078,96.4566 L22.6078,96.4562 L22.6078,96.4559 L22.6137,77.9237 L22.6334,77.6157 L22.6907,77.3199 L22.6912,77.3204 L27.405,59.2578 L27.5055,58.9549 L27.6437,58.6724 L27.644,58.6727 L36.9312,42.4618 L37.1459,42.1477 L37.4067,41.8727 L37.4067,41.8727 L51.2603,29.4071 L51.6376,29.1289 L52.0661,28.9283 L52.0671,28.9286 L69.6634,22.7431 L70.0486,22.6425 L70.4567,22.6078 L70.5784,22.6582 L70.6895,22.6191 L89.4847,24.4568 L89.9374,24.5452 L90.3546,24.7142 L90.3542,24.7146 L107.576,33.6563 L107.853,33.8247 L108.104,34.028 L108.104,34.028 L122.834,47.7335 L122.966,47.8667 L123.088,48.0098 L123.088,48.0099 L136.126,64.6581 L132.36,67.6081"/>
</g>

<g fill="none" stroke="#000000" stroke-opacity="1" stroke-width="1" stroke-linecap="square" stroke-linejoin="bevel" transform="matrix(7.23034,0,0,7.23034,-75.483,-75.483)"
font-family="Helvetica" font-size="12" font-weight="400" font-style="normal" 
>
</g>

<g fill="none" stroke="#000000" stroke-opacity="1" stroke-width="1" stroke-linecap="square" stroke-linejoin="bevel" transform="matrix(1,0,0,1,0,0)"
font-family="Helvetica" font-size="12" font-weight="400" font-style="normal" 
>
</g>
</g>
</svg>
