<?xml version="1.0" encoding="UTF-8" standalone="no"?>
<svg width="508.353mm" height="352.778mm"
 viewBox="0 0 1441 1000"
 xmlns="http://www.w3.org/2000/svg" xmlns:xlink="http://www.w3.org/1999/xlink"  version="1.2" baseProfile="tiny">
<title>Qt SVG Document</title>
<desc>Generated with Qt</desc>
<defs>
</defs>
<g fill="none" stroke="black" stroke-width="1" fill-rule="evenodd" stroke-linecap="square" stroke-linejoin="bevel" >

<g fill="#ffffff" fill-opacity="1" stroke="none" transform="matrix(1,0,0,1,0,0)"
font-family="Helvetica" font-size="12" font-weight="400" font-style="normal" 
>
<rect x="0" y="0" width="1441" height="1000"/>
</g>

<g fill="none" stroke="#000000" stroke-opacity="1" stroke-width="1" stroke-linecap="square" stroke-linejoin="bevel" transform="matrix(1,0,0,1,0,0)"
font-family="Helvetica" font-size="12" font-weight="400" font-style="normal" 
>
</g>

<g fill="none" stroke="#000000" stroke-opacity="1" stroke-width="1" stroke-linecap="square" stroke-linejoin="bevel" transform="matrix(1,0,0,1,0,0)"
font-family="Helvetica" font-size="12" font-weight="400" font-style="normal" 
>
</g>

<g fill="none" stroke="#000000" stroke-opacity="1" stroke-width="1" stroke-linecap="square" stroke-linejoin="bevel" transform="matrix(6.08211,0,0,6.08211,-68.8925,-68.8925)"
font-family="Helvetica" font-size="12" font-weight="400" font-style="normal" 
>
</g>

<g fill="none" stroke="#000000" stroke-opacity="0.705882" stroke-width="1.5" stroke-linecap="round" stroke-linejoin="bevel" transform="matrix(6.08211,0,0,6.08211,-68.8925,-68.8925)"
font-family="Helvetica" font-size="12" font-weight="400" font-style="normal" 
>
<path vector-effect="none" fill-rule="evenodd" d="M63.0618,111.709 C58.5475,113.859 56.3979,109.344 63.4823,105.971 C70.5668,102.598 72.7164,107.112 68.202,109.262 "/>
</g>

<g fill="none" stroke="#000000" stroke-opacity="1" stroke-width="1" stroke-linecap="square" stroke-linejoin="bevel" transform="matrix(6.08211,0,0,6.08211,-68.8925,-68.8925)"
font-family="Helvetica" font-size="12" font-weight="400" font-style="normal" 
>
</g>

<g fill="none" stroke="#000000" stroke-opacity="1" stroke-width="1" stroke-linecap="square" stroke-linejoin="bevel" transform="matrix(6.08211,0,0,6.08211,-68.8925,-68.8925)"
font-family="Helvetica" font-size="12" font-weight="400" font-style="normal" 
>
</g>

<g fill="none" stroke="#000000" stroke-opacity="0.705882" stroke-width="1.5" stroke-linecap="round" stroke-linejoin="bevel" transform="matrix(6.08211,0,0,6.08211,-68.8925,-68.8925)"
font-family="Helvetica" font-size="12" font-weight="400" font-style="normal" 
>
<path vector-effect="none" fill-rule="evenodd" d="M63.0618,111.709 C60.905,112.736 57.5768,108.735 59.8895,108.137 "/>
</g>

<g fill="none" stroke="#000000" stroke-opacity="1" stroke-width="1" stroke-linecap="square" stroke-linejoin="bevel" transform="matrix(6.08211,0,0,6.08211,-68.8925,-68.8925)"
font-family="Helvetica" font-size="12" font-weight="400" font-style="normal" 
>
</g>

<g fill="none" stroke="#000000" stroke-opacity="1" stroke-width="1" stroke-linecap="square" stroke-linejoin="bevel" transform="matrix(6.08211,0,0,6.08211,-68.8925,-68.8925)"
font-family="Helvetica" font-size="12" font-weight="400" font-style="normal" 
>
</g>

<g fill="none" stroke="#000000" stroke-opacity="0.705882" stroke-width="1.5" stroke-linecap="round" stroke-linejoin="bevel" transform="matrix(6.08211,0,0,6.08211,-68.8925,-68.8925)"
font-family="Helvetica" font-size="12" font-weight="400" font-style="normal" 
>
<path vector-effect="none" fill-rule="evenodd" d="M63.0618,111.709 C60.4582,112.949 62.4356,108.499 60.1645,106.722 "/>
</g>

<g fill="none" stroke="#000000" stroke-opacity="1" stroke-width="1" stroke-linecap="square" stroke-linejoin="bevel" transform="matrix(6.08211,0,0,6.08211,-68.8925,-68.8925)"
font-family="Helvetica" font-size="12" font-weight="400" font-style="normal" 
>
</g>

<g fill="none" stroke="#000000" stroke-opacity="1" stroke-width="1" stroke-linecap="square" stroke-linejoin="bevel" transform="matrix(6.08211,0,0,6.08211,-68.8925,-68.8925)"
font-family="Helvetica" font-size="12" font-weight="400" font-style="normal" 
>
</g>

<g fill="none" stroke="#000000" stroke-opacity="0.705882" stroke-width="1.5" stroke-linecap="round" stroke-linejoin="bevel" transform="matrix(6.08211,0,0,6.08211,-68.8925,-68.8925)"
font-family="Helvetica" font-size="12" font-weight="400" font-style="normal" 
>
<path vector-effect="none" fill-rule="evenodd" d="M63.0618,111.709 C60.878,112.749 70.1867,110.695 67.7699,110.598 "/>
</g>

<g fill="none" stroke="#000000" stroke-opacity="1" stroke-width="1" stroke-linecap="square" stroke-linejoin="bevel" transform="matrix(6.08211,0,0,6.08211,-68.8925,-68.8925)"
font-family="Helvetica" font-size="12" font-weight="400" font-style="normal" 
>
</g>

<g fill="none" stroke="#000000" stroke-opacity="1" stroke-width="1" stroke-linecap="square" stroke-linejoin="bevel" transform="matrix(6.08211,0,0,6.08211,-68.8925,-68.8925)"
font-family="Helvetica" font-size="12" font-weight="400" font-style="normal" 
>
</g>

<g fill="none" stroke="#000000" stroke-opacity="0.705882" stroke-width="1.5" stroke-linecap="round" stroke-linejoin="bevel" transform="matrix(6.08211,0,0,6.08211,-68.8925,-68.8925)"
font-family="Helvetica" font-size="12" font-weight="400" font-style="normal" 
>
<path vector-effect="none" fill-rule="evenodd" d="M64.5722,106.925 C66.6618,106.384 70.1508,108.334 68.202,109.262 "/>
</g>

<g fill="none" stroke="#000000" stroke-opacity="1" stroke-width="1" stroke-linecap="square" stroke-linejoin="bevel" transform="matrix(6.08211,0,0,6.08211,-68.8925,-68.8925)"
font-family="Helvetica" font-size="12" font-weight="400" font-style="normal" 
>
</g>

<g fill="none" stroke="#000000" stroke-opacity="1" stroke-width="1" stroke-linecap="square" stroke-linejoin="bevel" transform="matrix(6.08211,0,0,6.08211,-68.8925,-68.8925)"
font-family="Helvetica" font-size="12" font-weight="400" font-style="normal" 
>
</g>

<g fill="none" stroke="#000000" stroke-opacity="0.705882" stroke-width="1.5" stroke-linecap="round" stroke-linejoin="bevel" transform="matrix(6.08211,0,0,6.08211,-68.8925,-68.8925)"
font-family="Helvetica" font-size="12" font-weight="400" font-style="normal" 
>
<path vector-effect="none" fill-rule="evenodd" d="M64.5722,106.925 C69.4128,105.673 70.6652,110.513 63.4832,112.371 C56.3013,114.23 55.0489,109.389 59.8895,108.137 "/>
</g>

<g fill="none" stroke="#000000" stroke-opacity="1" stroke-width="1" stroke-linecap="square" stroke-linejoin="bevel" transform="matrix(6.08211,0,0,6.08211,-68.8925,-68.8925)"
font-family="Helvetica" font-size="12" font-weight="400" font-style="normal" 
>
</g>

<g fill="none" stroke="#000000" stroke-opacity="1" stroke-width="1" stroke-linecap="square" stroke-linejoin="bevel" transform="matrix(6.08211,0,0,6.08211,-68.8925,-68.8925)"
font-family="Helvetica" font-size="12" font-weight="400" font-style="normal" 
>
</g>

<g fill="none" stroke="#000000" stroke-opacity="0.705882" stroke-width="1.5" stroke-linecap="round" stroke-linejoin="bevel" transform="matrix(6.08211,0,0,6.08211,-68.8925,-68.8925)"
font-family="Helvetica" font-size="12" font-weight="400" font-style="normal" 
>
<path vector-effect="none" fill-rule="evenodd" d="M64.5722,106.925 C66.708,106.372 61.902,108.082 60.1645,106.722 "/>
</g>

<g fill="none" stroke="#000000" stroke-opacity="1" stroke-width="1" stroke-linecap="square" stroke-linejoin="bevel" transform="matrix(6.08211,0,0,6.08211,-68.8925,-68.8925)"
font-family="Helvetica" font-size="12" font-weight="400" font-style="normal" 
>
</g>

<g fill="none" stroke="#000000" stroke-opacity="1" stroke-width="1" stroke-linecap="square" stroke-linejoin="bevel" transform="matrix(6.08211,0,0,6.08211,-68.8925,-68.8925)"
font-family="Helvetica" font-size="12" font-weight="400" font-style="normal" 
>
</g>

<g fill="none" stroke="#000000" stroke-opacity="0.705882" stroke-width="1.5" stroke-linecap="round" stroke-linejoin="bevel" transform="matrix(6.08211,0,0,6.08211,-68.8925,-68.8925)"
font-family="Helvetica" font-size="12" font-weight="400" font-style="normal" 
>
<path vector-effect="none" fill-rule="evenodd" d="M64.5722,106.925 C66.9296,106.315 70.203,110.695 67.7699,110.598 "/>
</g>

<g fill="none" stroke="#000000" stroke-opacity="1" stroke-width="1" stroke-linecap="square" stroke-linejoin="bevel" transform="matrix(6.08211,0,0,6.08211,-68.8925,-68.8925)"
font-family="Helvetica" font-size="12" font-weight="400" font-style="normal" 
>
</g>

<g fill="none" stroke="#000000" stroke-opacity="1" stroke-width="1" stroke-linecap="square" stroke-linejoin="bevel" transform="matrix(6.08211,0,0,6.08211,-68.8925,-68.8925)"
font-family="Helvetica" font-size="12" font-weight="400" font-style="normal" 
>
</g>

<g fill="none" stroke="#000000" stroke-opacity="0.705882" stroke-width="1.5" stroke-linecap="round" stroke-linejoin="bevel" transform="matrix(6.08211,0,0,6.08211,-68.8925,-68.8925)"
font-family="Helvetica" font-size="12" font-weight="400" font-style="normal" 
>
<path vector-effect="none" fill-rule="evenodd" d="M129.586,55.2199 C131.863,56.6323 132.644,53.9405 134.945,55.3151 "/>
</g>

<g fill="none" stroke="#000000" stroke-opacity="1" stroke-width="1" stroke-linecap="square" stroke-linejoin="bevel" transform="matrix(6.08211,0,0,6.08211,-68.8925,-68.8925)"
font-family="Helvetica" font-size="12" font-weight="400" font-style="normal" 
>
</g>

<g fill="none" stroke="#000000" stroke-opacity="1" stroke-width="1" stroke-linecap="square" stroke-linejoin="bevel" transform="matrix(6.08211,0,0,6.08211,-68.8925,-68.8925)"
font-family="Helvetica" font-size="12" font-weight="400" font-style="normal" 
>
</g>

<g fill="none" stroke="#000000" stroke-opacity="0.705882" stroke-width="1.5" stroke-linecap="round" stroke-linejoin="bevel" transform="matrix(6.08211,0,0,6.08211,-68.8925,-68.8925)"
font-family="Helvetica" font-size="12" font-weight="400" font-style="normal" 
>
<path vector-effect="none" fill-rule="evenodd" d="M129.586,55.2199 C131.691,56.5255 132.174,55.8133 133.98,57.5097 "/>
</g>

<g fill="none" stroke="#000000" stroke-opacity="1" stroke-width="1" stroke-linecap="square" stroke-linejoin="bevel" transform="matrix(6.08211,0,0,6.08211,-68.8925,-68.8925)"
font-family="Helvetica" font-size="12" font-weight="400" font-style="normal" 
>
</g>

<g fill="none" stroke="#000000" stroke-opacity="1" stroke-width="1" stroke-linecap="square" stroke-linejoin="bevel" transform="matrix(6.08211,0,0,6.08211,-68.8925,-68.8925)"
font-family="Helvetica" font-size="12" font-weight="400" font-style="normal" 
>
</g>

<g fill="none" stroke="#000000" stroke-opacity="0.705882" stroke-width="1.5" stroke-linecap="round" stroke-linejoin="bevel" transform="matrix(6.08211,0,0,6.08211,-68.8925,-68.8925)"
font-family="Helvetica" font-size="12" font-weight="400" font-style="normal" 
>
<path vector-effect="none" fill-rule="evenodd" d="M139.063,57.7758 C143.355,60.3405 140.79,64.6326 134.439,60.8375 C128.088,57.0425 130.653,52.7504 134.945,55.3151 "/>
</g>

<g fill="none" stroke="#000000" stroke-opacity="1" stroke-width="1" stroke-linecap="square" stroke-linejoin="bevel" transform="matrix(6.08211,0,0,6.08211,-68.8925,-68.8925)"
font-family="Helvetica" font-size="12" font-weight="400" font-style="normal" 
>
</g>

<g fill="none" stroke="#000000" stroke-opacity="1" stroke-width="1" stroke-linecap="square" stroke-linejoin="bevel" transform="matrix(6.08211,0,0,6.08211,-68.8925,-68.8925)"
font-family="Helvetica" font-size="12" font-weight="400" font-style="normal" 
>
</g>

<g fill="none" stroke="#000000" stroke-opacity="0.705882" stroke-width="1.5" stroke-linecap="round" stroke-linejoin="bevel" transform="matrix(6.08211,0,0,6.08211,-68.8925,-68.8925)"
font-family="Helvetica" font-size="12" font-weight="400" font-style="normal" 
>
<path vector-effect="none" fill-rule="evenodd" d="M139.063,57.7758 C141.248,59.0812 132.125,55.7667 133.98,57.5097 "/>
</g>

<g fill="none" stroke="#000000" stroke-opacity="1" stroke-width="1" stroke-linecap="square" stroke-linejoin="bevel" transform="matrix(6.08211,0,0,6.08211,-68.8925,-68.8925)"
font-family="Helvetica" font-size="12" font-weight="400" font-style="normal" 
>
</g>

<g fill="none" stroke="#000000" stroke-opacity="1" stroke-width="1" stroke-linecap="square" stroke-linejoin="bevel" transform="matrix(6.08211,0,0,6.08211,-68.8925,-68.8925)"
font-family="Helvetica" font-size="12" font-weight="400" font-style="normal" 
>
</g>

<g fill="none" stroke="#000000" stroke-opacity="0.705882" stroke-width="1.5" stroke-linecap="round" stroke-linejoin="bevel" transform="matrix(6.08211,0,0,6.08211,-68.8925,-68.8925)"
font-family="Helvetica" font-size="12" font-weight="400" font-style="normal" 
>
<path vector-effect="none" fill-rule="evenodd" d="M63.4682,110.426 C61.0326,110.329 70.4028,108.214 68.202,109.262 "/>
</g>

<g fill="none" stroke="#000000" stroke-opacity="1" stroke-width="1" stroke-linecap="square" stroke-linejoin="bevel" transform="matrix(6.08211,0,0,6.08211,-68.8925,-68.8925)"
font-family="Helvetica" font-size="12" font-weight="400" font-style="normal" 
>
</g>

<g fill="none" stroke="#000000" stroke-opacity="1" stroke-width="1" stroke-linecap="square" stroke-linejoin="bevel" transform="matrix(6.08211,0,0,6.08211,-68.8925,-68.8925)"
font-family="Helvetica" font-size="12" font-weight="400" font-style="normal" 
>
</g>

<g fill="none" stroke="#000000" stroke-opacity="0.705882" stroke-width="1.5" stroke-linecap="round" stroke-linejoin="bevel" transform="matrix(6.08211,0,0,6.08211,-68.8925,-68.8925)"
font-family="Helvetica" font-size="12" font-weight="400" font-style="normal" 
>
<path vector-effect="none" fill-rule="evenodd" d="M63.4682,110.426 C61.3456,110.342 57.8329,108.669 59.8895,108.137 "/>
</g>

<g fill="none" stroke="#000000" stroke-opacity="1" stroke-width="1" stroke-linecap="square" stroke-linejoin="bevel" transform="matrix(6.08211,0,0,6.08211,-68.8925,-68.8925)"
font-family="Helvetica" font-size="12" font-weight="400" font-style="normal" 
>
</g>

<g fill="none" stroke="#000000" stroke-opacity="1" stroke-width="1" stroke-linecap="square" stroke-linejoin="bevel" transform="matrix(6.08211,0,0,6.08211,-68.8925,-68.8925)"
font-family="Helvetica" font-size="12" font-weight="400" font-style="normal" 
>
</g>

<g fill="none" stroke="#000000" stroke-opacity="0.705882" stroke-width="1.5" stroke-linecap="round" stroke-linejoin="bevel" transform="matrix(6.08211,0,0,6.08211,-68.8925,-68.8925)"
font-family="Helvetica" font-size="12" font-weight="400" font-style="normal" 
>
<path vector-effect="none" fill-rule="evenodd" d="M63.4682,110.426 C60.9885,110.327 62.119,108.252 60.1645,106.722 "/>
</g>

<g fill="none" stroke="#000000" stroke-opacity="1" stroke-width="1" stroke-linecap="square" stroke-linejoin="bevel" transform="matrix(6.08211,0,0,6.08211,-68.8925,-68.8925)"
font-family="Helvetica" font-size="12" font-weight="400" font-style="normal" 
>
</g>

<g fill="none" stroke="#000000" stroke-opacity="1" stroke-width="1" stroke-linecap="square" stroke-linejoin="bevel" transform="matrix(6.08211,0,0,6.08211,-68.8925,-68.8925)"
font-family="Helvetica" font-size="12" font-weight="400" font-style="normal" 
>
</g>

<g fill="none" stroke="#000000" stroke-opacity="0.705882" stroke-width="1.5" stroke-linecap="round" stroke-linejoin="bevel" transform="matrix(6.08211,0,0,6.08211,-68.8925,-68.8925)"
font-family="Helvetica" font-size="12" font-weight="400" font-style="normal" 
>
<path vector-effect="none" fill-rule="evenodd" d="M63.4682,110.426 C58.4722,110.227 58.6717,105.231 65.8186,105.516 C72.9654,105.802 72.7659,110.798 67.7699,110.598 "/>
</g>

<g fill="none" stroke="#000000" stroke-opacity="1" stroke-width="1" stroke-linecap="square" stroke-linejoin="bevel" transform="matrix(6.08211,0,0,6.08211,-68.8925,-68.8925)"
font-family="Helvetica" font-size="12" font-weight="400" font-style="normal" 
>
</g>

<g fill="none" stroke="#000000" stroke-opacity="1" stroke-width="1" stroke-linecap="square" stroke-linejoin="bevel" transform="matrix(6.08211,0,0,6.08211,-68.8925,-68.8925)"
font-family="Helvetica" font-size="12" font-weight="400" font-style="normal" 
>
</g>

<g fill="none" stroke="#000000" stroke-opacity="0.705882" stroke-width="1.5" stroke-linecap="round" stroke-linejoin="bevel" transform="matrix(6.08211,0,0,6.08211,-68.8925,-68.8925)"
font-family="Helvetica" font-size="12" font-weight="400" font-style="normal" 
>
<path vector-effect="none" fill-rule="evenodd" d="M202.931,105.845 C205.302,106.534 204.346,108.861 206.814,108.895 "/>
</g>

<g fill="none" stroke="#000000" stroke-opacity="1" stroke-width="1" stroke-linecap="square" stroke-linejoin="bevel" transform="matrix(6.08211,0,0,6.08211,-68.8925,-68.8925)"
font-family="Helvetica" font-size="12" font-weight="400" font-style="normal" 
>
</g>

<g fill="none" stroke="#000000" stroke-opacity="1" stroke-width="1" stroke-linecap="square" stroke-linejoin="bevel" transform="matrix(6.08211,0,0,6.08211,-68.8925,-68.8925)"
font-family="Helvetica" font-size="12" font-weight="400" font-style="normal" 
>
</g>

<g fill="none" stroke="#000000" stroke-opacity="0.705882" stroke-width="1.5" stroke-linecap="round" stroke-linejoin="bevel" transform="matrix(6.08211,0,0,6.08211,-68.8925,-68.8925)"
font-family="Helvetica" font-size="12" font-weight="400" font-style="normal" 
>
<path vector-effect="none" fill-rule="evenodd" d="M64.9851,105.589 C64.3303,107.94 70.4062,108.212 68.202,109.262 "/>
</g>

<g fill="none" stroke="#000000" stroke-opacity="1" stroke-width="1" stroke-linecap="square" stroke-linejoin="bevel" transform="matrix(6.08211,0,0,6.08211,-68.8925,-68.8925)"
font-family="Helvetica" font-size="12" font-weight="400" font-style="normal" 
>
</g>

<g fill="none" stroke="#000000" stroke-opacity="1" stroke-width="1" stroke-linecap="square" stroke-linejoin="bevel" transform="matrix(6.08211,0,0,6.08211,-68.8925,-68.8925)"
font-family="Helvetica" font-size="12" font-weight="400" font-style="normal" 
>
</g>

<g fill="none" stroke="#000000" stroke-opacity="0.705882" stroke-width="1.5" stroke-linecap="round" stroke-linejoin="bevel" transform="matrix(6.08211,0,0,6.08211,-68.8925,-68.8925)"
font-family="Helvetica" font-size="12" font-weight="400" font-style="normal" 
>
<path vector-effect="none" fill-rule="evenodd" d="M64.9851,105.589 C64.2211,108.333 57.1317,108.85 59.8895,108.137 "/>
</g>

<g fill="none" stroke="#000000" stroke-opacity="1" stroke-width="1" stroke-linecap="square" stroke-linejoin="bevel" transform="matrix(6.08211,0,0,6.08211,-68.8925,-68.8925)"
font-family="Helvetica" font-size="12" font-weight="400" font-style="normal" 
>
</g>

<g fill="none" stroke="#000000" stroke-opacity="1" stroke-width="1" stroke-linecap="square" stroke-linejoin="bevel" transform="matrix(6.08211,0,0,6.08211,-68.8925,-68.8925)"
font-family="Helvetica" font-size="12" font-weight="400" font-style="normal" 
>
</g>

<g fill="none" stroke="#000000" stroke-opacity="0.705882" stroke-width="1.5" stroke-linecap="round" stroke-linejoin="bevel" transform="matrix(6.08211,0,0,6.08211,-68.8925,-68.8925)"
font-family="Helvetica" font-size="12" font-weight="400" font-style="normal" 
>
<path vector-effect="none" fill-rule="evenodd" d="M64.9851,105.589 C64.321,107.974 62.1146,108.248 60.1645,106.722 "/>
</g>

<g fill="none" stroke="#000000" stroke-opacity="1" stroke-width="1" stroke-linecap="square" stroke-linejoin="bevel" transform="matrix(6.08211,0,0,6.08211,-68.8925,-68.8925)"
font-family="Helvetica" font-size="12" font-weight="400" font-style="normal" 
>
</g>

<g fill="none" stroke="#000000" stroke-opacity="1" stroke-width="1" stroke-linecap="square" stroke-linejoin="bevel" transform="matrix(6.08211,0,0,6.08211,-68.8925,-68.8925)"
font-family="Helvetica" font-size="12" font-weight="400" font-style="normal" 
>
</g>

<g fill="none" stroke="#000000" stroke-opacity="0.705882" stroke-width="1.5" stroke-linecap="round" stroke-linejoin="bevel" transform="matrix(6.08211,0,0,6.08211,-68.8925,-68.8925)"
font-family="Helvetica" font-size="12" font-weight="400" font-style="normal" 
>
<path vector-effect="none" fill-rule="evenodd" d="M64.9851,105.589 C64.2165,108.349 70.6334,110.713 67.7699,110.598 "/>
</g>

<g fill="none" stroke="#000000" stroke-opacity="1" stroke-width="1" stroke-linecap="square" stroke-linejoin="bevel" transform="matrix(6.08211,0,0,6.08211,-68.8925,-68.8925)"
font-family="Helvetica" font-size="12" font-weight="400" font-style="normal" 
>
</g>

<g fill="none" stroke="#000000" stroke-opacity="1" stroke-width="1" stroke-linecap="square" stroke-linejoin="bevel" transform="matrix(6.08211,0,0,6.08211,-68.8925,-68.8925)"
font-family="Helvetica" font-size="12" font-weight="400" font-style="normal" 
>
</g>

<g fill="none" stroke="#000000" stroke-opacity="0.705882" stroke-width="1.5" stroke-linecap="round" stroke-linejoin="bevel" transform="matrix(6.08211,0,0,6.08211,-68.8925,-68.8925)"
font-family="Helvetica" font-size="12" font-weight="400" font-style="normal" 
>
<path vector-effect="none" fill-rule="evenodd" d="M206.193,102.177 C204.204,103.616 205.288,106.53 202.931,105.845 "/>
</g>

<g fill="none" stroke="#000000" stroke-opacity="1" stroke-width="1" stroke-linecap="square" stroke-linejoin="bevel" transform="matrix(6.08211,0,0,6.08211,-68.8925,-68.8925)"
font-family="Helvetica" font-size="12" font-weight="400" font-style="normal" 
>
</g>

<g fill="none" stroke="#000000" stroke-opacity="1" stroke-width="1" stroke-linecap="square" stroke-linejoin="bevel" transform="matrix(6.08211,0,0,6.08211,-68.8925,-68.8925)"
font-family="Helvetica" font-size="12" font-weight="400" font-style="normal" 
>
</g>

<g fill="none" stroke="#000000" stroke-opacity="0.705882" stroke-width="1.5" stroke-linecap="round" stroke-linejoin="bevel" transform="matrix(6.08211,0,0,6.08211,-68.8925,-68.8925)"
font-family="Helvetica" font-size="12" font-weight="400" font-style="normal" 
>
<path vector-effect="none" fill-rule="evenodd" d="M132.458,52.1625 C133.592,53.8193 133.221,54.2852 134.945,55.3151 "/>
</g>

<g fill="none" stroke="#000000" stroke-opacity="1" stroke-width="1" stroke-linecap="square" stroke-linejoin="bevel" transform="matrix(6.08211,0,0,6.08211,-68.8925,-68.8925)"
font-family="Helvetica" font-size="12" font-weight="400" font-style="normal" 
>
</g>

<g fill="none" stroke="#000000" stroke-opacity="1" stroke-width="1" stroke-linecap="square" stroke-linejoin="bevel" transform="matrix(6.08211,0,0,6.08211,-68.8925,-68.8925)"
font-family="Helvetica" font-size="12" font-weight="400" font-style="normal" 
>
</g>

<g fill="none" stroke="#000000" stroke-opacity="0.705882" stroke-width="1.5" stroke-linecap="round" stroke-linejoin="bevel" transform="matrix(6.08211,0,0,6.08211,-68.8925,-68.8925)"
font-family="Helvetica" font-size="12" font-weight="400" font-style="normal" 
>
<path vector-effect="none" fill-rule="evenodd" d="M132.458,52.1625 C134.028,54.4564 131.954,55.6061 133.98,57.5097 "/>
</g>

<g fill="none" stroke="#000000" stroke-opacity="1" stroke-width="1" stroke-linecap="square" stroke-linejoin="bevel" transform="matrix(6.08211,0,0,6.08211,-68.8925,-68.8925)"
font-family="Helvetica" font-size="12" font-weight="400" font-style="normal" 
>
</g>

<g fill="none" stroke="#000000" stroke-opacity="1" stroke-width="1" stroke-linecap="square" stroke-linejoin="bevel" transform="matrix(6.08211,0,0,6.08211,-68.8925,-68.8925)"
font-family="Helvetica" font-size="12" font-weight="400" font-style="normal" 
>
</g>

<g fill="#62b4ca" fill-opacity="1" stroke="none" transform="matrix(6.08211,0,0,6.08211,-68.8925,-68.8925)"
font-family="Helvetica" font-size="12" font-weight="400" font-style="normal" 
>
<path vector-effect="none" fill-rule="nonzero" d="M67.6759,112.953 L63.3742,112.782 L63.5623,108.071 L67.864,108.243 L67.6759,112.953"/>
</g>

<g fill="none" stroke="#000000" stroke-opacity="1" stroke-width="0.3" stroke-linecap="square" stroke-linejoin="round" transform="matrix(6.08211,0,0,6.08211,-68.8925,-68.8925)"
font-family="Helvetica" font-size="12" font-weight="400" font-style="normal" 
>
<path vector-effect="none" fill-rule="evenodd" d="M67.6759,112.953 L63.3742,112.782 L63.5623,108.071 L67.864,108.243 L67.6759,112.953"/>
</g>

<g fill="none" stroke="#000000" stroke-opacity="1" stroke-width="1" stroke-linecap="square" stroke-linejoin="bevel" transform="matrix(6.08211,0,0,6.08211,-68.8925,-68.8925)"
font-family="Helvetica" font-size="12" font-weight="400" font-style="normal" 
>
</g>

<g fill="none" stroke="#000000" stroke-opacity="1" stroke-width="1" stroke-linecap="square" stroke-linejoin="bevel" transform="matrix(6.08211,0,0,6.08211,-68.8925,-68.8925)"
font-family="Helvetica" font-size="12" font-weight="400" font-style="normal" 
>
</g>

<g fill="#629dca" fill-opacity="1" stroke="none" transform="matrix(6.08211,0,0,6.08211,-68.8925,-68.8925)"
font-family="Helvetica" font-size="12" font-weight="400" font-style="normal" 
>
<path vector-effect="none" fill-rule="nonzero" d="M69.217,111.393 L64.0768,113.841 L62.0468,109.578 L67.187,107.13 L69.217,111.393"/>
</g>

<g fill="none" stroke="#000000" stroke-opacity="1" stroke-width="0.3" stroke-linecap="square" stroke-linejoin="round" transform="matrix(6.08211,0,0,6.08211,-68.8925,-68.8925)"
font-family="Helvetica" font-size="12" font-weight="400" font-style="normal" 
>
<path vector-effect="none" fill-rule="evenodd" d="M69.217,111.393 L64.0768,113.841 L62.0468,109.578 L67.187,107.13 L69.217,111.393"/>
</g>

<g fill="none" stroke="#000000" stroke-opacity="1" stroke-width="1" stroke-linecap="square" stroke-linejoin="bevel" transform="matrix(6.08211,0,0,6.08211,-68.8925,-68.8925)"
font-family="Helvetica" font-size="12" font-weight="400" font-style="normal" 
>
</g>

<g fill="none" stroke="#000000" stroke-opacity="1" stroke-width="1" stroke-linecap="square" stroke-linejoin="bevel" transform="matrix(6.08211,0,0,6.08211,-68.8925,-68.8925)"
font-family="Helvetica" font-size="12" font-weight="400" font-style="normal" 
>
</g>

<g fill="#ca62b9" fill-opacity="1" stroke="none" transform="matrix(6.08211,0,0,6.08211,-68.8925,-68.8925)"
font-family="Helvetica" font-size="12" font-weight="400" font-style="normal" 
>
<path vector-effect="none" fill-rule="nonzero" d="M59.2993,105.856 L63.982,104.644 L65.1623,109.206 L60.4796,110.418 L59.2993,105.856"/>
</g>

<g fill="none" stroke="#000000" stroke-opacity="1" stroke-width="0.3" stroke-linecap="square" stroke-linejoin="round" transform="matrix(6.08211,0,0,6.08211,-68.8925,-68.8925)"
font-family="Helvetica" font-size="12" font-weight="400" font-style="normal" 
>
<path vector-effect="none" fill-rule="evenodd" d="M59.2993,105.856 L63.982,104.644 L65.1623,109.206 L60.4796,110.418 L59.2993,105.856"/>
</g>

<g fill="none" stroke="#000000" stroke-opacity="1" stroke-width="1" stroke-linecap="square" stroke-linejoin="bevel" transform="matrix(6.08211,0,0,6.08211,-68.8925,-68.8925)"
font-family="Helvetica" font-size="12" font-weight="400" font-style="normal" 
>
</g>

<g fill="none" stroke="#000000" stroke-opacity="1" stroke-width="1" stroke-linecap="square" stroke-linejoin="bevel" transform="matrix(6.08211,0,0,6.08211,-68.8925,-68.8925)"
font-family="Helvetica" font-size="12" font-weight="400" font-style="normal" 
>
</g>

<g fill="#9162ca" fill-opacity="1" stroke="none" transform="matrix(6.08211,0,0,6.08211,-68.8925,-68.8925)"
font-family="Helvetica" font-size="12" font-weight="400" font-style="normal" 
>
<path vector-effect="none" fill-rule="nonzero" d="M58.6833,108.615 L40.89,94.6935 C40.7197,94.5602 40.568,94.4044 40.4391,94.2307 L40.4392,94.2305 L27.9333,77.3355 C27.7487,77.0868 27.6111,76.801 27.5337,76.4921 L27.534,76.491 L22.6687,57.1185 C22.6213,56.9315 22.5963,56.7352 22.5963,56.5331 C22.5963,56.2781 22.636,56.0325 22.7094,55.8025 L22.7099,55.8031 L28.5766,37.3983 C28.7368,36.8938 29.0586,36.4625 29.481,36.164 L29.4811,36.1641 L45.4235,24.9179 C45.7586,24.6808 46.1572,24.5275 46.5881,24.4883 L46.5889,24.4884 L67.0521,22.6064 C67.1245,22.5997 67.1979,22.5963 67.2722,22.5963 C68.5997,22.5963 69.6759,23.6725 69.6759,25 C69.6759,26.3275 68.5997,27.4037 67.2722,27.4037 C65.9447,27.4037 64.8686,26.3275 64.8686,25 C64.8686,24.0376 65.4341,23.2074 66.2508,22.8235 L67.8789,22.6742 L89.2249,28.2424 C89.4406,28.2981 89.6435,28.3829 89.8302,28.4921 L89.8299,28.4924 L110.564,40.5952 C110.582,40.6059 110.601,40.6169 110.619,40.6282 L110.619,40.6284 L130.853,53.1772 L128.319,57.2627 L108.085,44.7138 L109.352,42.6711 L108.14,44.747 L87.4064,32.6441 L88.6182,30.5683 L88.0115,32.8941 L66.6655,27.3258 L67.2722,25 L67.4924,27.3936 L47.0292,29.2755 L46.8091,26.882 L48.1946,28.8461 L32.2523,40.0924 L30.8667,38.1283 L33.1568,38.8583 L27.2901,57.2631 L25,56.5331 L27.3313,55.9476 L32.1966,75.32 L29.8653,75.9055 L31.7973,74.4754 L44.3032,91.3704 L42.3712,92.8005 L43.8524,90.9074 L61.6457,104.829 L58.6833,108.615"/>
</g>

<g fill="none" stroke="#000000" stroke-opacity="1" stroke-width="0.3" stroke-linecap="square" stroke-linejoin="round" transform="matrix(6.08211,0,0,6.08211,-68.8925,-68.8925)"
font-family="Helvetica" font-size="12" font-weight="400" font-style="normal" 
>
<path vector-effect="none" fill-rule="evenodd" d="M58.6833,108.615 L40.89,94.6935 L40.649,94.4773 L40.4391,94.2307 L40.4392,94.2305 L27.9333,77.3355 L27.6933,76.9364 L27.5337,76.4921 L27.534,76.491 L22.6687,57.1185 L22.6147,56.8315 L22.5963,56.5331 L22.6253,56.1584 L22.7094,55.8025 L22.7099,55.8031 L28.5766,37.3983 L28.9305,36.7039 L29.481,36.164 L29.4811,36.1641 L45.4235,24.9179 L45.9699,24.6289 L46.5881,24.4883 L46.5889,24.4884 L67.0521,22.6064 L67.1614,22.5989 L67.2722,22.5963 L67.5361,22.7056 L67.8789,22.6742 L89.2249,28.2424 L89.5385,28.3472 L89.8302,28.4921 L89.8299,28.4924 L110.564,40.5952 L110.592,40.6115 L110.619,40.6282 L110.619,40.6284 L130.853,53.1772 L128.319,57.2627 L108.112,44.7308 L87.6918,32.8107 L67.073,27.4321 L47.6693,29.2167 L32.9117,39.6272 L27.4979,56.6112 L32.0806,74.8581 L44.1092,91.1083 L61.6457,104.829 L58.6833,108.615"/>
</g>

<g fill="none" stroke="#000000" stroke-opacity="1" stroke-width="1" stroke-linecap="square" stroke-linejoin="bevel" transform="matrix(6.08211,0,0,6.08211,-68.8925,-68.8925)"
font-family="Helvetica" font-size="12" font-weight="400" font-style="normal" 
>
</g>

<g fill="none" stroke="#000000" stroke-opacity="1" stroke-width="1" stroke-linecap="square" stroke-linejoin="bevel" transform="matrix(6.08211,0,0,6.08211,-68.8925,-68.8925)"
font-family="Helvetica" font-size="12" font-weight="400" font-style="normal" 
>
</g>

<g fill="#629bca" fill-opacity="1" stroke="none" transform="matrix(6.08211,0,0,6.08211,-68.8925,-68.8925)"
font-family="Helvetica" font-size="12" font-weight="400" font-style="normal" 
>
<path vector-effect="none" fill-rule="nonzero" d="M135.976,53.5896 L140.094,56.0503 L138.032,59.5013 L133.914,57.0405 L135.976,53.5896"/>
</g>

<g fill="none" stroke="#000000" stroke-opacity="1" stroke-width="0.3" stroke-linecap="square" stroke-linejoin="round" transform="matrix(6.08211,0,0,6.08211,-68.8925,-68.8925)"
font-family="Helvetica" font-size="12" font-weight="400" font-style="normal" 
>
<path vector-effect="none" fill-rule="evenodd" d="M135.976,53.5896 L140.094,56.0503 L138.032,59.5013 L133.914,57.0405 L135.976,53.5896"/>
</g>

<g fill="none" stroke="#000000" stroke-opacity="1" stroke-width="1" stroke-linecap="square" stroke-linejoin="bevel" transform="matrix(6.08211,0,0,6.08211,-68.8925,-68.8925)"
font-family="Helvetica" font-size="12" font-weight="400" font-style="normal" 
>
</g>

<g fill="none" stroke="#000000" stroke-opacity="1" stroke-width="1" stroke-linecap="square" stroke-linejoin="bevel" transform="matrix(6.08211,0,0,6.08211,-68.8925,-68.8925)"
font-family="Helvetica" font-size="12" font-weight="400" font-style="normal" 
>
</g>

<g fill="#ca6293" fill-opacity="1" stroke="none" transform="matrix(6.08211,0,0,6.08211,-68.8925,-68.8925)"
font-family="Helvetica" font-size="12" font-weight="400" font-style="normal" 
>
<path vector-effect="none" fill-rule="nonzero" d="M135.953,55.4098 L149.874,68.4925 C149.882,68.4995 149.889,68.5066 149.896,68.5136 L149.896,68.5137 L162.592,80.701 L160.596,82.7797 L162.438,80.5635 L175.326,91.2743 L173.485,93.4904 L174.894,90.9768 L188.978,98.8705 L187.569,101.384 L188.373,98.6169 L203.735,103.078 L202.127,108.612 L186.766,104.151 C186.552,104.09 186.349,104.004 186.16,103.898 L186.16,103.898 L172.076,96.0041 C171.922,95.9182 171.777,95.8184 171.643,95.7067 L171.643,95.7066 L158.754,84.9959 C158.701,84.9519 158.65,84.906 158.601,84.8584 L158.601,84.8584 L145.905,72.671 L147.901,70.5923 L145.928,72.6922 L132.006,59.6095 L135.953,55.4098"/>
</g>

<g fill="none" stroke="#000000" stroke-opacity="1" stroke-width="0.3" stroke-linecap="square" stroke-linejoin="round" transform="matrix(6.08211,0,0,6.08211,-68.8925,-68.8925)"
font-family="Helvetica" font-size="12" font-weight="400" font-style="normal" 
>
<path vector-effect="none" fill-rule="evenodd" d="M135.953,55.4098 L149.874,68.4925 L149.885,68.5031 L149.896,68.5136 L149.896,68.5137 L162.517,80.6295 L175.124,91.1057 L188.69,98.709 L203.735,103.078 L202.127,108.612 L186.766,104.151 L186.454,104.042 L186.16,103.898 L186.16,103.898 L172.076,96.0041 L171.852,95.8651 L171.643,95.7067 L171.643,95.7066 L158.754,84.9959 L158.676,84.9285 L158.601,84.8584 L158.601,84.8584 L145.916,72.6817 L132.006,59.6095 L135.953,55.4098"/>
</g>

<g fill="none" stroke="#000000" stroke-opacity="1" stroke-width="1" stroke-linecap="square" stroke-linejoin="bevel" transform="matrix(6.08211,0,0,6.08211,-68.8925,-68.8925)"
font-family="Helvetica" font-size="12" font-weight="400" font-style="normal" 
>
</g>

<g fill="none" stroke="#000000" stroke-opacity="1" stroke-width="1" stroke-linecap="square" stroke-linejoin="bevel" transform="matrix(6.08211,0,0,6.08211,-68.8925,-68.8925)"
font-family="Helvetica" font-size="12" font-weight="400" font-style="normal" 
>
</g>

<g fill="#ca627c" fill-opacity="1" stroke="none" transform="matrix(6.08211,0,0,6.08211,-68.8925,-68.8925)"
font-family="Helvetica" font-size="12" font-weight="400" font-style="normal" 
>
<path vector-effect="none" fill-rule="nonzero" d="M25.0291,159.287 L44.4773,159.521 L44.419,164.365 L24.9709,164.131 L25.0291,159.287"/>
</g>

<g fill="none" stroke="#000000" stroke-opacity="1" stroke-width="0.3" stroke-linecap="square" stroke-linejoin="round" transform="matrix(6.08211,0,0,6.08211,-68.8925,-68.8925)"
font-family="Helvetica" font-size="12" font-weight="400" font-style="normal" 
>
<path vector-effect="none" fill-rule="evenodd" d="M25.0291,159.287 L44.4773,159.521 L44.419,164.365 L24.9709,164.131 L25.0291,159.287"/>
</g>

<g fill="none" stroke="#000000" stroke-opacity="1" stroke-width="1" stroke-linecap="square" stroke-linejoin="bevel" transform="matrix(6.08211,0,0,6.08211,-68.8925,-68.8925)"
font-family="Helvetica" font-size="12" font-weight="400" font-style="normal" 
>
</g>

<g fill="none" stroke="#000000" stroke-opacity="1" stroke-width="1" stroke-linecap="square" stroke-linejoin="bevel" transform="matrix(6.08211,0,0,6.08211,-68.8925,-68.8925)"
font-family="Helvetica" font-size="12" font-weight="400" font-style="normal" 
>
</g>

<g fill="#62ca7e" fill-opacity="1" stroke="none" transform="matrix(6.08211,0,0,6.08211,-68.8925,-68.8925)"
font-family="Helvetica" font-size="12" font-weight="400" font-style="normal" 
>
<path vector-effect="none" fill-rule="nonzero" d="M130.463,53.5276 L121.417,40.3106 L123.412,38.9455 L122.709,41.258 L107.287,36.5707 L107.99,34.2582 L109.29,36.2956 L95.0585,45.377 L93.7584,43.3395 L95.5811,44.9267 L84.5871,57.5522 L82.7644,55.965 L84.9245,57.0493 L77.3416,72.1561 L75.1815,71.0718 L77.4874,71.796 L72.3143,88.2684 L70.0084,87.5442 L72.3368,88.1924 L67.3135,106.237 L62.6567,104.94 L67.68,86.896 C67.6868,86.8694 67.6943,86.8441 67.702,86.8195 L67.7025,86.8201 L72.8756,70.3477 C72.9143,70.222 72.9633,70.1019 73.021,69.9871 L73.0214,69.9875 L80.6042,54.8807 C80.6954,54.6983 80.8092,54.5297 80.9416,54.3777 L80.9416,54.3778 L91.9356,41.7523 C92.0871,41.5785 92.263,41.4265 92.4579,41.3019 L92.4582,41.302 L106.69,32.2207 C107.065,31.9804 107.512,31.8412 107.99,31.8412 C109.325,31.8412 110.407,32.9233 110.407,34.2582 C110.407,35.593 109.325,36.6751 107.99,36.6751 C106.655,36.6751 105.573,35.593 105.573,34.2582 C105.573,34.1435 105.581,34.0307 105.597,33.9211 L108.693,31.9457 L124.115,36.633 C124.647,36.794 125.1,37.1329 125.407,37.5802 L125.407,37.5804 L134.452,50.7974 L130.463,53.5276"/>
</g>

<g fill="none" stroke="#000000" stroke-opacity="1" stroke-width="0.3" stroke-linecap="square" stroke-linejoin="round" transform="matrix(6.08211,0,0,6.08211,-68.8925,-68.8925)"
font-family="Helvetica" font-size="12" font-weight="400" font-style="normal" 
>
<path vector-effect="none" fill-rule="evenodd" d="M130.463,53.5276 L121.897,41.0111 L108.352,36.8943 L95.3523,45.1895 L84.7875,57.322 L77.429,71.9819 L72.3262,88.2306 L67.3135,106.237 L62.6567,104.94 L67.68,86.896 L67.6906,86.857 L67.702,86.8195 L67.7025,86.8201 L72.8756,70.3477 L72.9412,70.1633 L73.021,69.9871 L73.0214,69.9875 L80.6042,54.8807 L80.7574,54.6178 L80.9416,54.3777 L80.9416,54.3778 L91.9356,41.7523 L92.1805,41.5086 L92.4579,41.3019 L92.4582,41.302 L106.69,32.2207 L107.301,31.9408 L107.99,31.8412 L108.516,32.0588 L108.693,31.9457 L124.115,36.633 L124.845,36.9993 L125.407,37.5802 L125.407,37.5804 L134.452,50.7974 L130.463,53.5276"/>
</g>

<g fill="none" stroke="#000000" stroke-opacity="1" stroke-width="1" stroke-linecap="square" stroke-linejoin="bevel" transform="matrix(6.08211,0,0,6.08211,-68.8925,-68.8925)"
font-family="Helvetica" font-size="12" font-weight="400" font-style="normal" 
>
</g>

<g fill="none" stroke="#000000" stroke-opacity="1" stroke-width="1" stroke-linecap="square" stroke-linejoin="bevel" transform="matrix(6.08211,0,0,6.08211,-68.8925,-68.8925)"
font-family="Helvetica" font-size="12" font-weight="400" font-style="normal" 
>
</g>

<g fill="#c3ca62" fill-opacity="1" stroke="none" transform="matrix(6.08211,0,0,6.08211,-68.8925,-68.8925)"
font-family="Helvetica" font-size="12" font-weight="400" font-style="normal" 
>
<path vector-effect="none" fill-rule="nonzero" d="M206.848,106.466 L222.251,106.679 L222.217,109.108 L220.973,107.021 L233.309,99.6684 L234.553,101.755 L232.202,102.366 L228.827,89.3839 L231.178,88.7728 L232.012,91.0545 L218.959,95.823 L218.126,93.5413 L219.55,95.5092 L207.617,104.145 L204.769,100.209 L216.701,91.5733 C216.881,91.4429 217.079,91.3366 217.291,91.2592 L217.292,91.2595 L230.345,86.4911 C230.604,86.3955 230.885,86.3436 231.178,86.3436 C232.52,86.3436 233.607,87.4312 233.607,88.7728 C233.607,90.1144 232.52,91.202 231.178,91.202 C230.212,91.202 229.378,90.6381 228.987,89.8218 L233.529,88.1616 L236.904,101.144 C236.955,101.339 236.982,101.544 236.982,101.755 C236.982,102.642 236.507,103.418 235.797,103.842 L235.797,103.842 L223.461,111.194 C223.097,111.412 222.672,111.537 222.217,111.537 C222.206,111.537 222.194,111.537 222.183,111.537 L222.183,111.537 L206.78,111.324 L206.848,106.466"/>
</g>

<g fill="none" stroke="#000000" stroke-opacity="1" stroke-width="0.3" stroke-linecap="square" stroke-linejoin="round" transform="matrix(6.08211,0,0,6.08211,-68.8925,-68.8925)"
font-family="Helvetica" font-size="12" font-weight="400" font-style="normal" 
>
<path vector-effect="none" fill-rule="evenodd" d="M206.848,106.466 L221.564,106.669 L231.743,100.602 L229.5,91.9721 L219.276,95.7071 L207.617,104.145 L204.769,100.209 L216.701,91.5733 L216.984,91.3964 L217.291,91.2592 L217.292,91.2595 L230.345,86.4911 L230.749,86.3815 L231.178,86.3436 L232.896,87.0551 L233.377,88.2172 L233.529,88.1616 L236.904,101.144 L236.962,101.443 L236.982,101.755 L236.656,102.972 L235.797,103.842 L235.797,103.842 L223.461,111.194 L222.873,111.447 L222.217,111.537 L222.2,111.537 L222.183,111.537 L222.183,111.537 L206.78,111.324 L206.848,106.466"/>
</g>

<g fill="none" stroke="#000000" stroke-opacity="1" stroke-width="1" stroke-linecap="square" stroke-linejoin="bevel" transform="matrix(6.08211,0,0,6.08211,-68.8925,-68.8925)"
font-family="Helvetica" font-size="12" font-weight="400" font-style="normal" 
>
</g>

<g fill="none" stroke="#000000" stroke-opacity="1" stroke-width="1" stroke-linecap="square" stroke-linejoin="bevel" transform="matrix(1,0,0,1,0,0)"
font-family="Helvetica" font-size="12" font-weight="400" font-style="normal" 
>
</g>
</g>
</svg>
