<?xml version="1.0" encoding="UTF-8" standalone="no"?>
<svg width="467.431mm" height="352.778mm"
 viewBox="0 0 1325 1000"
 xmlns="http://www.w3.org/2000/svg" xmlns:xlink="http://www.w3.org/1999/xlink"  version="1.2" baseProfile="tiny">
<title>Qt SVG Document</title>
<desc>Generated with Qt</desc>
<defs>
</defs>
<g fill="none" stroke="black" stroke-width="1" fill-rule="evenodd" stroke-linecap="square" stroke-linejoin="bevel" >

<g fill="#ffffff" fill-opacity="1" stroke="none" transform="matrix(1,0,0,1,0,0)"
font-family="Helvetica" font-size="12" font-weight="400" font-style="normal" 
>
<rect x="0" y="0" width="1325" height="1000"/>
</g>

<g fill="none" stroke="#000000" stroke-opacity="1" stroke-width="1" stroke-linecap="square" stroke-linejoin="bevel" transform="matrix(1,0,0,1,0,0)"
font-family="Helvetica" font-size="12" font-weight="400" font-style="normal" 
>
</g>

<g fill="none" stroke="#000000" stroke-opacity="1" stroke-width="1" stroke-linecap="square" stroke-linejoin="bevel" transform="matrix(1,0,0,1,0,0)"
font-family="Helvetica" font-size="12" font-weight="400" font-style="normal" 
>
</g>

<g fill="none" stroke="#000000" stroke-opacity="1" stroke-width="1" stroke-linecap="square" stroke-linejoin="bevel" transform="matrix(6.36755,0,0,6.36755,-79.8588,-79.8588)"
font-family="Helvetica" font-size="12" font-weight="400" font-style="normal" 
>
</g>

<g fill="none" stroke="#000000" stroke-opacity="0.705882" stroke-width="1.5" stroke-linecap="round" stroke-linejoin="bevel" transform="matrix(6.36755,0,0,6.36755,-79.8588,-79.8588)"
font-family="Helvetica" font-size="12" font-weight="400" font-style="normal" 
>
<path vector-effect="none" fill-rule="evenodd" d="M198.546,130.948 C200.658,129.445 200.832,129.26 201.663,126.804 "/>
</g>

<g fill="none" stroke="#000000" stroke-opacity="1" stroke-width="1" stroke-linecap="square" stroke-linejoin="bevel" transform="matrix(6.36755,0,0,6.36755,-79.8588,-79.8588)"
font-family="Helvetica" font-size="12" font-weight="400" font-style="normal" 
>
</g>

<g fill="none" stroke="#000000" stroke-opacity="1" stroke-width="1" stroke-linecap="square" stroke-linejoin="bevel" transform="matrix(6.36755,0,0,6.36755,-79.8588,-79.8588)"
font-family="Helvetica" font-size="12" font-weight="400" font-style="normal" 
>
</g>

<g fill="#bc62ca" fill-opacity="1" stroke="none" transform="matrix(6.36755,0,0,6.36755,-79.8588,-79.8588)"
font-family="Helvetica" font-size="12" font-weight="400" font-style="normal" 
>
<path vector-effect="none" fill-rule="nonzero" d="M199.295,126.003 L205.691,107.106 L208.059,107.907 L205.559,107.893 L205.669,88.1242 L208.169,88.1381 L205.793,88.9145 L199.622,70.0277 L201.999,69.2513 L199.959,70.6963 L188.399,54.3756 L190.439,52.9306 L188.852,54.8621 L173.279,42.0641 L174.866,40.1326 L173.768,42.3788 L155.515,33.4606 L156.612,31.2143 L156,33.6381 L136.182,28.6288 L136.794,26.205 L136.647,28.7007 L116.171,27.4957 L116.318,25 L116.619,27.4819 L96.2552,29.9473 L95.9548,27.4655 L96.6911,29.8546 L77.1624,35.8733 L76.4261,33.4842 L77.5947,35.6943 L59.6656,45.1749 L58.497,42.9648 L60.0975,44.8853 L44.687,57.7292 L43.0864,55.8087 L45.1044,57.2844 L33.417,73.2675 L31.3989,71.7919 L33.7612,72.6103 L27.3622,91.0802 L25,90.2618 L27.4992,90.1969 L28.0018,109.557 L25.5027,109.622 L27.782,108.595 L35.7175,126.208 L33.4381,127.235 L35.1844,125.446 L49.0815,139.012 L47.3352,140.801 L48.4776,138.577 L65.9358,147.546 L64.7934,149.77 L65.4357,147.354 L84.6297,152.456 L83.9875,154.872 L84.2608,152.387 L104.195,154.58 L103.921,157.065 L103.913,154.565 L124.083,154.493 L124.092,156.993 L123.823,154.507 L143.904,152.338 L144.172,154.824 L143.603,152.39 L163.204,147.804 L163.773,150.238 L162.814,147.93 L181.259,140.263 L182.219,142.571 L180.769,140.535 L197.096,128.912 L199.996,132.985 L183.669,144.608 C183.517,144.716 183.353,144.808 183.179,144.88 L183.178,144.88 L164.733,152.547 C164.608,152.599 164.478,152.642 164.344,152.673 L164.343,152.673 L144.742,157.258 C144.644,157.281 144.543,157.299 144.442,157.309 L144.441,157.309 L124.36,159.478 C124.275,159.488 124.189,159.493 124.101,159.493 L124.101,159.493 L103.93,159.565 C103.927,159.565 103.924,159.565 103.921,159.565 C103.829,159.565 103.737,159.56 103.648,159.55 L103.648,159.55 L83.7141,157.357 C83.587,157.344 83.4637,157.32 83.3446,157.289 L83.3452,157.288 L64.1511,152.186 C63.9752,152.14 63.8079,152.075 63.6506,151.994 L63.651,151.994 L46.1928,143.025 C45.9696,142.911 45.7664,142.763 45.5889,142.59 L45.5889,142.59 L31.6918,129.024 C31.4696,128.807 31.2877,128.549 31.1584,128.263 L31.1588,128.262 L23.2233,110.649 C23.0898,110.354 23.0122,110.029 23.0035,109.687 L23.0035,109.686 L22.5008,90.3267 C22.5003,90.3052 22.5,90.2835 22.5,90.2618 C22.5,89.9748 22.5484,89.6991 22.6372,89.4428 L22.6378,89.4434 L29.0367,70.9735 C29.1185,70.7354 29.2354,70.5146 29.3808,70.3161 L29.3809,70.3162 L41.0684,54.3331 C41.1889,54.1682 41.3292,54.0188 41.4857,53.8882 L41.4858,53.8883 L56.8964,41.0444 C57.0292,40.9335 57.1738,40.8361 57.3278,40.7545 L57.3283,40.7548 L75.2575,31.2742 C75.3941,31.2012 75.5386,31.141 75.6886,31.0948 L75.6898,31.0951 L95.2184,25.0763 C95.3583,25.0326 95.5041,25.0013 95.6532,24.9835 L95.6543,24.9836 L116.018,22.5181 C116.116,22.5061 116.216,22.5 116.318,22.5 C117.699,22.5 118.818,23.6193 118.818,25 C118.818,26.3807 117.699,27.5 116.318,27.5 C114.937,27.5 113.818,26.3807 113.818,25 C113.818,23.8765 114.559,22.9261 115.579,22.6111 L116.465,22.5043 L136.941,23.7093 C137.102,23.7186 137.258,23.7429 137.408,23.7807 L137.407,23.7812 L157.225,28.7906 C157.395,28.8329 157.557,28.8927 157.71,28.9677 L157.71,28.9681 L175.963,37.8864 C176.14,37.9721 176.304,38.0781 176.453,38.2011 L176.453,38.2011 L192.027,50.9992 C192.198,51.1403 192.351,51.304 192.48,51.4855 L192.48,51.4857 L204.039,67.8064 C204.183,68.0087 204.297,68.2334 204.375,68.4738 L204.375,68.4749 L210.546,87.3617 C210.626,87.6057 210.669,87.8669 210.669,88.1381 C210.669,88.1428 210.669,88.1475 210.669,88.1521 L210.669,88.1521 L210.559,107.921 C210.557,108.197 210.511,108.462 210.428,108.709 L210.427,108.709 L204.031,127.606 L199.295,126.003"/>
</g>

<g fill="none" stroke="#000000" stroke-opacity="1" stroke-width="0.3" stroke-linecap="square" stroke-linejoin="round" transform="matrix(6.36755,0,0,6.36755,-79.8588,-79.8588)"
font-family="Helvetica" font-size="12" font-weight="400" font-style="normal" 
>
<path vector-effect="none" fill-rule="evenodd" d="M199.295,126.003 L205.561,107.489 L205.667,88.5294 L199.74,70.3874 L188.593,54.6492 L173.505,42.2502 L155.748,33.5745 L136.411,28.6868 L116.395,27.5089 L96.4773,29.9204 L77.387,35.8041 L59.8967,45.0527 L44.923,57.5324 L33.6384,72.9647 L27.5109,90.651 L27.9888,109.054 L35.5231,125.777 L48.8123,138.749 L65.6961,147.423 L84.4478,152.408 L104.054,154.564 L123.953,154.493 L143.752,152.355 L163.004,147.851 L180.999,140.371 L197.096,128.912 L199.996,132.985 L183.669,144.608 L183.432,144.757 L183.179,144.88 L183.178,144.88 L164.733,152.547 L164.542,152.618 L164.344,152.673 L164.343,152.673 L144.742,157.258 L144.593,157.288 L144.442,157.309 L144.441,157.309 L124.36,159.478 L124.232,159.489 L124.101,159.493 L124.101,159.493 L103.93,159.565 L103.926,159.565 L103.921,159.565 L103.783,159.561 L103.648,159.55 L103.648,159.55 L83.7141,157.357 L83.5264,157.33 L83.3446,157.289 L83.3452,157.288 L64.1511,152.186 L63.8939,152.103 L63.6506,151.994 L63.651,151.994 L46.1928,143.025 L45.8737,142.83 L45.5889,142.59 L45.5889,142.59 L31.6918,129.024 L31.3903,128.67 L31.1584,128.263 L31.1588,128.262 L23.2233,110.649 L23.0666,110.186 L23.0035,109.687 L23.0035,109.686 L22.5008,90.3267 L22.5002,90.2943 L22.5,90.2618 L22.5353,89.8408 L22.6372,89.4428 L22.6378,89.4434 L29.0367,70.9735 L29.1849,70.63 L29.3808,70.3161 L29.3809,70.3162 L41.0684,54.3331 L41.2636,54.0978 L41.4857,53.8882 L41.4858,53.8883 L56.8964,41.0444 L57.1041,40.8884 L57.3278,40.7545 L57.3283,40.7548 L75.2575,31.2742 L75.468,31.1744 L75.6886,31.0948 L75.6898,31.0951 L95.2184,25.0763 L95.4324,25.0202 L95.6532,24.9835 L95.6543,24.9836 L116.018,22.5181 L116.166,22.5045 L116.318,22.5 L116.359,22.5171 L116.465,22.5043 L136.941,23.7093 L137.178,23.7343 L137.408,23.7807 L137.407,23.7812 L157.225,28.7906 L157.474,28.8669 L157.71,28.9677 L157.71,28.9681 L175.963,37.8864 L176.218,38.0297 L176.453,38.2011 L176.453,38.2011 L192.027,50.9992 L192.269,51.2272 L192.48,51.4855 L192.48,51.4857 L204.039,67.8064 L204.232,68.1258 L204.375,68.4738 L204.375,68.4749 L210.546,87.3617 L210.638,87.7397 L210.669,88.1381 L210.669,88.1451 L210.669,88.1521 L210.669,88.1521 L210.559,107.921 L210.524,108.326 L210.428,108.709 L210.427,108.709 L204.031,127.606 L199.295,126.003"/>
</g>

<g fill="none" stroke="#000000" stroke-opacity="1" stroke-width="1" stroke-linecap="square" stroke-linejoin="bevel" transform="matrix(6.36755,0,0,6.36755,-79.8588,-79.8588)"
font-family="Helvetica" font-size="12" font-weight="400" font-style="normal" 
>
</g>

<g fill="none" stroke="#000000" stroke-opacity="1" stroke-width="1" stroke-linecap="square" stroke-linejoin="bevel" transform="matrix(1,0,0,1,0,0)"
font-family="Helvetica" font-size="12" font-weight="400" font-style="normal" 
>
</g>
</g>
</svg>
